<svg width="207" height="40" viewBox="0 0 207 40" fill="none" xmlns="http://www.w3.org/2000/svg">
<g clip-path="url(#clip0_818_10253)">
<path fill-rule="evenodd" clip-rule="evenodd" d="M0.868652 18.2457L11.395 0.701782H13.1494H15.781H39.4652V4.21055H13.6757L7.35988 14.7368H9.99146L15.2547 5.96494H16.6581H19.2897H35.9563H39.4652V9.47369V11.2281V14.7368H35.9563H21.4827L19.2897 18.2457H14.9037L19.1142 11.2281H20.1669H23.6757H35.9563V9.47369H17.2847L12.2721 18.2457H11.395H7.8862H5.25462H4.37742H0.868652ZM0.868652 21.7544L11.395 39.2983H13.1494H15.781H35.9563H39.4652V35.7895V34.0352V30.5263H35.9563H17.2847L14.2772 25.2632H17.009L19.1142 28.772H20.1669H23.6757H39.4652V25.2632H21.4827L19.2897 21.7544H18.4125H14.9037H12.2721H11.395H7.8862L15.2547 34.0352H16.6581H19.2897H35.9563V35.7895H13.6757L5.25462 21.7544H0.868652Z" fill="black"/>
<path d="M69.203 16.375H65.2736C65.2018 15.8666 65.0553 15.4151 64.834 15.0203C64.6127 14.6196 64.3286 14.2787 63.9817 13.9976C63.6349 13.7165 63.2341 13.5012 62.7796 13.3517C62.331 13.2022 61.8436 13.1274 61.3173 13.1274C60.3663 13.1274 59.538 13.3636 58.8322 13.8361C58.1265 14.3026 57.5792 14.9845 57.1905 15.8816C56.8017 16.7727 56.6073 17.8553 56.6073 19.1292C56.6073 20.439 56.8017 21.5395 57.1905 22.4306C57.5852 23.3218 58.1354 23.9946 58.8412 24.4492C59.5469 24.9037 60.3633 25.131 61.2904 25.131C61.8107 25.131 62.2921 25.0622 62.7347 24.9246C63.1833 24.7871 63.581 24.5867 63.9279 24.3236C64.2748 24.0544 64.5619 23.7285 64.7892 23.3457C65.0224 22.9629 65.1839 22.5263 65.2736 22.0359L69.203 22.0538C69.1014 22.8971 68.8472 23.7105 68.4405 24.494C68.0398 25.2715 67.4985 25.9683 66.8167 26.5843C66.1408 27.1944 65.3334 27.6788 64.3944 28.0377C63.4614 28.3906 62.4058 28.567 61.2276 28.567C59.5888 28.567 58.1235 28.1962 56.8316 27.4546C55.5457 26.7129 54.529 25.6394 53.7814 24.2339C53.0398 22.8284 52.6689 21.1268 52.6689 19.1292C52.6689 17.1256 53.0457 15.4211 53.7993 14.0156C54.5529 12.6101 55.5756 11.5395 56.8675 10.8038C58.1594 10.0622 59.6127 9.69139 61.2276 9.69139C62.2921 9.69139 63.279 9.84092 64.1881 10.14C65.1032 10.439 65.9136 10.8756 66.6193 11.4498C67.325 12.0179 67.8992 12.7147 68.3418 13.5401C68.7904 14.3654 69.0774 15.3104 69.203 16.375ZM74.7281 20.3493V28.3158H70.9063V9.94259H74.6204V16.9671H74.7819C75.0929 16.1537 75.5953 15.5168 76.2891 15.0562C76.9829 14.5897 77.8531 14.3565 78.8997 14.3565C79.8567 14.3565 80.691 14.5658 81.4027 14.9845C82.1204 15.3971 82.6767 15.9922 83.0714 16.7697C83.4721 17.5413 83.6695 18.4653 83.6635 19.5419V28.3158H79.8417V20.2237C79.8477 19.3744 79.6324 18.7135 79.1958 18.241C78.7652 17.7685 78.1611 17.5323 77.3836 17.5323C76.8633 17.5323 76.4027 17.6429 76.002 17.8642C75.6073 18.0855 75.2963 18.4085 75.069 18.8331C74.8477 19.2518 74.7341 19.7572 74.7281 20.3493ZM89.59 28.576C88.7108 28.576 87.9273 28.4235 87.2395 28.1184C86.5517 27.8074 86.0075 27.3499 85.6068 26.7458C85.212 26.1358 85.0147 25.3762 85.0147 24.4671C85.0147 23.7016 85.1552 23.0586 85.4363 22.5383C85.7174 22.0179 86.1002 21.5993 86.5846 21.2823C87.0691 20.9653 87.6193 20.7261 88.2354 20.5646C88.8574 20.4031 89.5093 20.2895 90.1911 20.2237C90.9925 20.14 91.6385 20.0622 92.1289 19.9904C92.6193 19.9127 92.9752 19.799 93.1965 19.6495C93.4178 19.5 93.5284 19.2787 93.5284 18.9857V18.9318C93.5284 18.3636 93.349 17.924 92.9901 17.613C92.6373 17.302 92.1349 17.1465 91.483 17.1465C90.7952 17.1465 90.2479 17.299 89.8412 17.6041C89.4345 17.9031 89.1654 18.2799 89.0338 18.7345L85.4991 18.4474C85.6785 17.6101 86.0314 16.8864 86.5577 16.2763C87.084 15.6603 87.7629 15.1878 88.5942 14.8589C89.4315 14.5239 90.4004 14.3565 91.5009 14.3565C92.2665 14.3565 92.9991 14.4462 93.6989 14.6256C94.4046 14.805 95.0296 15.0831 95.5739 15.4599C96.1241 15.8367 96.5577 16.3212 96.8747 16.9133C97.1917 17.4994 97.3502 18.2022 97.3502 19.0215V28.3158H93.7258V26.4049H93.6181C93.3968 26.8355 93.1008 27.2153 92.73 27.5443C92.3592 27.8672 91.9136 28.1214 91.3933 28.3068C90.8729 28.4863 90.2718 28.576 89.59 28.576ZM90.6845 25.9384C91.2467 25.9384 91.7431 25.8278 92.1738 25.6065C92.6044 25.3792 92.9423 25.0742 93.1875 24.6914C93.4327 24.3086 93.5553 23.875 93.5553 23.3906V21.9282C93.4357 22.006 93.2712 22.0778 93.0619 22.1435C92.8586 22.2034 92.6283 22.2602 92.3711 22.314C92.1139 22.3618 91.8568 22.4067 91.5996 22.4486C91.3424 22.4845 91.1092 22.5174 90.8998 22.5473C90.4513 22.613 90.0595 22.7177 89.7246 22.8613C89.3897 23.0048 89.1295 23.1992 88.9441 23.4444C88.7587 23.6836 88.666 23.9827 88.666 24.3415C88.666 24.8618 88.8544 25.2596 89.2312 25.5347C89.6139 25.8038 90.0984 25.9384 90.6845 25.9384ZM99.3047 28.3158V14.5359H103.126V28.3158H99.3047ZM101.225 12.7596C100.656 12.7596 100.169 12.5712 99.7622 12.1944C99.3615 11.8116 99.1611 11.3541 99.1611 10.8218C99.1611 10.2955 99.3615 9.84391 99.7622 9.46711C100.169 9.08434 100.656 8.89295 101.225 8.89295C101.793 8.89295 102.277 9.08434 102.678 9.46711C103.085 9.84391 103.288 10.2955 103.288 10.8218C103.288 11.3541 103.085 11.8116 102.678 12.1944C102.277 12.5712 101.793 12.7596 101.225 12.7596ZM108.999 20.3493V28.3158H105.177V14.5359H108.82V16.9671H108.981C109.286 16.1657 109.798 15.5317 110.515 15.0652C111.233 14.5927 112.103 14.3565 113.126 14.3565C114.083 14.3565 114.917 14.5658 115.629 14.9845C116.341 15.4031 116.894 16.0012 117.289 16.7787C117.683 17.5502 117.881 18.4713 117.881 19.5419V28.3158H114.059V20.2237C114.065 19.3804 113.85 18.7225 113.413 18.25C112.976 17.7715 112.375 17.5323 111.61 17.5323C111.095 17.5323 110.641 17.6429 110.246 17.8642C109.857 18.0855 109.552 18.4085 109.331 18.8331C109.116 19.2518 109.005 19.7572 108.999 20.3493ZM119.568 25.0861V22.0269L127.239 9.94259H129.876V14.177H128.315L123.48 21.8296V21.9731H134.38V25.0861H119.568ZM128.387 28.3158V24.1531L128.459 22.7985V9.94259H132.101V28.3158H128.387ZM135.365 13.1453V9.94259H150.455V13.1453H144.83V28.3158H140.99V13.1453H135.365ZM150.427 28.3158V14.5359H154.132V16.9402H154.276C154.527 16.0849 154.949 15.439 155.541 15.0024C156.133 14.5598 156.815 14.3385 157.586 14.3385C157.778 14.3385 157.984 14.3505 158.205 14.3744C158.426 14.3983 158.621 14.4312 158.788 14.4731V17.8642C158.609 17.8104 158.361 17.7626 158.044 17.7207C157.727 17.6788 157.437 17.6579 157.173 17.6579C156.611 17.6579 156.109 17.7805 155.666 18.0257C155.23 18.265 154.883 18.5999 154.626 19.0305C154.374 19.4611 154.249 19.9575 154.249 20.5197V28.3158H150.427ZM163.288 28.576C162.409 28.576 161.626 28.4235 160.938 28.1184C160.25 27.8074 159.706 27.3499 159.305 26.7458C158.91 26.1358 158.713 25.3762 158.713 24.4671C158.713 23.7016 158.854 23.0586 159.135 22.5383C159.416 22.0179 159.799 21.5993 160.283 21.2823C160.767 20.9653 161.318 20.7261 161.934 20.5646C162.556 20.4031 163.208 20.2895 163.889 20.2237C164.691 20.14 165.337 20.0622 165.827 19.9904C166.318 19.9127 166.674 19.799 166.895 19.6495C167.116 19.5 167.227 19.2787 167.227 18.9857V18.9318C167.227 18.3636 167.047 17.924 166.688 17.613C166.336 17.302 165.833 17.1465 165.181 17.1465C164.494 17.1465 163.946 17.299 163.54 17.6041C163.133 17.9031 162.864 18.2799 162.732 18.7345L159.197 18.4474C159.377 17.6101 159.73 16.8864 160.256 16.2763C160.782 15.6603 161.461 15.1878 162.293 14.8589C163.13 14.5239 164.099 14.3565 165.199 14.3565C165.965 14.3565 166.697 14.4462 167.397 14.6256C168.103 14.805 168.728 15.0831 169.272 15.4599C169.822 15.8367 170.256 16.3212 170.573 16.9133C170.89 17.4994 171.049 18.2022 171.049 19.0215V28.3158H167.424V26.4049H167.316C167.095 26.8355 166.799 27.2153 166.428 27.5443C166.058 27.8672 165.612 28.1214 165.092 28.3068C164.571 28.4863 163.97 28.576 163.288 28.576ZM164.383 25.9384C164.945 25.9384 165.441 25.8278 165.872 25.6065C166.303 25.3792 166.641 25.0742 166.886 24.6914C167.131 24.3086 167.254 23.875 167.254 23.3906V21.9282C167.134 22.006 166.97 22.0778 166.76 22.1435C166.557 22.2034 166.327 22.2602 166.069 22.314C165.812 22.3618 165.555 22.4067 165.298 22.4486C165.041 22.4845 164.808 22.5174 164.598 22.5473C164.15 22.613 163.758 22.7177 163.423 22.8613C163.088 23.0048 162.828 23.1992 162.642 23.4444C162.457 23.6836 162.364 23.9827 162.364 24.3415C162.364 24.8618 162.553 25.2596 162.93 25.5347C163.312 25.8038 163.797 25.9384 164.383 25.9384ZM185.356 14.5359L180.539 28.3158H176.233L171.415 14.5359H175.452L178.314 24.3953H178.458L181.31 14.5359H185.356ZM192.138 28.5849C190.72 28.5849 189.5 28.2979 188.477 27.7237C187.461 27.1435 186.677 26.3242 186.127 25.2656C185.577 24.201 185.301 22.942 185.301 21.4886C185.301 20.0712 185.577 18.8272 186.127 17.7566C186.677 16.686 187.452 15.8517 188.45 15.2536C189.455 14.6555 190.633 14.3565 191.985 14.3565C192.894 14.3565 193.74 14.503 194.524 14.7961C195.313 15.0831 196.001 15.5168 196.587 16.0969C197.179 16.677 197.64 17.4067 197.969 18.2859C198.298 19.1591 198.462 20.1818 198.462 21.3541V22.4037H186.827V20.0353H194.865C194.865 19.4851 194.745 18.9976 194.506 18.573C194.267 18.1483 193.935 17.8164 193.51 17.5772C193.091 17.3319 192.604 17.2093 192.048 17.2093C191.468 17.2093 190.953 17.3439 190.505 17.613C190.062 17.8762 189.715 18.2321 189.464 18.6806C189.213 19.1232 189.084 19.6166 189.078 20.1609V22.4127C189.078 23.0945 189.204 23.6836 189.455 24.18C189.712 24.6764 190.074 25.0592 190.541 25.3284C191.007 25.5975 191.56 25.7321 192.2 25.7321C192.625 25.7321 193.014 25.6723 193.367 25.5526C193.719 25.433 194.022 25.2536 194.273 25.0144C194.524 24.7751 194.715 24.4821 194.847 24.1352L198.382 24.3684C198.202 25.2177 197.834 25.9593 197.278 26.5933C196.728 27.2213 196.016 27.7117 195.143 28.0646C194.276 28.4115 193.274 28.5849 192.138 28.5849ZM203.768 9.94259V28.3158H199.946V9.94259H203.768Z" fill="black"/>
</g>
<defs>
<clipPath id="clip0_818_10253">
<rect width="205.263" height="40" fill="white" transform="translate(0.868652)"/>
</clipPath>
</defs>
</svg>
