<svg width="139" height="40" viewBox="0 0 139 40" fill="none" xmlns="http://www.w3.org/2000/svg">
<g clip-path="url(#clip0_781_867)">
<path fill-rule="evenodd" clip-rule="evenodd" d="M10.8 5.00007L17.6 18.4001L18.8 18.2001V2.50007C15.9609 2.6994 13.2139 3.59215 10.8 5.10007V5.00007ZM21.2001 2.50007V18.0001H22.4L29.2001 5.00007C26.7862 3.49216 24.0392 2.5994 21.2001 2.40007V2.50007ZM31.2001 6.50007L25.1 18.2001H25.9L35.5 11.8001C34.4263 9.76975 32.9655 7.96924 31.2001 6.50007ZM36.5 14.1001L29.8 18.7001C32.3 19.0001 35.2 19.4001 37.6 20.0001C37.6079 17.9906 37.2697 15.9947 36.6 14.1001H36.5ZM30.7001 21.2001C28.5731 20.937 26.4388 20.7369 24.3 20.6001C23.9001 20.5933 23.5 20.5933 23.1 20.6001C22.1006 20.5533 21.0995 20.5533 20.1 20.6001C19.2975 20.6315 18.4967 20.6983 17.7001 20.8001C16.9589 20.9302 16.2246 21.097 15.5 21.3001L14.1 21.7001C12.0858 22.2833 10.2595 23.3843 8.80319 24.8932C7.3469 26.4021 6.31146 28.2663 5.80005 30.3001C9.00005 34.7001 14 37.6001 20 37.6001C21.7301 37.5855 23.4486 37.316 25.1 36.8001C23.5882 35.445 22.4516 33.7229 21.8 31.8001C21.4836 30.763 21.4275 29.6639 21.6368 28.5999C21.8461 27.536 22.3143 26.54 23 25.7001C24.3 24.0001 26.4 22.7001 29 21.7001L30.7001 21.2001ZM27.7001 35.8001C25.7001 34.1001 24.6 32.5001 24.2001 31.1001C23.7001 29.6001 24 28.3001 24.9 27.1001C25.9 26.0001 27.5 24.9001 29.9 24.1001C31.9 23.4001 34.4 22.9001 37.3 22.8001C36.4 28.5001 32.7001 33.3001 27.6 35.8001H27.7001ZM4.00005 27.5001C5.00005 25.2001 7.00005 22.2001 11.2 20.2001L3.30005 14.2001C2.64167 16.0631 2.30355 18.0241 2.30005 20.0001C2.30005 22.7001 3.00005 25.3001 4.00005 27.5001ZM4.40005 12.0001L14 19.3001C14.3309 19.1921 14.6644 19.0921 15 19.0001L8.90005 6.50007C7.04168 8.00835 5.51047 9.87983 4.40005 12.0001ZM8.40005 3.70007C11.7882 1.29111 15.8428 -0.0021708 20 6.92855e-05C24.1123 -0.0107523 28.128 1.24632 31.5 3.60007C34.4157 5.65436 36.7289 8.45096 38.2001 11.7001C39.3873 14.306 40.0012 17.1364 40 20.0001V21.6001C39.7169 25.2269 38.4499 28.7079 36.3354 31.6682C34.2209 34.6285 31.339 36.9559 28 38.4001C25.4716 39.4774 22.7483 40.0221 20 40.0001C16.724 40.005 13.4969 39.2051 10.6024 37.6707C7.70789 36.1362 5.23464 33.9143 3.40005 31.2001C1.17519 27.8893 -0.00885685 23.9889 4.98818e-05 20.0001C4.98818e-05 17.0001 0.60005 14.3001 1.80005 11.7001C3.28611 8.4875 5.59814 5.72686 8.50005 3.70007H8.40005Z" fill="black"/>
<path d="M58.1 30.3C56.8 30.3 55.7 30.1 54.6 29.6C53.5043 29.1432 52.5164 28.4619 51.7 27.6C50.9205 26.757 50.3095 25.7726 49.9 24.7C49.4344 23.5221 49.1969 22.2665 49.2 21C49.2 19.7 49.4 18.5 49.9 17.4C50.3 16.2 50.9 15.3 51.7 14.4C52.5202 13.5672 53.5089 12.9194 54.6 12.5C55.7082 12.0354 56.8983 11.7973 58.1 11.8C59.4 11.8 60.6 12 61.6 12.5C62.6 12.9 63.4 13.5 64.2 14.2C64.9 14.9 65.4 15.7 65.7 16.5L62.7 17.9C62.3576 17.0179 61.7672 16.2538 61 15.7C60.2 15.1 59.3 14.8 58.1 14.8C57.1 14.8 56.1 15.1 55.1 15.6C54.3 16.1 53.7 16.8 53.1 17.8C52.6513 18.8047 52.4457 19.901 52.5 21C52.5 22.3 52.7 23.4 53.2 24.3C53.7 25.3 54.3 26 55.2 26.5C56 27 57 27.3 58.2 27.3C59.2 27.3 60.2 27 61 26.4C61.7632 25.8421 62.3527 25.0793 62.7 24.2L65.7 25.6C65.4 26.4 64.9 27.2 64.2 27.9C62.588 29.4496 60.4359 30.3104 58.2 30.3H58.1ZM71.8 30.3C70.6162 30.3685 69.4466 30.0141 68.5 29.3C68.096 28.9588 67.7772 28.528 67.5688 28.0419C67.3605 27.5559 67.2685 27.0279 67.3 26.5C67.3 25.5 67.7 24.5 68.3 23.8C69.1 23.1 70.3 22.6 71.8 22.4L75.7 21.7V21.3C75.7 20.8 75.5 20.3 75 19.9C74.6 19.5 74 19.3 73.3 19.3C72.6509 19.3 72.0193 19.5105 71.5 19.9C71.0001 20.2446 70.6165 20.7328 70.4 21.3L67.8 20.1C68.2 19.1 68.8 18.2 69.9 17.6C70.9 17 72.1 16.6 73.4 16.6C74.4 16.6 75.4 16.9 76.2 17.3C77 17.6 77.7 18.2 78.2 18.9C78.6 19.6 78.8 20.4 78.8 21.3V30H75.8V28.6C75.2913 29.15 74.6717 29.5859 73.9823 29.8789C73.2928 30.1719 72.549 30.3154 71.8 30.3ZM70.6 26.4C70.6 26.9 70.7 27.2 71.1 27.5C71.4 27.8 71.8 27.9 72.4 27.9C72.8286 27.9134 73.2554 27.8405 73.6553 27.6857C74.0552 27.5309 74.4198 27.2973 74.7276 26.9989C75.0355 26.7004 75.2802 26.3431 75.4472 25.9481C75.6142 25.5532 75.7002 25.1288 75.7 24.7V24L72.4 24.6C71.2 24.8 70.6 25.4 70.6 26.3V26.4ZM81.7 30V17H84.7V18.6C85 17.9 85.5 17.5 86.2 17.1C86.8 16.8 87.5 16.7 88.3 16.7C89.3 16.7 90 16.8 90.7 17.2C91.4 17.6 92 18.2 92.4 18.8C92.8 18.1 93.4 17.5 94.1 17.2C94.8 16.8 95.6 16.7 96.4 16.7C97.2559 16.6586 98.1059 16.8625 98.8499 17.2877C99.5939 17.7128 100.201 18.3416 100.6 19.1C101 19.8 101.2 20.6 101.2 21.6V30H98.1V22.3C98.1 21.5 97.9 20.8 97.4 20.3C97 19.8 96.4 19.5 95.6 19.5C94.8 19.5 94.2 19.8 93.8 20.3C93.3311 20.8593 93.0823 21.5704 93.1 22.3V30H89.9V22.3C89.9 21.5 89.7 20.8 89.2 20.3C88.8 19.8 88.2 19.5 87.4 19.5C86.6 19.5 86 19.8 85.6 20.3C85.1311 20.8593 84.8823 21.5704 84.9 22.3V30H81.7ZM104 15.5V12H107.2V15.4H104V15.5ZM104 30V17H107.2V30H104ZM110 30V17H113V18.6C113.327 17.9528 113.853 17.4272 114.5 17.1C115.194 16.8023 115.946 16.6656 116.7 16.7C117.7 16.7 118.5 16.9 119.2 17.3C120 17.7 120.6 18.3 121 19C121.4 19.8 121.6 20.6 121.6 21.6V30H118.5V22.3C118.5 21.5 118.2 20.8 117.7 20.3C117.3 19.8 116.7 19.5 115.8 19.5C115.1 19.5 114.4 19.8 113.9 20.3C113.4 20.8 113.2 21.5 113.2 22.3V30H110ZM130.7 30.3C129.475 30.3115 128.268 30.0012 127.2 29.4C126.173 28.8293 125.312 28.0025 124.7 27C124.1 26 123.7 24.8 123.7 23.5C123.7 22.2 124.1 21 124.7 20C125.298 18.9608 126.161 18.0983 127.2 17.5C128.277 16.9336 129.484 16.6579 130.7 16.7C131.883 16.6751 133.052 16.9503 134.1 17.5C135.142 18.0945 136.006 18.9579 136.6 20C137.2 21 137.6 22.2 137.6 23.5C137.6 24.8 137.2 26 136.6 27C135.988 28.0025 135.127 28.8293 134.1 29.4C133.062 29.9845 131.891 30.2943 130.7 30.3ZM130.7 27.4C131.327 27.3905 131.938 27.2081 132.468 26.8728C132.997 26.5375 133.424 26.0624 133.7 25.5C134.1 24.9 134.3 24.2 134.3 23.5C134.3 22.8 134.1 22 133.8 21.5C133.505 20.9218 133.055 20.4371 132.5 20.1C132 19.7 131.4 19.5 130.7 19.5C130 19.5 129.3 19.7 128.7 20.1C128.2 20.4 127.7 20.9 127.5 21.5C127.2 22 127 22.7 127 23.5C127 24.3 127.2 24.9 127.5 25.5C127.8 26.1 128.2 26.5 128.8 26.9C129.3 27.2 130 27.4 130.7 27.4Z" fill="black"/>
</g>
<defs>
<clipPath id="clip0_781_867">
<rect width="139" height="40" fill="white"/>
</clipPath>
</defs>
</svg>
