<svg width="157" height="40" viewBox="0 0 157 40" fill="none" xmlns="http://www.w3.org/2000/svg">
<path fill-rule="evenodd" clip-rule="evenodd" d="M15.6147 1.50744C17.1464 0.733728 17.9123 0.346873 18.7163 0.194666C19.4284 0.0598671 20.1594 0.0598671 20.8715 0.194666C21.6755 0.346873 22.4414 0.733728 23.9731 1.50744L31.8967 5.50984L26.3643 9.60061C24.4484 8.48659 22.1994 7.8451 19.7938 7.8451C12.7948 7.8451 7.12098 13.2758 7.12098 19.9748C7.12098 22.7735 8.11121 25.3507 9.77463 27.4031L5.6461 33.3985C4.66469 32.8822 4.05587 32.5028 3.57403 32.008C2.97716 31.3951 2.52344 30.6576 2.24547 29.8485C1.93115 28.9336 1.93115 27.8983 1.93115 25.8277V14.1218C1.93115 12.0512 1.93115 11.0159 2.24547 10.1011C2.52345 9.29195 2.97716 8.55446 3.57404 7.94151C4.24898 7.24848 5.17307 6.78168 7.02123 5.84815L15.6147 1.50744ZM14.8059 31.1289L7.50201 34.3442L15.6147 38.4421C17.1464 39.2158 17.9123 39.6027 18.7163 39.7549C19.4284 39.8897 20.1594 39.8897 20.8715 39.7549C21.6755 39.6027 22.4413 39.2158 23.9731 38.4421L32.5665 34.1014C34.4147 33.1678 35.3388 32.7011 36.0137 32.008C36.6105 31.3951 37.0643 30.6576 37.3423 29.8485C37.6566 28.9336 37.6566 27.8983 37.6566 25.8277V14.1218C37.6566 12.0512 37.6566 11.016 37.3423 10.1011C37.0643 9.29195 36.6105 8.55446 36.0137 7.94156C35.5103 7.42465 34.8684 7.03364 33.8078 6.48098L31.0113 14.3256C31.9407 16.0127 32.4667 17.935 32.4667 19.9748C32.4667 26.6739 26.7929 32.1046 19.7938 32.1046C18.0229 32.1046 16.3367 31.7569 14.8059 31.1289Z" fill="black"/>
<path fill-rule="evenodd" clip-rule="evenodd" d="M30.7359 5.41934L15.3364 15.3887C15.2082 15.4717 15.1006 15.5865 15.0227 15.7233L5.6678 32.1556C5.16034 33.047 6.11378 34.0664 6.94916 33.5256L22.3486 23.5562C22.4768 23.4732 22.5844 23.3584 22.6623 23.2216L32.0172 6.78936C32.5247 5.89797 31.5713 4.87855 30.7359 5.41934ZM18.3928 21.3635C19.3959 21.6323 20.4372 20.999 20.7186 19.9489C20.9999 18.8988 20.4149 17.8297 19.4118 17.5609C18.4087 17.2921 17.3674 17.9255 17.086 18.9756C16.8047 20.0256 17.3897 21.0948 18.3928 21.3635Z" fill="black"/>
<path d="M57.511 23.8826C57.6124 24.6639 57.9423 25.3437 58.5003 25.922C59.0685 26.4902 59.8244 26.9316 60.7679 27.2462C61.7217 27.5607 62.8178 27.718 64.0557 27.718C65.2425 27.718 66.2726 27.6013 67.1452 27.3679C68.0277 27.1345 68.7027 26.7946 69.1691 26.3482C69.6462 25.9017 69.8846 25.3741 69.8846 24.7653C69.8846 24.258 69.7526 23.842 69.4891 23.5173C69.2351 23.1927 68.7988 22.9288 68.1798 22.7259C67.5712 22.5128 66.7291 22.3454 65.6537 22.2237L61.0574 21.7062C59.0887 21.4931 57.4805 21.1126 56.2326 20.5647C54.9947 20.0168 54.0817 19.2964 53.4932 18.4036C52.9147 17.5107 52.6256 16.425 52.6256 15.1466C52.6256 13.6855 53.0619 12.4222 53.9345 11.3569C54.8174 10.2915 56.0652 9.4747 57.6784 8.90649C59.2916 8.33833 61.1741 8.0542 63.325 8.0542C65.4252 8.0542 67.3023 8.36369 68.9563 8.98262C70.6203 9.60154 71.9341 10.469 72.8982 11.5852C73.8619 12.7013 74.3897 13.9899 74.4809 15.4509H69.2454C69.1543 14.7813 68.8549 14.1979 68.3473 13.7007C67.84 13.2035 67.1452 12.818 66.2623 12.544C65.3897 12.27 64.3753 12.1331 63.2186 12.1331C62.1225 12.1331 61.1687 12.2447 60.3572 12.4679C59.5456 12.6911 58.9213 13.0158 58.485 13.442C58.0487 13.858 57.8306 14.3602 57.8306 14.9487C57.8306 15.4154 57.9526 15.801 58.1959 16.1054C58.4495 16.4098 58.8607 16.6634 59.4289 16.8664C60.0071 17.0693 60.7885 17.2316 61.7724 17.3534L66.5361 17.9317C68.657 18.1753 70.3361 18.5456 71.5741 19.0428C72.812 19.5298 73.7048 20.1843 74.2528 21.0061C74.8005 21.828 75.0747 22.8883 75.0747 24.187C75.0747 25.709 74.6128 27.0432 73.6895 28.1897C72.7662 29.3363 71.4623 30.2241 69.7782 30.8532C68.104 31.4823 66.1658 31.7968 63.9642 31.7968C61.7118 31.7968 59.713 31.4671 57.9675 30.8075C56.2223 30.148 54.8475 29.2196 53.8433 28.0224C52.8487 26.8251 52.3213 25.4452 52.2603 23.8826H57.511ZM83.1345 7.90204V31.3402H78.0359V7.90204H83.1345ZM96.7551 31.7968C94.7056 31.7968 92.8689 31.4163 91.2454 30.6554C89.6223 29.8842 88.3539 28.8087 87.4409 27.4288C86.5275 26.0387 86.071 24.4407 86.071 22.6346C86.071 20.859 86.5073 19.2863 87.3798 17.9165C88.2524 16.5366 89.4648 15.4662 91.0174 14.7052C92.5695 13.9442 94.325 13.5637 96.2833 13.5637C98.2516 13.5637 99.9662 14.0051 101.428 14.8878C102.889 15.7604 104.01 17.0084 104.791 18.6319C105.582 20.2451 105.978 22.1273 105.978 24.2783H91.5196C91.9052 25.4553 92.6561 26.3634 93.772 27.0026C94.8883 27.6419 96.3036 27.9615 98.0182 27.9615C99.3271 27.9615 100.641 27.7738 101.96 27.3983C103.279 27.0229 104.461 26.4953 105.506 25.8155V29.2247C104.36 30.0364 103.026 30.6706 101.504 31.1272C99.9918 31.5736 98.4091 31.7968 96.7551 31.7968ZM101.032 20.8996C100.737 19.753 100.179 18.8703 99.3576 18.2514C98.546 17.6223 97.5312 17.3077 96.3139 17.3077C95.0252 17.3077 93.9444 17.6324 93.0718 18.2818C92.2095 18.921 91.6413 19.7936 91.3675 20.8996H101.032ZM124.354 27.444C123.491 28.8239 122.4 29.8944 121.082 30.6554C119.772 31.4163 118.317 31.7968 116.713 31.7968C115.039 31.7968 113.548 31.4163 112.239 30.6554C110.93 29.8944 109.91 28.8239 109.18 27.444C108.459 26.0641 108.099 24.4813 108.099 22.6955C108.099 20.8996 108.459 19.3116 109.18 17.9317C109.91 16.5417 110.925 15.4662 112.224 14.7052C113.532 13.9442 115.029 13.5637 116.713 13.5637C118.317 13.5637 119.772 13.9442 121.082 14.7052C122.4 15.456 123.497 16.5214 124.369 17.9013L124.81 14.0355H130.076L129.072 22.6803L130.076 31.3402H124.81L124.354 27.444ZM113.259 22.6955C113.259 23.6898 113.466 24.5776 113.883 25.3589C114.299 26.1402 114.872 26.749 115.603 27.1853C116.343 27.6216 117.18 27.8397 118.114 27.8397C119.057 27.8397 119.955 27.6216 120.807 27.1853C121.66 26.749 122.406 26.1453 123.045 25.3741C123.694 24.5928 124.202 23.7 124.567 22.6955C124.202 21.691 123.694 20.7981 123.045 20.0168C122.406 19.2356 121.66 18.6268 120.807 18.1905C119.955 17.744 119.057 17.5208 118.114 17.5208C117.18 17.5208 116.343 17.744 115.603 18.1905C114.872 18.6268 114.299 19.2406 113.883 20.0321C113.466 20.8133 113.259 21.7011 113.259 22.6955ZM138.573 14.0355V17.9165C139.446 16.5265 140.537 15.456 141.845 14.7052C143.165 13.9442 144.631 13.5637 146.244 13.5637C147.928 13.5637 149.42 13.9442 150.718 14.7052C152.027 15.4662 153.042 16.5417 153.762 17.9317C154.493 19.3116 154.858 20.8996 154.858 22.6955C154.858 24.4813 154.493 26.0641 153.762 27.444C153.042 28.8239 152.027 29.8944 150.718 30.6554C149.41 31.4163 147.918 31.7968 146.244 31.7968C144.631 31.7968 143.165 31.4163 141.845 30.6554C140.537 29.8842 139.446 28.8036 138.573 27.4135V36.3627H133.475V14.0355H138.573ZM138.391 22.6955C138.756 23.7 139.258 24.5928 139.897 25.3741C140.546 26.1453 141.297 26.749 142.15 27.1853C143.002 27.6216 143.9 27.8397 144.844 27.8397C145.777 27.8397 146.609 27.6216 147.339 27.1853C148.08 26.749 148.659 26.1402 149.075 25.3589C149.491 24.5776 149.699 23.6898 149.699 22.6955C149.699 21.7011 149.491 20.8133 149.075 20.0321C148.659 19.2406 148.08 18.6268 147.339 18.1905C146.609 17.744 145.777 17.5208 144.844 17.5208C143.9 17.5208 143.002 17.744 142.15 18.1905C141.297 18.6268 140.546 19.2356 139.897 20.0168C139.258 20.7981 138.756 21.691 138.391 22.6955Z" fill="black"/>
</svg>
