<svg width="180" height="40" viewBox="0 0 180 40" fill="none" xmlns="http://www.w3.org/2000/svg">
<g clip-path="url(#clip0_818_10243)">
<path d="M24.4546 38.999L24.2219 14.2726L2.85352 24.6663L24.4525 39L24.4546 38.999Z" fill="black"/>
<path d="M2.6792 23.9221L25.4518 11.7158L10.0403 0.890503L2.6792 23.9221Z" fill="black"/>
<path d="M29.896 12.441L31.5908 3.05471L10.5171 0.454712L29.896 12.441Z" fill="black"/>
<path d="M0.526367 15.2905L2.02216 23.8674L9.459 0.58844L0.526367 15.2905Z" fill="black"/>
<path d="M23.6949 39.3316L2.55176 25.2684L8.98334 35.8432L23.697 39.3316H23.6949Z" fill="black"/>
<path d="M25.1104 39.1369L40.1409 23.7221L25.4809 18.1011L25.1104 39.1369Z" fill="black"/>
<path d="M40.2398 23.3105L32.0703 3.47894L30.2861 18.5568L40.2398 23.3105Z" fill="black"/>
<path d="M61.8862 16.6568V17.3474C61.8546 19.3116 61.1652 20.041 59.3452 20.041H56.5115V13.7231H59.3715C60.9641 13.7231 61.8862 14.2031 61.8862 16.6568ZM65.3704 16.9779V16.4484C65.3704 12.6926 63.3567 10.8663 59.2146 10.8663H54.0631C53.823 10.8666 53.5927 10.962 53.4229 11.1317C53.253 11.3014 53.1573 11.5315 53.1567 11.7716V28.8589C53.1567 29.0905 53.2873 29.1337 53.5304 29.1337H56.1136C56.3567 29.1337 56.5052 29.1158 56.5104 28.8558V22.8453H59.5262C63.4083 22.8453 65.3199 20.9274 65.3683 16.9779H65.3704ZM78.8725 12.8431V11.7726C78.8723 11.5325 78.7768 11.3023 78.6071 11.1324C78.4375 10.9626 78.2074 10.8669 77.9673 10.8663H69.3683C69.1284 10.8669 68.8985 10.9624 68.7288 11.1321C68.5592 11.3017 68.4636 11.5316 68.4631 11.7716V28.8589C68.4631 29.1084 68.642 29.1337 69.0525 29.1337H78.1578C78.5094 29.1337 78.6873 29.0916 78.6873 28.8589V27.1305C78.6867 26.8906 78.5912 26.6607 78.4215 26.491C78.2519 26.3214 78.0219 26.2258 77.782 26.2253H71.8157V21.0105H76.1357C76.3762 21.0102 76.6067 20.9145 76.7766 20.7444C76.9466 20.5742 77.042 20.3436 77.042 20.1031V19.0853C77.0417 18.845 76.9461 18.6146 76.7762 18.4447C76.6063 18.2748 76.376 18.1792 76.1357 18.1789H71.8157V13.7484H77.9662C78.2065 13.7481 78.4369 13.6526 78.6068 13.4827C78.7767 13.3127 78.8723 13.0824 78.8725 12.8421V12.8431ZM90.0462 21.9937H86.3209L87.1241 19.0337C87.2578 18.5537 87.3788 18.1221 87.4904 17.7284L87.5157 17.6389C87.7778 16.7105 87.9841 15.9768 88.1399 15.3158L88.2378 14.901L88.3325 15.3158C88.4694 15.901 88.6431 16.56 88.8641 17.3947C88.9904 17.8726 89.1325 18.4116 89.2925 19.0316L90.0462 21.9937ZM95.3683 29.0389C95.4083 28.9863 95.4146 28.9179 95.3894 28.8305L90.3157 11.7316C90.2031 11.2274 89.7357 10.8663 89.202 10.8663H87.4767C86.9473 10.8663 86.4799 11.2147 86.341 11.7147L81.1031 28.6642C81.0694 28.7674 81.0346 28.9126 81.1104 29.0168C81.1915 29.1284 81.342 29.1337 81.5799 29.1337H83.6452C84.1599 29.1337 84.3715 29.1231 84.4494 28.86L85.5894 24.6674H90.722L91.7925 28.8884C91.861 29.1231 92.0283 29.1337 92.3725 29.1337H95.0146C95.1473 29.1337 95.2978 29.1337 95.3683 29.0389ZM111.122 29.021C111.18 28.9158 111.109 28.7831 111.051 28.6926L105.171 18.7716L109.897 11.7021C109.954 11.6248 109.989 11.5329 109.998 11.4367C110.006 11.3406 109.988 11.244 109.944 11.1579C109.898 11.069 109.827 10.9947 109.741 10.9432C109.655 10.8917 109.556 10.8651 109.456 10.8663H107.68C107.151 10.8663 106.649 11.1421 106.371 11.5874L101.601 18.5821L101.604 11.7716C101.604 11.5315 101.508 11.3014 101.338 11.1317C101.168 10.962 100.938 10.8666 100.698 10.8663H99.1567C98.9168 10.8669 98.6869 10.9624 98.5172 11.1321C98.3476 11.3017 98.252 11.5316 98.2515 11.7716V28.8589C98.2515 29.0916 98.4073 29.1337 98.7167 29.1337H101.107C101.463 29.1337 101.596 29.1105 101.596 28.8589L101.601 18.8158L107.321 28.7474C107.588 29.1179 107.742 29.1337 108.038 29.1337H110.754C110.933 29.1337 111.063 29.1263 111.122 29.021ZM131.361 11.7642C131.382 11.656 131.378 11.5444 131.351 11.4377C131.323 11.331 131.272 11.2318 131.201 11.1474C131.13 11.0598 131.041 10.9892 130.939 10.9405C130.837 10.8919 130.726 10.8666 130.614 10.8663H129.073C128.568 10.8663 128.102 11.2453 128.01 11.7295L126.783 18.4947C126.486 20.2272 126.24 21.9679 126.044 23.7147L125.948 24.5568L125.846 23.7147C125.696 22.4621 125.446 20.6179 125.118 18.9358L123.657 11.7316C123.569 11.2368 123.113 10.8663 122.595 10.8663H121.158C120.64 10.8663 120.184 11.2347 120.097 11.7253L118.66 18.9116C118.343 20.5268 118.081 22.1523 117.875 23.7853L117.766 24.6484L117.677 23.7831C117.473 21.781 117.233 20.0853 116.943 18.5979L115.637 11.7316C115.55 11.2368 115.095 10.8663 114.576 10.8663H112.878C112.765 10.8666 112.654 10.892 112.552 10.9406C112.451 10.9893 112.361 11.0599 112.29 11.1474C112.219 11.2322 112.168 11.3317 112.141 11.4388C112.113 11.5458 112.109 11.6577 112.13 11.7663L115.658 28.8853C115.715 29.1168 115.899 29.1337 116.195 29.1337H118.934C119.197 29.1337 119.356 29.1337 119.436 28.821L121.096 20.7242C121.314 19.6358 121.596 17.4642 121.677 16.8242L121.78 16.02L121.875 16.8253C121.995 17.841 122.196 19.3568 122.474 20.8042L124.082 28.8884C124.142 29.1168 124.285 29.1347 124.483 29.1347H127.337C127.561 29.1347 127.74 29.1147 127.809 28.8716L131.361 11.7642ZM144.079 20.0263C144.079 24.9874 143.189 26.7463 140.677 26.7463C138.176 26.7463 137.246 24.9042 137.246 19.9484C137.246 15.0863 138.176 13.2789 140.677 13.2789C143.158 13.2789 144.079 15.1074 144.079 20.0263ZM147.694 19.9737C147.694 13.7053 145.333 10.5263 140.677 10.5263C136.001 10.5263 133.631 13.7316 133.631 20.0526C133.631 26.3916 135.944 29.4737 140.702 29.4737C145.407 29.4737 147.694 26.3663 147.694 19.9737ZM159.159 16.1863C159.159 18.2105 158.478 18.9631 156.643 18.9631H154.52V13.7231H156.618C158.47 13.7231 159.159 14.3905 159.159 16.1863ZM163.165 29.0526C163.213 28.9853 163.165 28.8579 163.147 28.8105C163.133 28.7653 161.776 24.6947 161.237 23.0463C160.841 21.8379 159.981 21.3242 159.699 21.1547C159.618 21.1063 159.594 21.0916 159.577 21.0537L159.537 20.9526L159.641 20.921C161.649 20.3031 162.669 18.6663 162.669 16.0558C162.669 12.6126 160.624 10.8663 156.591 10.8663H152.073C151.57 10.8663 151.167 11.4631 151.167 11.9579V28.8558C151.167 29.1137 151.315 29.1337 151.525 29.1337L154.155 29.1368C154.39 29.1368 154.514 29.1242 154.525 28.8537L154.52 21.7695L155.755 21.7684C156.363 21.7684 157.198 21.7684 157.747 23.0895C158.264 24.3326 159.654 28.8642 159.667 28.9105C159.761 29.1158 159.844 29.1337 160.077 29.1337H162.884C163.029 29.1337 163.128 29.1053 163.165 29.0526ZM179.238 28.6926L173.357 18.7716L178.083 11.7021C178.141 11.6247 178.175 11.5327 178.184 11.4366C178.192 11.3404 178.173 11.2439 178.129 11.1579C178.083 11.0688 178.013 10.9944 177.926 10.9429C177.84 10.8914 177.741 10.8649 177.641 10.8663H175.865C175.337 10.8663 174.836 11.1421 174.558 11.5874L169.786 18.5821L169.789 11.7716C169.789 11.5315 169.693 11.3014 169.523 11.1317C169.353 10.962 169.123 10.8666 168.883 10.8663H167.342C167.102 10.8666 166.872 10.962 166.702 11.1317C166.532 11.3014 166.436 11.5315 166.436 11.7716V28.8589C166.436 29.0916 166.594 29.1337 166.902 29.1337H169.294C169.648 29.1337 169.782 29.1105 169.782 28.8589L169.786 18.8147L175.506 28.7474C175.774 29.1179 175.927 29.1337 176.223 29.1337H178.939C179.118 29.1337 179.249 29.1263 179.308 29.021C179.366 28.9158 179.296 28.7831 179.238 28.6926Z" fill="black"/>
</g>
<defs>
<clipPath id="clip0_818_10243">
<rect width="178.947" height="40" fill="white" transform="translate(0.526367)"/>
</clipPath>
</defs>
</svg>
