<svg width="165" height="40" viewBox="0 0 165 40" fill="none" xmlns="http://www.w3.org/2000/svg">
<g clip-path="url(#clip0_818_10267)">
<mask id="mask0_818_10267" style="mask-type:luminance" maskUnits="userSpaceOnUse" x="0" y="0" width="41" height="40">
<path d="M40.9053 0H0.700195V40H40.9053V0Z" fill="white"/>
</mask>
<g mask="url(#mask0_818_10267)">
<path d="M15.7769 8.51534C15.7769 6.67034 17.4265 5.26259 19.2485 5.55264L38.3767 8.59754C39.8331 8.82939 40.9051 10.0854 40.9051 11.5602V30.4398C40.9051 31.9146 39.8331 33.1706 38.3767 33.4025L19.2485 36.4474C17.4265 36.7374 15.7769 35.3296 15.7769 33.4847V8.51534Z" fill="black"/>
<path d="M13.7668 9.4055C13.7668 8.51585 12.6922 8.0691 12.0615 8.6966L11.6356 9.1204C11.0696 9.68345 10.7515 10.4489 10.7515 11.2472V30.7529C10.7515 31.5512 11.0696 32.3166 11.6356 32.8796L12.0615 33.3034C12.6922 33.9309 13.7668 33.4842 13.7668 32.5945V9.4055Z" fill="black"/>
<path d="M8.74142 12.8633C8.74142 12.0656 7.85342 11.589 7.18872 12.0299L7.06782 12.1101C6.22987 12.6659 5.72607 13.6046 5.72607 14.6101V27.3899C5.72607 28.3955 6.22987 29.3342 7.06787 29.89L7.18872 29.9702C7.85342 30.411 8.74142 29.9344 8.74142 29.1368V12.8633Z" fill="black"/>
<path d="M3.71558 15.8633C3.71558 15.0656 2.82755 14.589 2.16284 15.0299L2.04199 15.1101C1.20399 15.6659 0.700195 16.6046 0.700195 17.6101V24.3899C0.700195 25.3955 1.20399 26.3342 2.04199 26.89L2.16284 26.9702C2.82755 27.411 3.71558 26.9344 3.71558 26.1368V15.8633Z" fill="black"/>
</g>
</g>
<path d="M50.7241 29V11.8785H54.3074V26.0456H61.7944V29H50.7241ZM68.979 29.261C65.0872 29.261 62.726 26.7337 62.726 22.664V22.6521C62.726 18.6061 65.111 16.0194 68.8366 16.0194C72.5623 16.0194 74.8998 18.5467 74.8998 22.3911V23.4589H66.1432C66.1788 25.4879 67.2823 26.6744 69.0502 26.6744C70.474 26.6744 71.3402 25.8913 71.5894 25.1794L71.6131 25.1082H74.793L74.7574 25.2387C74.3658 27.1134 72.6098 29.261 68.979 29.261ZM68.896 18.6061C67.4721 18.6061 66.4043 19.5553 66.1788 21.2757H71.5775C71.3639 19.5197 70.3317 18.6061 68.896 18.6061ZM80.2334 29.2017C77.6824 29.2017 75.962 27.5999 75.962 25.3574V25.3336C75.962 23.0199 77.7536 21.6673 80.9098 21.4656L84.054 21.2757V20.4926C84.054 19.3654 83.3184 18.6654 81.9658 18.6654C80.6724 18.6654 79.8893 19.2705 79.7232 20.0892L79.6995 20.196H76.5315L76.5433 20.0536C76.7332 17.7043 78.7503 16.0194 82.1081 16.0194C85.3948 16.0194 87.5187 17.7162 87.5187 20.2791V29H84.054V27.1016H83.9828C83.2591 28.4067 81.9064 29.2017 80.2334 29.2017ZM79.391 25.1794C79.391 26.1167 80.1622 26.6744 81.3606 26.6744C82.915 26.6744 84.054 25.6777 84.054 24.3488V23.4352L81.4318 23.6013C80.0911 23.6844 79.391 24.2539 79.391 25.1557V25.1794ZM89.5182 29V16.2805H92.9829V18.4993H93.0541C93.4337 16.9331 94.466 16.0194 95.9492 16.0194C96.3289 16.0194 96.6848 16.0788 96.9459 16.15V19.1993C96.6611 19.0807 96.1865 19.0095 95.6881 19.0095C93.9795 19.0095 92.9829 20.0299 92.9829 21.8809V29H89.5182ZM98.1267 29V16.2805H101.591V18.3687H101.663C102.315 16.9093 103.62 16.0194 105.542 16.0194C108.343 16.0194 109.933 17.8111 109.933 20.7893V29H106.468V21.5012C106.468 19.84 105.685 18.8908 104.13 18.8908C102.576 18.8908 101.591 20.0299 101.591 21.691V29H98.1267ZM118.434 29.2966C114.364 29.2966 111.742 27.4338 111.541 24.2776L111.529 24.0878H114.91L114.934 24.2183C115.159 25.5472 116.571 26.3778 118.529 26.3778C120.511 26.3778 121.757 25.5116 121.757 24.2064V24.1946C121.757 23.0318 120.914 22.4504 118.79 22.0114L116.987 21.6554C113.605 20.9791 111.897 19.3654 111.897 16.7907V16.7788C111.897 13.6464 114.626 11.5818 118.422 11.5818C122.385 11.5818 124.818 13.5633 124.984 16.5652L124.996 16.7907H121.614L121.602 16.6483C121.424 15.3075 120.19 14.4888 118.422 14.4888C116.583 14.5007 115.48 15.3431 115.48 16.5652V16.5771C115.48 17.6568 116.358 18.2857 118.327 18.6772L120.143 19.0451C123.726 19.757 125.34 21.2164 125.34 23.9098V23.9217C125.34 27.2083 122.753 29.2966 118.434 29.2966ZM127.078 29V11.8785H130.543V29H127.078ZM134.441 14.6431C133.397 14.6431 132.59 13.8244 132.59 12.8396C132.59 11.8547 133.397 11.036 134.441 11.036C135.485 11.036 136.292 11.8547 136.292 12.8396C136.292 13.8244 135.485 14.6431 134.441 14.6431ZM132.709 29V16.2805H136.173V29H132.709ZM144.07 29.261C140.19 29.261 137.793 26.7337 137.793 22.6284V22.6165C137.793 18.5467 140.225 16.0194 144.034 16.0194C147.487 16.0194 149.682 18.1433 149.813 20.896V20.9791H146.597L146.573 20.8723C146.36 19.6621 145.517 18.7366 144.082 18.7366C142.385 18.7366 141.317 20.196 141.317 22.6284V22.6402C141.317 25.1319 142.385 26.5439 144.094 26.5439C145.482 26.5439 146.348 25.6896 146.585 24.4082L146.597 24.3014H149.824V24.3726C149.658 27.149 147.463 29.261 144.07 29.261ZM157.045 29.261C153.153 29.261 150.792 26.7337 150.792 22.664V22.6521C150.792 18.6061 153.177 16.0194 156.902 16.0194C160.628 16.0194 162.965 18.5467 162.965 22.3911V23.4589H154.209C154.244 25.4879 155.348 26.6744 157.116 26.6744C158.54 26.6744 159.406 25.8913 159.655 25.1794L159.679 25.1082H162.859L162.823 25.2387C162.432 27.1134 160.675 29.261 157.045 29.261ZM156.962 18.6061C155.538 18.6061 154.47 19.5553 154.244 21.2757H159.643C159.43 19.5197 158.397 18.6061 156.962 18.6061Z" fill="black"/>
<defs>
<clipPath id="clip0_818_10267">
<rect width="40.5" height="40" fill="white" transform="translate(0.700195)"/>
</clipPath>
</defs>
</svg>
