<svg width="128" height="128" viewBox="0 0 128 128" fill="none" xmlns="http://www.w3.org/2000/svg">
    <style>
        path {
            fill: #000;
        }
        @media (prefers-color-scheme: dark) {
            path {
                fill: #fff;
            }
        }
    </style>
<path fill-rule="evenodd" clip-rule="evenodd" d="M64 128C99.3462 128 128 99.3463 128 64C128 28.6538 99.3462 0 64 0C28.6538 0 0 28.6538 0 64C0 99.3463 28.6538 128 64 128ZM64.8892 29.5185C66.236 29.5185 67.467 30.2794 68.0693 31.4839L77.0248 49.3949L71.2074 53.661L64.8892 41.0245L58.5708 53.6613L52.7534 49.3951L61.709 31.4839C62.3113 30.2794 63.5425 29.5185 64.8892 29.5185ZM66.9393 73.9048L81.6862 63.4953L83.4661 62.2774L83.4518 62.2489L99.4137 50.9817L92.2152 79.7757L86.6761 68.6974L80.7522 72.7506L88.3927 88.0317C87.543 88.2998 86.5321 88.5909 85.3601 88.8839C80.8927 90.0008 74.071 91.1481 64.8892 91.1481C55.7073 91.1481 48.8856 90.0008 44.4182 88.8839C43.2462 88.5909 42.2354 88.2998 41.3856 88.0317L49.026 72.7509L43.1022 68.6977L37.5627 79.7763L30.3641 50.9817L46.3264 62.2491L46.3121 62.2776L48.0919 63.4955L62.8385 73.9048C64.0677 74.7725 65.7101 74.7725 66.9393 73.9048ZM108.635 43.4179L96.7926 90.7859L94.9135 93.1483L94.912 93.1489L94.8969 93.1565L94.8558 93.1765L94.7897 93.2082L94.7316 93.2356C94.63 93.2832 94.491 93.3468 94.3143 93.4241C93.9611 93.5786 93.4576 93.7878 92.8043 94.0328C91.4973 94.5229 89.5907 95.1562 87.0848 95.7827C82.0708 97.0362 74.6702 98.2592 64.8892 98.2592C55.1082 98.2592 47.7075 97.0362 42.6935 95.7827C40.1876 95.1562 38.281 94.5229 36.974 94.0328C36.3207 93.7878 35.8173 93.5786 35.464 93.4241C35.2874 93.3468 35.1483 93.2832 35.0468 93.2356C34.996 93.2118 34.9546 93.192 34.9225 93.1765L34.9198 93.1751C33.993 92.7346 33.2634 91.8984 32.9951 90.8253L21.1432 43.4179C20.7827 41.976 21.3572 40.462 22.5834 39.6221C23.8096 38.7823 25.4288 38.7937 26.6431 39.6508L64.8889 66.6479L103.135 39.6508C104.349 38.7937 105.968 38.7823 107.194 39.6221C108.421 40.462 108.995 41.976 108.635 43.4179ZM96.7926 90.7859L94.9237 93.1431C95.7322 92.7383 96.3827 92.0291 96.6942 91.1241L96.7067 91.0873C96.7399 90.9877 96.7686 90.8872 96.7926 90.7859Z" />
</svg>
