<svg width="496" height="497" viewBox="0 0 496 497" fill="none" xmlns="http://www.w3.org/2000/svg">
<path d="M258 455H238C235.791 455 234 456.791 234 459V489.277C234 490.045 234.83 490.526 235.497 490.145L246.016 484.134C247.246 483.431 248.755 483.431 249.985 484.134L260.504 490.145C261.171 490.526 262 490.045 262 489.277V459C262 456.791 260.21 455 258 455Z" stroke="black" stroke-width="1.5" stroke-linecap="round" stroke-linejoin="round"/>
<path d="M344 373C344 371.674 344.526 370.402 345.464 369.464C346.402 368.527 347.673 368 349 368H376M344 373C344 374.326 344.526 375.598 345.464 376.536C346.402 377.473 347.673 378 349 378H376V368M344 373V347C344 345.674 344.526 344.402 345.464 343.464C346.402 342.527 347.673 342 349 342H376V368M366 350H354" stroke="black" stroke-width="1.5" stroke-linecap="round" stroke-linejoin="round"/>
<path d="M344 242V262C344 264.209 345.79 266 348 266H372C374.209 266 376 264.209 376 262V242M344 242V238C344 235.791 345.79 234 348 234H352M344 242H376M376 242V238C376 235.791 374.209 234 372 234H368M368 234V230M368 234H352M352 234V230" stroke="black" stroke-width="1.5" stroke-linecap="round" stroke-linejoin="round"/>
<path d="M368 127.465C371.86 127.591 375.395 130.279 376.299 134.348C377.382 139.218 376.344 144.319 373.444 148.379L371.28 151.409C369.391 154.053 365.859 154.93 362.953 153.477C361.094 152.547 358.906 152.547 357.047 153.477C354.14 154.93 350.609 154.053 348.72 151.409L346.556 148.379C343.656 144.319 342.618 139.218 343.7 134.348C344.895 128.972 350.682 126.007 355.743 128.176L356.329 128.427C357.501 128.929 358.751 129.18 360 129.18M360 128H364C368.418 128 372 124.418 372 120V116H368C363.582 116 360 119.582 360 124V128ZM360 128V132" stroke="black" stroke-width="1.5" stroke-linecap="round" stroke-linejoin="round"/>
<path d="M462 254L468 248L462 242M474 254H482M458 234H486C488.209 234 490 235.791 490 238V258C490 260.209 488.209 262 486 262H458C455.791 262 454 260.209 454 258V238C454 235.791 455.791 234 458 234Z" stroke="black" stroke-width="1.5" stroke-linecap="round" stroke-linejoin="round"/>
<path d="M152 455H154M152 455V479H140M152 455H120M118 455H120M120 455V479H132M132 479L128 491M132 479H140M140 479L144 491" stroke="black" stroke-width="1.5" stroke-linecap="round" stroke-linejoin="round"/>
<path d="M16 481V471M24 481V465M32 481V477M38 491H10C7.79086 491 6 489.209 6 487V459C6 456.791 7.79086 455 10 455H38C40.2091 455 42 456.791 42 459V487C42 489.209 40.2091 491 38 491Z" stroke="black" stroke-width="1.5" stroke-linecap="round" stroke-linejoin="round"/>
<path d="M352 458H348C345.79 458 344 459.791 344 462V486C344 488.209 345.79 490 348 490H372C374.209 490 376 488.209 376 486V462C376 459.791 374.209 458 372 458H368M352 458C352 460.209 353.79 462 356 462H364C366.209 462 368 460.209 368 458M352 458C352 455.791 353.79 454 356 454H364C366.209 454 368 455.791 368 458" stroke="black" stroke-width="1.5" stroke-linecap="round" stroke-linejoin="round"/>
<path d="M266 238C266 242.418 257.941 246 248 246C238.059 246 230 242.418 230 238M266 238C266 233.582 257.941 230 248 230C238.059 230 230 233.582 230 238M266 238V248M230 238V248M266 248C266 252.418 257.941 256 248 256C238.059 256 230 252.418 230 248M266 248V258C266 262.418 257.941 266 248 266C238.059 266 230 262.418 230 258V248" stroke="black" stroke-width="1.5" stroke-linecap="round" stroke-linejoin="round"/>
<path d="M263.999 364V348C263.999 345.791 262.208 344 259.999 344H235.999C233.79 344 231.999 345.791 231.999 348V364M263.999 364H231.999M263.999 364L267.105 370.211C268.435 372.871 266.501 376 263.527 376H232.471C229.498 376 227.564 372.871 228.894 370.211L231.999 364" stroke="black" stroke-width="1.5" stroke-linecap="round" stroke-linejoin="round"/>
<path d="M478 461L482.586 456.414C483.367 455.633 484.633 455.633 485.414 456.414L488.586 459.586C489.367 460.367 489.367 461.633 488.586 462.414L484 467M478 461L466.586 472.414C466.211 472.789 466 473.298 466 473.828V477C466 478.105 466.895 479 468 479H471.172C471.702 479 472.211 478.789 472.586 478.414L484 467M478 461L484 467M472 455H458C455.791 455 454 456.791 454 459V487C454 489.209 455.791 491 458 491H486C488.209 491 490 489.209 490 487V475" stroke="black" stroke-width="1.5" stroke-linecap="round" stroke-linejoin="round"/>
<path d="M488 354V352L478 342H476M488 354V374C488 377.2 485.333 378 484 378H460C456.8 378 456 375.333 456 374L456 346C456 342.8 458.666 342 460 342H476M488 354H480C478.666 354 476 353.2 476 350V342" stroke="black" stroke-width="1.5" stroke-linecap="round" stroke-linejoin="round"/>
<path d="M154 352C154 348.686 147.732 346 140 346C132.268 346 126 348.686 126 352M154 352V360C154 362.039 151.627 363.84 148 364.924C145.732 365.602 142.974 366 140 366C137.026 366 134.268 365.602 132 364.924C128.373 363.84 126 362.039 126 360V352M154 352C154 354.039 151.627 355.84 148 356.924C145.732 357.602 142.974 358 140 358C137.026 358 134.268 357.602 132 356.924C128.373 355.84 126 354.039 126 352M118 360V368C118 370.039 120.373 371.84 124 372.925C126.268 373.603 129.026 374 132 374C134.974 374 137.732 373.603 140 372.925C143.627 371.84 146 370.039 146 368V366M118 360C118 357.607 121.27 355.541 126 354.578M118 360C118 362.039 120.373 363.84 124 364.925C126.268 365.603 129.026 366 132 366C133.39 366 134.733 365.913 136 365.752" stroke="black" stroke-width="1.5" stroke-linecap="round" stroke-linejoin="round"/>
<path d="M454 130V146C454 148.209 455.791 150 458 150H486C488.209 150 490 148.209 490 146V130M454 130V126C454 123.791 455.791 122 458 122H486C488.209 122 490 123.791 490 126V130M454 130H490M462 138H472" stroke="black" stroke-width="1.5" stroke-linecap="round" stroke-linejoin="round"/>
<path d="M484.001 15.9202C489.181 15.6702 492.758 16.4677 493.251 18.3061C494.108 21.5069 485.29 26.651 473.553 29.7957C461.817 32.9404 451.608 32.8949 450.75 29.6941C450.242 27.7989 453.127 25.2225 458.001 22.7831M486 24.0001C486 31.7321 479.732 38.0001 472 38.0001C464.268 38.0001 458 31.7321 458 24.0001C458 16.2681 464.268 10.0001 472 10.0001C479.732 10.0001 486 16.2681 486 24.0001Z" stroke="black" stroke-width="1.5" stroke-linecap="round" stroke-linejoin="round"/>
</svg>
