<svg width="498" height="501" viewBox="0 0 498 501" fill="none" xmlns="http://www.w3.org/2000/svg">
<path fill-rule="evenodd" clip-rule="evenodd" d="M9.28863 461.857C9.1152 458.547 11.6572 455.724 14.9664 455.551L34.939 454.504C38.2481 454.331 41.0713 456.873 41.2448 460.182L42.8293 490.417C42.9499 492.717 40.5404 494.29 38.4834 493.253L27.6639 487.801C27.0315 487.482 26.2777 487.522 25.6821 487.905L15.4918 494.458C13.5544 495.704 10.9937 494.392 10.8732 492.092L9.28863 461.857Z" fill="#1F2937"/>
<path d="M119.397 350.959C119.281 348.752 120.976 346.87 123.182 346.755L131.031 346.343C132.366 346.273 133.648 346.876 134.447 347.948L136.198 350.297C136.997 351.37 138.279 351.972 139.615 351.902L151.458 351.281C153.664 351.165 155.546 352.86 155.662 355.066L156.604 373.042C156.719 375.248 155.025 377.13 152.818 377.245L124.857 378.711C122.651 378.826 120.769 377.132 120.653 374.926L119.397 350.959Z" stroke="#1F2937" stroke-width="2" stroke-linecap="round" stroke-linejoin="round"/>
<path d="M137.686 255.992L138.314 244.008M138.314 244.008L143.992 250.314M138.314 244.008L132.008 249.686M155.975 250.942C155.455 260.87 146.986 268.496 137.058 267.975C127.131 267.455 119.504 258.985 120.025 249.058C120.545 239.13 129.015 231.504 138.942 232.025C148.87 232.545 156.496 241.015 155.975 250.942Z" stroke="#1F2937" stroke-width="2" stroke-linecap="round" stroke-linejoin="round"/>
<path fill-rule="evenodd" clip-rule="evenodd" d="M123.657 122.851C124.165 121.159 125.722 120 127.489 120H130C131.105 120 132 120.895 132 122C132 123.105 131.105 124 130 124H127.489L122.689 140H132C134.21 140 136 141.791 136 144H140C140 141.791 141.791 140 144 140H153.312L148.512 124H146C144.896 124 144 123.105 144 122C144 120.895 144.896 120 146 120H148.512C150.279 120 151.836 121.159 152.344 122.851L157.916 141.425C157.972 141.612 158 141.805 158 142V147C158 148.487 157.571 150.672 156.224 152.544C154.803 154.517 152.452 156 149 156C145.549 156 143.198 154.517 141.777 152.544C140.708 151.058 140.217 149.375 140.06 148H135.941C135.784 149.375 135.293 151.058 134.224 152.544C132.803 154.517 130.452 156 127 156C123.549 156 121.198 154.517 119.777 152.544C118.43 150.672 118 148.487 118 147V142C118 141.805 118.029 141.612 118.085 141.425L123.657 122.851ZM126 146C126 147.105 125.104 148 124 148C122.895 148 122 147.105 122 146C122 144.895 122.895 144 124 144C125.104 144 126 144.895 126 146ZM148 146C148 147.105 147.105 148 146 148C144.895 148 144 147.105 144 146C144 144.895 144.895 144 146 144C147.105 144 148 144.895 148 146Z" fill="#1F2937"/>
<path d="M239.804 246.529C243.113 246.355 245.655 243.532 245.482 240.223C245.308 236.914 242.485 234.372 239.176 234.545C235.867 234.719 233.325 237.542 233.498 240.851C233.672 244.16 236.495 246.702 239.804 246.529ZM239.804 246.529L240.851 266.502M239.804 246.529C240.048 251.189 243.333 260.363 254.517 259.777M254.517 259.777C254.691 263.086 257.514 265.628 260.823 265.455C264.132 265.281 266.674 262.458 266.501 259.149C266.328 255.84 263.504 253.298 260.195 253.471C256.886 253.645 254.344 256.468 254.517 259.777Z" stroke="#1F2937" stroke-width="2" stroke-linecap="round" stroke-linejoin="round"/>
<path d="M369.763 469.056C369.124 466.341 367.066 463 362 463C356.936 463 354.877 466.34 354.239 469.055C354.083 469.678 354 470.329 354 471C354 475.418 357.582 479 362 479C366.419 479 370 475.418 370 471C370 470.991 370 470.981 370 470.971C369.998 470.311 369.916 469.67 369.763 469.056Z" fill="#1F2937"/>
<path fill-rule="evenodd" clip-rule="evenodd" d="M361.029 453.252C361.633 452.916 362.368 452.916 362.972 453.252L380.972 463.252C381.607 463.604 382 464.274 382 465V485C382 485.726 381.607 486.396 380.972 486.748L362.972 496.748C362.368 497.084 361.633 497.084 361.029 496.748L343.029 486.748C342.394 486.396 342 485.726 342 485V465C342 464.274 342.394 463.604 343.029 463.252L361.029 453.252ZM346 466.177L346 483.823L351.014 486.608C351.692 485.223 352.682 484.017 353.891 483.083C355.399 481.917 357.25 481.173 359.267 481.027C359.509 481.009 359.754 481 360 481H364C364.013 481 364.026 481 364.038 481C366.271 481.008 368.33 481.748 369.99 482.991C371.254 483.938 372.286 485.177 372.987 486.608L378 483.823V466.177L362 457.288L346 466.177Z" fill="#1F2937"/>
<path d="M464 469L471.501 475.001C472.962 476.17 475.038 476.17 476.499 475.001L484 469M492 471V465C492 462.791 490.209 461 488 461L460 461C457.791 461 456 462.791 456 465L456 485C456 487.209 457.791 489 460 489L468 489M490 487C490 489.209 488.209 491 486 491C483.791 491 482 489.209 482 487C482 484.791 483.791 483 486 483C488.209 483 490 484.791 490 487ZM490 487C490 488 490.6 490 493 490C495.4 490 496 488 496 487C496 481.477 491.523 477 486 477C480.477 477 476 481.477 476 487C476 492.523 480.477 497 486 497C487.422 497 488.775 496.703 490 496.168" stroke="#1F2937" stroke-width="2" stroke-linecap="round" stroke-linejoin="round"/>
<path d="M148 464V484M148 464V456M148 464H156M148 464H128M148 484H128M148 484V492M148 484H156M128 484H120M128 484V492M128 484V464M120 464H128M128 464V456" stroke="#1F2937" stroke-width="2" stroke-linecap="round" stroke-linejoin="round"/>
<path opacity="0.25" d="M148 484V464H128V484H148Z" fill="#1F2937"/>
<path d="M36 250C36 252.209 37.7909 254 40 254C42.2091 254 44 252.209 44 250C44 247.791 42.2091 246 40 246C37.7909 246 36 247.791 36 250ZM36 250H26M26 258H30.3431C31.404 258 32.4214 258.421 33.1716 259.172L37 263M37 237L33.1716 240.828C32.4214 241.579 31.404 242 30.3431 242H26M18.5351 238C18.1948 237.412 18 236.729 18 236C18 233.791 19.7909 232 22 232C24.2091 232 26 233.791 26 236V264C26 266.209 24.2091 268 22 268C19.7909 268 18 266.209 18 264M14 243.465C12.8044 242.773 12 241.481 12 240C12 237.791 13.7908 236 16 236C16.7286 236 17.4116 236.195 18 236.535M12 242.341C9.66962 243.165 8 245.387 8 248C8 250.612 9.66962 252.835 12 253.658C12.6256 253.88 13.2987 254 14 254M11.5278 254C10.5777 255.061 10 256.463 10 258C10 261.314 12.6863 264 16 264C17.5367 264 18.9385 263.422 20 262.472M40 262C42.2091 262 44 263.791 44 266C44 268.209 42.2091 270 40 270C37.7909 270 36 268.209 36 266C36 263.791 37.7909 262 40 262ZM40 230C42.2091 230 44 231.791 44 234C44 236.209 42.2091 238 40 238C37.7909 238 36 236.209 36 234C36 231.791 37.7909 230 40 230Z" stroke="#1F2937" stroke-width="2" stroke-linecap="round" stroke-linejoin="round"/>
<g opacity="0.25">
<path d="M44 266C44 263.791 42.2091 262 40 262C37.7909 262 36 263.791 36 266C36 268.209 37.7909 270 40 270C42.2091 270 44 268.209 44 266Z" fill="#1F2937"/>
<path d="M40 246C42.2091 246 44 247.791 44 250C44 252.209 42.2091 254 40 254C37.7909 254 36 252.209 36 250H26V258V264C26 266.209 24.2091 268 22 268C19.7909 268 18 266.209 18 264V263.659C17.3744 263.88 16.7013 264 16 264C12.6863 264 10 261.314 10 258C10 256.463 10.5777 255.061 11.5278 254L12 253.658C9.66962 252.835 8 250.612 8 248C8 245.387 9.66962 243.165 12 242.341L12.6245 242.147C12.2291 241.527 12 240.79 12 240C12 237.791 13.7908 236 16 236C16.7286 236 17.4116 236.195 18 236.535L18.0417 236.58C18.0142 236.391 18 236.197 18 236C18 233.791 19.7909 232 22 232C24.2091 232 26 233.791 26 236V242V250H36C36 247.791 37.7909 246 40 246Z" fill="#1F2937"/>
<path d="M44 234C44 231.791 42.2091 230 40 230C37.7909 230 36 231.791 36 234C36 236.209 37.7909 238 40 238C42.2091 238 44 236.209 44 234Z" fill="#1F2937"/>
</g>
<path d="M16.965 381.554L4.98145 380.926L15.2852 364.471C15.6707 363.856 16.3596 363.498 17.085 363.536L17.9071 363.579M16.965 381.554L28.9486 382.182M16.965 381.554L17.9071 363.579M28.9486 382.182L19.9043 363.683M28.9486 382.182L43.928 382.967L35.4006 365.526C35.0816 364.873 34.4339 364.445 33.7086 364.407L19.9043 363.683M19.9043 363.683L17.9071 363.579M34.9318 344.443L34.8272 346.441M34.8272 346.441L34.4085 354.43M34.8272 346.441C34.7574 347.772 33.8189 350.393 30.6233 350.226L28.626 350.121M34.8272 346.441C34.7574 347.772 35.4167 350.477 38.6123 350.645L40.6096 350.749M34.4085 354.43L33.9375 363.417M34.4085 354.43C34.3387 355.761 33.4002 358.382 30.2046 358.215L28.2074 358.11M34.4085 354.43C34.3387 355.761 34.998 358.466 38.1937 358.634L40.1909 358.738M18.6398 349.598C18.5241 351.804 16.642 353.499 14.4359 353.383C12.2298 353.267 10.5351 351.385 10.6507 349.179C10.7663 346.973 12.6485 345.278 14.8546 345.394C17.0607 345.51 18.7554 347.392 18.6398 349.598Z" stroke="#1F2937" stroke-width="2" stroke-linecap="round" stroke-linejoin="round"/>
<path d="M266.605 463.854C266.432 467.163 259.137 469.471 250.313 469.008C241.488 468.546 234.475 465.488 234.649 462.179M266.605 463.854C266.778 460.545 259.765 457.487 250.941 457.025C242.117 456.562 234.822 458.87 234.649 462.179M266.605 463.854L265.349 487.821M234.649 462.179L233.393 486.146M265.349 487.821C265.176 491.13 257.881 493.438 249.057 492.975C240.232 492.513 233.219 489.455 233.393 486.146M265.349 487.821C265.522 484.512 258.509 481.454 249.685 480.992C240.86 480.529 233.566 482.837 233.393 486.146" stroke="#1F2937" stroke-width="2" stroke-linecap="round" stroke-linejoin="round"/>
<path d="M266 356V354L256 344H254M266 356V376C266 379.2 263.333 380 262 380H238C234.8 380 234 377.333 234 376L234 348C234 344.8 236.666 344 238 344H254M266 356H258C256.666 356 254 355.2 254 352V344" stroke="#1F2937" stroke-width="2" stroke-linecap="round" stroke-linejoin="round"/>
<path d="M348.228 357.273L376.19 358.738M348.228 357.273L343.501 371.044M348.228 357.273L346.154 348.251C345.559 345.661 347.608 343.221 350.262 343.36L375.621 344.689C378.275 344.828 380.058 347.469 379.195 349.982L376.19 358.738M376.19 358.738L379.452 372.928M379.452 372.928L343.501 371.044M379.452 372.928L377.951 377.827C377.413 379.582 375.75 380.745 373.917 380.649L348.198 379.301C346.365 379.205 344.833 377.874 344.482 376.073L343.501 371.044M354.523 363.611L369.267 364.384C369.645 364.403 369.98 364.635 370.131 364.982C370.428 365.664 369.904 366.42 369.162 366.381L354.418 365.608C353.676 365.569 353.234 364.763 353.601 364.116C353.788 363.787 354.145 363.591 354.523 363.611Z" stroke="#1F2937" stroke-width="2" stroke-linecap="round" stroke-linejoin="round"/>
<g opacity="0.25">
<path d="M376.19 358.738L348.228 357.273L346.154 348.251C345.559 345.661 347.608 343.221 350.262 343.36L375.621 344.689C378.275 344.828 380.058 347.469 379.195 349.982L376.19 358.738Z" fill="#1F2937"/>
<path d="M343.501 371.044L379.452 372.928L377.951 377.827C377.413 379.582 375.75 380.745 373.917 380.649L348.198 379.301C346.365 379.205 344.833 377.874 344.482 376.073L343.501 371.044Z" fill="#1F2937"/>
</g>
<path d="M35.4633 127.49L35.4833 127.489M16.5375 148.51L16.5574 148.509M19.3806 126.33L11.3916 126.749C9.18544 126.865 7.49076 128.747 7.60638 130.953L7.92039 136.945M19.3806 126.33L15.1767 122.545M19.3806 126.33L15.5954 130.534M32.6202 149.669L40.6092 149.251C42.8154 149.135 44.51 147.253 44.3944 145.047L44.0804 139.055M32.6202 149.669L36.8241 153.455M32.6202 149.669L36.4054 145.466M29.7856 133.796L41.7691 133.168C43.9752 133.052 45.6699 131.17 45.5543 128.964L45.345 124.97C45.2293 122.764 43.3472 121.069 41.1411 121.185L29.1575 121.813C26.9514 121.928 25.2567 123.81 25.3724 126.016L25.5817 130.011C25.6973 132.217 27.5795 133.912 29.7856 133.796ZM10.8597 154.815L22.8433 154.187C25.0494 154.072 26.744 152.19 26.6284 149.984L26.4191 145.989C26.3035 143.783 24.4213 142.088 22.2152 142.204L10.2317 142.832C8.02556 142.947 6.33088 144.83 6.44649 147.036L6.65584 151.03C6.77145 153.236 8.65359 154.931 10.8597 154.815Z" stroke="#1F2937" stroke-width="2" stroke-linecap="round" stroke-linejoin="round"/>
<path d="M5.08588 42.9287L9.0804 43.138M9.0804 43.138L10.4098 17.7723C10.4925 16.1937 11.4971 14.8119 12.9732 14.2464L23.1921 10.3314C25.8952 9.29584 28.7692 11.3854 28.6177 14.276L28.4165 18.1157M9.0804 43.138L27.0557 44.0801M27.0557 44.0801L28.4165 18.1157M27.0557 44.0801L41.0365 44.8128M28.4165 18.1157L39.7166 23.6757C41.1524 24.3822 42.029 25.8762 41.9452 27.4742L41.0365 44.8128M41.0365 44.8128L45.0311 45.0221M18.3255 19.5896L20.3228 19.6943M17.9068 27.5786L19.9041 27.6833M17.4881 35.5677L19.4854 35.6723M33.8849 28.416L34.8835 28.4683M33.4662 36.405L35.4635 36.5097" stroke="#1F2937" stroke-width="2" stroke-linecap="round" stroke-linejoin="round"/>
<path opacity="0.25" d="M9.0804 43.138L10.4098 17.7723C10.4925 16.1937 11.4971 14.8119 12.9732 14.2464L23.1921 10.3314C25.8952 9.29584 28.7692 11.3854 28.6177 14.276L28.4165 18.1157L39.7166 23.6757C41.1524 24.3822 42.029 25.8762 41.9452 27.4742L41.0365 44.8128L27.0557 44.0801L9.0804 43.138Z" fill="#1F2937"/>
</svg>
