<svg width="500" height="501" viewBox="0 0 500 501" fill="none" xmlns="http://www.w3.org/2000/svg">
<path d="M232 483C234.806 482.532 239.274 482.415 243.891 483.485M243.891 483.485C249.146 484.704 254.593 487.463 258 493M243.891 483.485C247.79 478.97 255.116 475 268 475H270M270 475C270 486.046 261.046 495 250 495C238.955 495 230 486.046 230 475C230 463.954 238.955 455 250 455C261.046 455 270 463.954 270 475ZM243 465C242 465 240 465.6 240 468C240 470.4 242 471 243 471C244 471 246 470.4 246 468C246 465.6 244 465 243 465Z" stroke="#1F2937" stroke-width="2" stroke-linecap="round" stroke-linejoin="round"/>
<path fill-rule="evenodd" clip-rule="evenodd" d="M344 348C344 344.686 346.686 342 350 342H378C379.105 342 380 342.895 380 344V380C380 381.105 379.105 382 378 382H350C346.686 382 344 379.314 344 376V348ZM354 352C354 350.895 354.895 350 356 350H368C369.105 350 370 350.895 370 352C370 353.105 369.105 354 368 354H356C354.895 354 354 353.105 354 352ZM351 372C349.343 372 348 373.343 348 375C348 376.657 349.343 378 351 378H376V372H351Z" fill="#1F2937"/>
<path d="M346 244V264C346 266.209 347.79 268 350 268H374C376.209 268 378 266.209 378 264V244M346 244V240C346 237.791 347.79 236 350 236H354M346 244H378M378 244V240C378 237.791 376.209 236 374 236H370M370 236V232M370 236H354M354 236V232" stroke="#1F2937" stroke-width="2" stroke-linecap="round" stroke-linejoin="round"/>
<path d="M369.542 129.058C373.404 128.982 377.075 131.481 378.191 135.497C379.526 140.304 378.756 145.452 376.073 149.658L374.07 152.797C372.323 155.537 368.842 156.597 365.864 155.298C363.958 154.467 361.773 154.582 359.965 155.607C357.139 157.211 353.566 156.52 351.542 153.978L349.222 151.066C346.114 147.163 344.81 142.124 345.636 137.203C346.548 131.773 352.171 128.508 357.339 130.409L357.938 130.63C359.135 131.07 360.395 131.255 361.643 131.19M361.581 130.011L365.576 129.802C369.988 129.571 373.377 125.806 373.146 121.394L372.937 117.4L368.942 117.609C364.53 117.84 361.141 121.604 361.372 126.017L361.581 130.011ZM361.581 130.011L361.79 134.006" stroke="#1F2937" stroke-width="2" stroke-linecap="round" stroke-linejoin="round"/>
<path d="M463.7 255.468L470.005 249.791L464.328 243.485M475.683 256.096L483.672 256.515M460.752 235.286L488.713 236.752C490.92 236.867 492.614 238.75 492.499 240.956L491.452 260.928C491.336 263.134 489.454 264.829 487.248 264.713L459.286 263.248C457.08 263.132 455.386 261.25 455.501 259.044L456.548 239.072C456.664 236.865 458.546 235.171 460.752 235.286Z" stroke="#1F2937" stroke-width="2" stroke-linecap="round" stroke-linejoin="round"/>
<path d="M154.92 457.862L156.917 457.967M154.92 457.862L153.664 481.829L141.68 481.201M154.92 457.862L122.964 456.187M120.966 456.083L122.964 456.187M122.964 456.187L121.708 480.154L133.691 480.782M133.691 480.782L129.069 492.557M133.691 480.782L141.68 481.201M141.68 481.201L145.047 493.394" stroke="#1F2937" stroke-width="2" stroke-linecap="round" stroke-linejoin="round"/>
<path opacity="0.25" d="M153.664 481.829L154.92 457.862L122.964 456.187L121.708 480.154L133.691 480.782L141.68 481.201L153.664 481.829Z" fill="#1F2937"/>
<path fill-rule="evenodd" clip-rule="evenodd" d="M22.7294 458.449C24.0938 457.309 26.0467 457.207 27.5228 458.197L42.0531 467.95C43.0985 468.652 43.7525 469.805 43.8184 471.062L44.7081 488.039C44.8238 490.245 43.1291 492.127 40.923 492.243L12.9613 493.708C10.7552 493.824 8.87309 492.129 8.75747 489.923L7.86776 472.946C7.80187 471.689 8.33178 470.474 9.29809 469.667L22.7294 458.449ZM25.6861 469.008C26.7891 468.95 27.7302 469.798 27.788 470.901L28.416 482.884C28.4739 483.987 27.6265 484.929 26.5235 484.986C25.4204 485.044 24.4793 484.197 24.4215 483.094L23.7935 471.11C23.7357 470.007 24.583 469.066 25.6861 469.008ZM18.0111 475.419C19.1141 475.361 20.0552 476.208 20.113 477.311L20.427 483.303C20.4848 484.406 19.6375 485.347 18.5344 485.405C17.4314 485.463 16.4903 484.615 16.4325 483.512L16.1185 477.521C16.0607 476.418 16.908 475.477 18.0111 475.419ZM34.1985 478.576C35.3015 478.518 36.2426 479.365 36.3004 480.468L36.4051 482.466C36.4629 483.569 35.6156 484.51 34.5125 484.568C33.4094 484.625 32.4684 483.778 32.4106 482.675L32.3059 480.678C32.2481 479.575 33.0954 478.634 34.1985 478.576Z" fill="#1F2937"/>
<path d="M354.743 459.601L350.748 459.391C348.542 459.276 346.66 460.97 346.544 463.176L345.288 487.143C345.173 489.35 346.867 491.232 349.073 491.347L373.04 492.603C375.247 492.719 377.129 491.024 377.244 488.818L378.5 464.851C378.616 462.645 376.921 460.763 374.715 460.647L370.721 460.438M354.743 459.601C354.627 461.807 356.322 463.689 358.528 463.804L366.517 464.223C368.723 464.339 370.605 462.644 370.721 460.438M354.743 459.601C354.858 457.394 356.74 455.7 358.946 455.815L366.935 456.234C369.142 456.35 370.836 458.232 370.721 460.438" stroke="#1F2937" stroke-width="2" stroke-linecap="round" stroke-linejoin="round"/>
<path d="M268.498 240.956C268.267 245.368 260.032 248.523 250.104 248.003C240.177 247.482 232.316 243.484 232.548 239.072M268.498 240.956C268.73 236.544 260.869 232.545 250.942 232.025C241.014 231.504 232.779 234.659 232.548 239.072M268.498 240.956L267.975 250.942M232.548 239.072L232.024 249.058M267.975 250.942C267.744 255.354 259.508 258.509 249.581 257.989C239.653 257.469 231.793 253.47 232.024 249.058M267.975 250.942L267.452 260.928C267.22 265.341 258.985 268.496 249.058 267.975C239.13 267.455 231.27 263.456 231.501 259.044L232.024 249.058" stroke="#1F2937" stroke-width="2" stroke-linecap="round" stroke-linejoin="round"/>
<path opacity="0.25" d="M250.942 232.025C241.014 231.504 232.779 234.659 232.548 239.072L232.024 249.058L231.501 259.044C231.27 263.456 239.13 267.455 249.058 267.975C258.985 268.496 267.22 265.341 267.452 260.928L267.975 250.942L268.498 240.956C268.73 236.544 260.869 232.545 250.942 232.025Z" fill="#1F2937"/>
<path d="M266.187 365.157L265.349 349.179C265.234 346.973 263.352 345.278 261.146 345.394L237.178 346.65C234.972 346.766 233.278 348.648 233.393 350.854L234.231 366.832M266.187 365.157L234.231 366.832M266.187 365.157L269.613 371.197C271.08 373.784 269.313 377.01 266.343 377.166L235.33 378.791C232.361 378.946 230.266 375.923 231.454 373.197L234.231 366.832" stroke="#1F2937" stroke-width="2" stroke-linecap="round" stroke-linejoin="round"/>
<path d="M479.364 462.702L483.703 457.883C484.442 457.062 485.707 456.996 486.528 457.735L489.861 460.736C490.682 461.475 490.748 462.74 490.009 463.561L485.669 468.38M479.364 462.702L468.562 474.698C468.208 475.093 468.024 475.612 468.051 476.141L468.217 479.308C468.275 480.412 469.216 481.259 470.319 481.201L473.487 481.035C474.016 481.007 474.513 480.77 474.868 480.376L485.669 468.38M479.364 462.702L485.669 468.38M473.058 457.025L459.077 457.757C456.871 457.873 455.176 459.755 455.292 461.961L456.757 489.923C456.873 492.129 458.755 493.824 460.961 493.708L488.923 492.243C491.129 492.127 492.824 490.245 492.708 488.039L492.08 476.055" stroke="#1F2937" stroke-width="2" stroke-linecap="round" stroke-linejoin="round"/>
<path opacity="0.25" fill-rule="evenodd" clip-rule="evenodd" d="M459.077 457.757C456.871 457.873 455.176 459.755 455.292 461.961L456.757 489.923C456.873 492.129 458.755 493.824 460.961 493.708L488.923 492.243C491.129 492.127 492.824 490.245 492.708 488.039L491.243 460.077C491.127 457.871 489.245 456.176 487.039 456.292L459.077 457.757ZM468.051 476.141L468.217 479.308C468.275 480.411 469.216 481.259 470.319 481.201L473.487 481.035C474.016 481.007 474.513 480.77 474.868 480.376L485.669 468.38L490.009 463.561C490.748 462.74 490.682 461.475 489.861 460.736L486.528 457.735C485.707 456.996 484.442 457.062 483.703 457.883L479.364 462.702L468.562 474.698C468.208 475.092 468.024 475.612 468.051 476.141Z" fill="#1F2937"/>
<path d="M492 380V374C492 370.686 489.314 368 486 368M482 344.252C485.45 345.14 488 348.272 488 352C488 355.728 485.45 358.86 482 359.748M456 380V374C456 370.686 458.686 368 462 368H474C477.314 368 480 370.686 480 374V380M476 352C476 356.418 472.418 360 468 360C463.582 360 460 356.418 460 352C460 347.582 463.582 344 468 344C472.418 344 476 347.582 476 352Z" stroke="#1F2937" stroke-width="2" stroke-linecap="round" stroke-linejoin="round"/>
<path d="M156 354C156 350.686 149.732 348 142 348C134.268 348 128 350.686 128 354M156 354V362C156 364.039 153.627 365.84 150 366.924C147.732 367.602 144.974 368 142 368C139.026 368 136.268 367.602 134 366.924C130.373 365.84 128 364.039 128 362V354M156 354C156 356.039 153.627 357.84 150 358.924C147.732 359.602 144.974 360 142 360C139.026 360 136.268 359.602 134 358.924C130.373 357.84 128 356.039 128 354M120 362V370C120 372.039 122.373 373.84 126 374.925C128.268 375.603 131.026 376 134 376C136.974 376 139.732 375.603 142 374.925C145.627 373.84 148 372.039 148 370V368M120 362C120 359.607 123.27 357.541 128 356.578M120 362C120 364.039 122.373 365.84 126 366.925C128.268 367.603 131.026 368 134 368C135.39 368 136.733 367.913 138 367.752" stroke="#1F2937" stroke-width="2" stroke-linecap="round" stroke-linejoin="round"/>
<path d="M460 122C456.687 122 454 124.686 454 128V130H494V128C494 124.686 491.314 122 488 122H460Z" fill="#1F2937"/>
<path fill-rule="evenodd" clip-rule="evenodd" d="M494 134H454V148C454 151.314 456.687 154 460 154H488C491.314 154 494 151.314 494 148V134ZM464 138C462.896 138 462 138.895 462 140C462 141.104 462.896 142 464 142H474C475.105 142 476 141.104 476 140C476 138.895 475.105 138 474 138H464Z" fill="#1F2937"/>
<path d="M486.408 18.5595C491.593 18.581 495.124 19.5646 495.52 21.4262C496.209 24.6675 487.133 29.343 475.248 31.8692C463.363 34.3954 453.17 33.8156 452.481 30.5743C452.073 28.6552 455.089 26.2332 460.084 24.0523M487.981 26.733C487.577 34.4544 480.989 40.3858 473.268 39.9811C465.547 39.5764 459.615 32.989 460.02 25.2676C460.425 17.5462 467.012 11.6148 474.733 12.0195C482.455 12.4241 488.386 19.0116 487.981 26.733Z" stroke="#1F2937" stroke-width="2" stroke-linecap="round" stroke-linejoin="round"/>
</svg>
