<svg width="502" height="411" viewBox="0 0 502 411" fill="none" xmlns="http://www.w3.org/2000/svg">
<path fill-rule="evenodd" clip-rule="evenodd" d="M235.513 372.568C235.339 369.258 237.881 366.435 241.191 366.262L261.163 365.215C264.472 365.042 267.295 367.584 267.469 370.893L269.053 401.128C269.174 403.429 266.765 405.001 264.708 403.964L253.888 398.512C253.256 398.193 252.502 398.233 251.906 398.616L241.716 405.169C239.778 406.415 237.218 405.103 237.097 402.803L235.513 372.568Z" fill="#1F2937"/>
<path d="M345.62 230.67C345.504 228.463 347.199 226.581 349.405 226.466L357.253 226.054C358.589 225.984 359.871 226.587 360.67 227.659L362.42 230.008C363.22 231.081 364.502 231.683 365.837 231.613L377.68 230.992C379.886 230.876 381.769 232.571 381.884 234.777L382.826 252.753C382.942 254.959 381.247 256.841 379.041 256.956L351.079 258.422C348.873 258.537 346.991 256.843 346.876 254.637L345.62 230.67Z" stroke="#1F2937" stroke-width="2" stroke-linecap="round" stroke-linejoin="round"/>
<path d="M137.397 106.215L138.025 94.2314M138.025 94.2314L143.703 100.537M138.025 94.2314L131.719 99.9091M155.686 101.165C155.166 111.093 146.696 118.719 136.769 118.198C126.841 117.678 119.215 109.209 119.736 99.2811C120.256 89.3536 128.726 81.7276 138.653 82.2478C148.581 82.7681 156.207 91.2377 155.686 101.165Z" stroke="#1F2937" stroke-width="2" stroke-linecap="round" stroke-linejoin="round"/>
<path fill-rule="evenodd" clip-rule="evenodd" d="M236.657 11.3628C237.165 9.67082 238.722 8.51215 240.489 8.51215H243C244.105 8.51215 245 9.40758 245 10.5121C245 11.6167 244.105 12.5121 243 12.5121H240.489L235.689 28.5121H245C247.21 28.5121 249 30.303 249 32.5121H253C253 30.303 254.791 28.5121 257 28.5121H266.312L261.512 12.5121H259C257.896 12.5121 257 11.6167 257 10.5121C257 9.40758 257.896 8.51215 259 8.51215H261.512C263.279 8.51215 264.836 9.67082 265.344 11.3628L270.916 29.9375C270.972 30.1239 271 30.3175 271 30.5121V35.5121C271 36.9989 270.571 39.1844 269.224 41.0558C267.803 43.0291 265.452 44.5121 262 44.5121C258.549 44.5121 256.198 43.0291 254.777 41.0558C253.708 39.5703 253.217 37.8869 253.06 36.5121H248.941C248.784 37.8869 248.293 39.5703 247.224 41.0558C245.803 43.0291 243.452 44.5121 240 44.5121C236.549 44.5121 234.198 43.0291 232.777 41.0558C231.43 39.1844 231 36.9989 231 35.5121V30.5121C231 30.3175 231.029 30.1239 231.085 29.9375L236.657 11.3628ZM239 34.5121C239 35.6167 238.104 36.5121 237 36.5121C235.895 36.5121 235 35.6167 235 34.5121C235 33.4076 235.895 32.5121 237 32.5121C238.104 32.5121 239 33.4076 239 34.5121ZM261 34.5121C261 35.6167 260.105 36.5121 259 36.5121C257.895 36.5121 257 35.6167 257 34.5121C257 33.4076 257.895 32.5121 259 32.5121C260.105 32.5121 261 33.4076 261 34.5121Z" fill="#1F2937"/>
<path d="M130.028 166.24C133.337 166.066 135.879 163.243 135.706 159.934C135.532 156.625 132.709 154.083 129.4 154.256C126.091 154.43 123.549 157.253 123.722 160.562C123.896 163.871 126.719 166.413 130.028 166.24ZM130.028 166.24L131.075 186.212M130.028 166.24C130.272 170.9 133.557 180.074 144.742 179.488M144.742 179.488C144.915 182.797 147.738 185.339 151.047 185.166C154.356 184.992 156.899 182.169 156.725 178.86C156.552 175.551 153.728 173.009 150.419 173.182C147.11 173.356 144.568 176.179 144.742 179.488Z" stroke="#1F2937" stroke-width="2" stroke-linecap="round" stroke-linejoin="round"/>
<path d="M482.763 309.056C482.124 306.341 480.066 303 475 303C469.936 303 467.877 306.34 467.239 309.055C467.083 309.678 467 310.329 467 311C467 315.418 470.582 319 475 319C479.419 319 483 315.418 483 311C483 310.991 483 310.981 483 310.971C482.998 310.311 482.916 309.67 482.763 309.056Z" fill="#1F2937"/>
<path fill-rule="evenodd" clip-rule="evenodd" d="M474.029 293.252C474.633 292.916 475.368 292.916 475.972 293.252L493.972 303.252C494.607 303.604 495 304.274 495 305V325C495 325.726 494.607 326.396 493.972 326.748L475.972 336.748C475.368 337.084 474.633 337.084 474.029 336.748L456.029 326.748C455.394 326.396 455 325.726 455 325V305C455 304.274 455.394 303.604 456.029 303.252L474.029 293.252ZM459 306.177L459 323.823L464.014 326.608C464.692 325.223 465.682 324.017 466.891 323.083C468.399 321.917 470.25 321.173 472.267 321.027C472.509 321.009 472.754 321 473 321H477C477.013 321 477.026 321 477.038 321C479.271 321.008 481.33 321.748 482.99 322.991C484.254 323.938 485.286 325.177 485.987 326.608L491 323.823V306.177L475 297.288L459 306.177Z" fill="#1F2937"/>
<path d="M17 381L24.5012 387.001C25.9621 388.17 28.0379 388.17 29.4988 387.001L37 381M45 383V377C45 374.791 43.2091 373 41 373L13 373C10.7909 373 9 374.791 9 377L9 397C9 399.209 10.7909 401 13 401L21 401M43 399C43 401.209 41.2091 403 39 403C36.7909 403 35 401.209 35 399C35 396.791 36.7909 395 39 395C41.2091 395 43 396.791 43 399ZM43 399C43 400 43.6 402 46 402C48.4 402 49 400 49 399C49 393.477 44.5229 389 39 389C33.4772 389 29 393.477 29 399C29 404.523 33.4772 409 39 409C40.4222 409 41.7751 408.703 43 408.168" stroke="#1F2937" stroke-width="2" stroke-linecap="round" stroke-linejoin="round"/>
<path d="M373 305V325M373 305V297M373 305H381M373 305H353M373 325H353M373 325V333M373 325H381M353 325H345M353 325V333M353 325V305M345 305H353M353 305V297" stroke="#1F2937" stroke-width="2" stroke-linecap="round" stroke-linejoin="round"/>
<path opacity="0.25" d="M373 325V305H353V325H373Z" fill="#1F2937"/>
<path d="M485 98.9999C485 101.209 486.791 103 489 103C491.209 103 493 101.209 493 98.9999C493 96.7908 491.209 94.9999 489 94.9999C486.791 94.9999 485 96.7908 485 98.9999ZM485 98.9999H475M475 107H479.343C480.404 107 481.421 107.421 482.172 108.172L486 112M486 85.9999L482.172 89.8284C481.421 90.5785 480.404 90.9999 479.343 90.9999H475M467.535 86.9999C467.195 86.4116 467 85.7285 467 84.9999C467 82.7908 468.791 80.9999 471 80.9999C473.209 80.9999 475 82.7908 475 84.9999V113C475 115.209 473.209 117 471 117C468.791 117 467 115.209 467 113M463 92.4648C461.804 91.7732 461 90.4805 461 88.9999C461 86.7908 462.791 84.9999 465 84.9999C465.729 84.9999 466.412 85.1947 467 85.5351M461 91.3412C458.67 92.1649 457 94.3874 457 96.9998C457 99.6123 458.67 101.835 461 102.658C461.626 102.88 462.299 103 463 103M460.528 103C459.578 104.061 459 105.463 459 107C459 110.314 461.686 113 465 113C466.537 113 467.938 112.422 469 111.472M489 111C491.209 111 493 112.791 493 115C493 117.209 491.209 119 489 119C486.791 119 485 117.209 485 115C485 112.791 486.791 111 489 111ZM489 78.9999C491.209 78.9999 493 80.7908 493 82.9999C493 85.2091 491.209 86.9999 489 86.9999C486.791 86.9999 485 85.2091 485 82.9999C485 80.7908 486.791 78.9999 489 78.9999Z" stroke="#1F2937" stroke-width="2" stroke-linecap="round" stroke-linejoin="round"/>
<g opacity="0.25">
<path d="M493 115C493 112.791 491.209 111 489 111C486.791 111 485 112.791 485 115C485 117.209 486.791 119 489 119C491.209 119 493 117.209 493 115Z" fill="#1F2937"/>
<path d="M489 94.9999C491.209 94.9999 493 96.7908 493 98.9999C493 101.209 491.209 103 489 103C486.791 103 485 101.209 485 98.9999H475V107V113C475 115.209 473.209 117 471 117C468.791 117 467 115.209 467 113V112.659C466.374 112.88 465.701 113 465 113C461.686 113 459 110.314 459 107C459 105.463 459.578 104.061 460.528 103L461 102.658C458.67 101.835 457 99.6123 457 96.9998C457 94.3874 458.67 92.1649 461 91.3412L461.624 91.147C461.229 90.5267 461 89.7901 461 88.9999C461 86.7908 462.791 84.9999 465 84.9999C465.729 84.9999 466.412 85.1947 467 85.5351L467.042 85.5799C467.014 85.3906 467 85.1969 467 84.9999C467 82.7908 468.791 80.9999 471 80.9999C473.209 80.9999 475 82.7908 475 84.9999V90.9999V98.9999H485C485 96.7908 486.791 94.9999 489 94.9999Z" fill="#1F2937"/>
<path d="M493 82.9999C493 80.7908 491.209 78.9999 489 78.9999C486.791 78.9999 485 80.7908 485 82.9999C485 85.2091 486.791 86.9999 489 86.9999C491.209 86.9999 493 85.2091 493 82.9999Z" fill="#1F2937"/>
</g>
<path d="M240.676 191.777L228.692 191.149L238.996 174.694C239.382 174.079 240.071 173.721 240.796 173.759L241.618 173.802M240.676 191.777L252.659 192.405M240.676 191.777L241.618 173.802M252.659 192.405L243.615 173.906M252.659 192.405L267.639 193.19L259.112 175.749C258.793 175.096 258.145 174.668 257.419 174.63L243.615 173.906M243.615 173.906L241.618 173.802M258.643 154.666L258.538 156.664M258.538 156.664L258.119 164.653M258.538 156.664C258.468 157.995 257.53 160.616 254.334 160.449L252.337 160.344M258.538 156.664C258.468 157.995 259.128 160.7 262.323 160.868L264.321 160.972M258.119 164.653L257.648 173.64M258.119 164.653C258.05 165.984 257.111 168.605 253.916 168.438L251.918 168.333M258.119 164.653C258.05 165.984 258.709 168.689 261.905 168.857L263.902 168.961M242.351 159.821C242.235 162.027 240.353 163.722 238.147 163.606C235.941 163.49 234.246 161.608 234.362 159.402C234.477 157.196 236.359 155.501 238.566 155.617C240.772 155.733 242.466 157.615 242.351 159.821Z" stroke="#1F2937" stroke-width="2" stroke-linecap="round" stroke-linejoin="round"/>
<path d="M154.316 305.077C154.143 308.386 146.849 310.694 138.024 310.231C129.2 309.769 122.187 306.711 122.36 303.402M154.316 305.077C154.49 301.768 147.477 298.71 138.652 298.248C129.828 297.785 122.534 300.093 122.36 303.402M154.316 305.077L153.06 329.044M122.36 303.402L121.104 327.369M153.06 329.044C152.887 332.353 145.593 334.661 136.768 334.199C127.944 333.736 120.931 330.679 121.104 327.369M153.06 329.044C153.234 325.735 146.221 322.677 137.396 322.215C128.572 321.753 121.278 324.06 121.104 327.369" stroke="#1F2937" stroke-width="2" stroke-linecap="round" stroke-linejoin="round"/>
<path d="M491 165V163L481 153H479M491 165V185C491 188.2 488.333 189 487 189H463C459.8 189 459 186.333 459 185L459 157C459 153.8 461.666 153 463 153H479M491 165H483C481.666 165 479 164.2 479 161V153" stroke="#1F2937" stroke-width="2" stroke-linecap="round" stroke-linejoin="round"/>
<path d="M347.94 167.496L375.901 168.961M347.94 167.496L343.212 181.267M347.94 167.496L345.866 158.474C345.27 155.884 347.32 153.444 349.973 153.583L375.333 154.912C377.987 155.051 379.77 157.692 378.907 160.206L375.901 168.961M375.901 168.961L379.163 183.152M379.163 183.152L343.212 181.267M379.163 183.152L377.662 188.05C377.124 189.805 375.461 190.968 373.628 190.872L347.91 189.525C346.077 189.429 344.544 188.097 344.193 186.296L343.212 181.267M354.234 173.834L368.978 174.607C369.356 174.627 369.691 174.858 369.842 175.206C370.14 175.887 369.616 176.643 368.874 176.604L354.13 175.831C353.387 175.792 352.946 174.986 353.312 174.339C353.499 174.01 353.856 173.814 354.234 173.834Z" stroke="#1F2937" stroke-width="2" stroke-linecap="round" stroke-linejoin="round"/>
<g opacity="0.25">
<path d="M375.901 168.961L347.94 167.496L345.866 158.474C345.27 155.884 347.32 153.444 349.973 153.583L375.333 154.912C377.987 155.051 379.77 157.692 378.907 160.206L375.901 168.961Z" fill="#1F2937"/>
<path d="M343.212 181.267L379.163 183.152L377.662 188.05C377.124 189.805 375.461 190.968 373.628 190.872L347.91 189.525C346.077 189.429 344.544 188.097 344.193 186.296L343.212 181.267Z" fill="#1F2937"/>
</g>
<path d="M485.686 14.7134L485.706 14.7124M466.761 35.7328L466.781 35.7317M469.604 13.5536L461.615 13.9723C459.409 14.0879 457.714 15.97 457.83 18.1761L458.144 24.1679M469.604 13.5536L465.4 9.76839M469.604 13.5536L465.819 17.7574M482.843 36.8926L490.832 36.474C493.038 36.3583 494.733 34.4762 494.618 32.2701L494.304 26.2783M482.843 36.8926L487.047 40.6778M482.843 36.8926L486.629 32.6888M480.009 21.0192L491.992 20.3912C494.198 20.2756 495.893 18.3935 495.777 16.1873L495.568 12.1928C495.452 9.98672 493.57 8.29204 491.364 8.40765L479.381 9.03569C477.175 9.1513 475.48 11.0334 475.596 13.2395L475.805 17.2341C475.92 19.4402 477.803 21.1349 480.009 21.0192ZM461.083 42.0385L473.066 41.4105C475.273 41.2949 476.967 39.4128 476.852 37.2067L476.642 33.2121C476.527 31.006 474.644 29.3113 472.438 29.427L460.455 30.055C458.249 30.1706 456.554 32.0527 456.67 34.2589L456.879 38.2534C456.995 40.4595 458.877 42.1542 461.083 42.0385Z" stroke="#1F2937" stroke-width="2" stroke-linecap="round" stroke-linejoin="round"/>
<path d="M4.82123 44.6639L8.81575 44.8732M8.81575 44.8732L10.1451 19.5076C10.2278 17.929 11.2325 16.5472 12.7086 15.9816L22.9275 12.0666C25.6305 11.0311 28.5045 13.1206 28.353 16.0112L28.1518 19.8509M8.81575 44.8732L26.7911 45.8153M26.7911 45.8153L28.1518 19.8509M26.7911 45.8153L40.7719 46.548M28.1518 19.8509L39.452 25.411C40.8877 26.1174 41.7643 27.6115 41.6806 29.2094L40.7719 46.548M40.7719 46.548L44.7664 46.7573M18.0608 21.3248L20.0581 21.4295M17.6422 29.3139L19.6394 29.4185M17.2235 37.3029L19.2207 37.4076M33.6202 30.1512L34.6189 30.2036M33.2015 38.1403L35.1988 38.2449" stroke="#1F2937" stroke-width="2" stroke-linecap="round" stroke-linejoin="round"/>
<path opacity="0.25" d="M8.81575 44.8733L10.1451 19.5076C10.2278 17.929 11.2325 16.5472 12.7086 15.9816L22.9275 12.0666C25.6305 11.0311 28.5045 13.1206 28.353 16.0112L28.1518 19.8509L39.452 25.411C40.8877 26.1174 41.7643 27.6115 41.6806 29.2094L40.7719 46.548L26.7911 45.8153L8.81575 44.8733Z" fill="#1F2937"/>
<path d="M121 395C123.806 394.532 128.274 394.415 132.891 395.485M132.891 395.485C138.146 396.704 143.593 399.463 147 405M132.891 395.485C136.79 390.97 144.116 387 157 387H159M159 387C159 398.046 150.046 407 139 407C127.955 407 119 398.046 119 387C119 375.954 127.955 367 139 367C150.046 367 159 375.954 159 387ZM132 377C131 377 129 377.6 129 380C129 382.4 131 383 132 383C133 383 135 382.4 135 380C135 377.6 133 377 132 377Z" stroke="#1F2937" stroke-width="2" stroke-linecap="round" stroke-linejoin="round"/>
<path fill-rule="evenodd" clip-rule="evenodd" d="M121 229C121 225.686 123.686 223 127 223H155C156.105 223 157 223.895 157 225V261C157 262.105 156.105 263 155 263H127C123.686 263 121 260.314 121 257V229ZM131 233C131 231.895 131.895 231 133 231H145C146.105 231 147 231.895 147 233C147 234.105 146.105 235 145 235H133C131.895 235 131 234.105 131 233ZM128 253C126.343 253 125 254.343 125 256C125 257.657 126.343 259 128 259H153V253H128Z" fill="#1F2937"/>
<path d="M10.9995 165V185C10.9995 187.209 12.7904 189 14.9995 189H38.9995C41.2086 189 42.9995 187.209 42.9995 185V165M10.9995 165V161C10.9995 158.791 12.7904 157 14.9995 157H18.9995M10.9995 165H42.9995M42.9995 165V161C42.9995 158.791 41.2086 157 38.9995 157H34.9995M34.9995 157V153M34.9995 157H18.9995M18.9995 157V153" stroke="#1F2937" stroke-width="2" stroke-linecap="round" stroke-linejoin="round"/>
<path d="M35.7654 88.7689C39.6268 88.6925 43.2978 91.1921 44.4137 95.208C45.7494 100.015 44.9796 105.163 42.2961 109.369L40.2936 112.508C38.5459 115.247 35.0651 116.308 32.0867 115.009C30.1816 114.178 27.9964 114.293 26.1885 115.318C23.3623 116.921 19.7896 116.23 17.7652 113.689L15.4455 110.776C12.3371 106.874 11.0334 101.834 11.8593 96.9141C12.7709 91.4835 18.3945 88.2189 23.5624 90.1202L24.161 90.3404C25.3577 90.7806 26.6185 90.9661 27.8661 90.9007M27.8043 89.722L31.7988 89.5127C36.211 89.2814 39.6004 85.5171 39.3692 81.1049L39.1598 77.1104L35.1653 77.3198C30.7531 77.551 27.3637 81.3153 27.5949 85.7275L27.8043 89.722ZM27.8043 89.722L28.0136 93.7165" stroke="#1F2937" stroke-width="2" stroke-linecap="round" stroke-linejoin="round"/>
<path d="M351.411 105.692L357.716 100.014L352.039 93.708M363.394 106.32L371.383 106.738M348.463 85.5096L376.424 86.975C378.631 87.0906 380.325 88.9727 380.21 91.1788L379.163 111.151C379.047 113.358 377.165 115.052 374.959 114.937L346.997 113.471C344.791 113.356 343.097 111.473 343.212 109.267L344.259 89.2948C344.375 87.0886 346.257 85.394 348.463 85.5096Z" stroke="#1F2937" stroke-width="2" stroke-linecap="round" stroke-linejoin="round"/>
<path d="M266.631 299.085L268.628 299.19M266.631 299.085L265.375 323.052L253.392 322.424M266.631 299.085L234.675 297.41M232.678 297.306L234.675 297.41M234.675 297.41L233.419 321.378L245.402 322.006M245.402 322.006L240.78 333.78M245.402 322.006L253.392 322.424M253.392 322.424L256.758 334.617" stroke="#1F2937" stroke-width="2" stroke-linecap="round" stroke-linejoin="round"/>
<path opacity="0.25" d="M265.375 323.052L266.631 299.085L234.675 297.41L233.419 321.378L245.402 322.006L253.392 322.424L265.375 323.052Z" fill="#1F2937"/>
<path fill-rule="evenodd" clip-rule="evenodd" d="M360.953 369.16C362.317 368.02 364.27 367.918 365.746 368.908L380.277 378.661C381.322 379.363 381.976 380.516 382.042 381.773L382.932 398.75C383.047 400.956 381.353 402.838 379.147 402.954L351.185 404.419C348.979 404.535 347.097 402.84 346.981 400.634L346.091 383.657C346.025 382.4 346.555 381.185 347.522 380.378L360.953 369.16ZM363.91 379.719C365.013 379.661 365.954 380.509 366.012 381.612L366.64 393.595C366.697 394.698 365.85 395.64 364.747 395.697C363.644 395.755 362.703 394.908 362.645 393.805L362.017 381.821C361.959 380.718 362.807 379.777 363.91 379.719ZM356.235 386.13C357.338 386.072 358.279 386.919 358.337 388.022L358.651 394.014C358.708 395.117 357.861 396.058 356.758 396.116C355.655 396.174 354.714 395.326 354.656 394.223L354.342 388.232C354.284 387.129 355.132 386.188 356.235 386.13ZM372.422 389.287C373.525 389.229 374.466 390.076 374.524 391.179L374.629 393.177C374.687 394.28 373.839 395.221 372.736 395.279C371.633 395.336 370.692 394.489 370.634 393.386L370.53 391.389C370.472 390.286 371.319 389.345 372.422 389.287Z" fill="#1F2937"/>
<path d="M18.454 301.824L14.4595 301.614C12.2534 301.499 10.3712 303.193 10.2556 305.4L8.99957 329.367C8.88395 331.573 10.5786 333.455 12.7847 333.571L36.7518 334.827C38.958 334.942 40.8401 333.248 40.9557 331.041L42.2118 307.074C42.3274 304.868 40.6327 302.986 38.4266 302.87L34.4321 302.661M18.454 301.824C18.3384 304.03 20.0331 305.912 22.2392 306.028L30.2282 306.446C32.4343 306.562 34.3165 304.867 34.4321 302.661M18.454 301.824C18.5696 299.618 20.4518 297.923 22.6579 298.039L30.6469 298.457C32.853 298.573 34.5477 300.455 34.4321 302.661" stroke="#1F2937" stroke-width="2" stroke-linecap="round" stroke-linejoin="round"/>
<path d="M268.21 91.1789C267.978 95.5911 259.743 98.7462 249.816 98.2259C239.888 97.7056 232.028 93.707 232.259 89.2948M268.21 91.1789C268.441 86.7667 260.581 82.7681 250.653 82.2478C240.726 81.7276 232.49 84.8826 232.259 89.2948M268.21 91.1789L267.686 101.165M232.259 89.2948L231.736 99.2811M267.686 101.165C267.455 105.577 259.22 108.732 249.292 108.212C239.365 107.692 231.504 103.693 231.736 99.2811M267.686 101.165L267.163 111.152C266.932 115.564 258.696 118.719 248.769 118.198C238.841 117.678 230.981 113.68 231.212 109.267L231.736 99.2811" stroke="#1F2937" stroke-width="2" stroke-linecap="round" stroke-linejoin="round"/>
<path opacity="0.25" d="M250.653 82.2478C240.726 81.7276 232.49 84.8826 232.259 89.2948L231.736 99.2811L231.212 109.267C230.981 113.68 238.841 117.678 248.769 118.198C258.696 118.719 266.932 115.564 267.163 111.152L267.686 101.165L268.21 91.1789C268.441 86.7667 260.581 82.7681 250.653 82.2478Z" fill="#1F2937"/>
<path d="M492.41 244.868L491.573 228.89C491.457 226.684 489.575 224.989 487.369 225.105L463.402 226.361C461.196 226.477 459.501 228.359 459.617 230.565L460.454 246.543M492.41 244.868L460.454 246.543M492.41 244.868L495.837 250.908C497.304 253.495 495.536 256.721 492.567 256.876L461.554 258.502C458.584 258.657 456.489 255.634 457.678 252.908L460.454 246.543" stroke="#1F2937" stroke-width="2" stroke-linecap="round" stroke-linejoin="round"/>
<path d="M481.587 373.413L485.927 368.594C486.666 367.773 487.93 367.707 488.751 368.446L492.085 371.447C492.905 372.186 492.972 373.451 492.233 374.272L487.893 379.091M481.587 373.413L470.786 385.409C470.431 385.804 470.247 386.323 470.275 386.852L470.441 390.02C470.499 391.123 471.44 391.97 472.543 391.912L475.71 391.746C476.24 391.718 476.737 391.481 477.092 391.087L487.893 379.091M481.587 373.413L487.893 379.091M475.281 367.736L461.301 368.468C459.095 368.584 457.4 370.466 457.515 372.672L458.981 400.634C459.097 402.84 460.979 404.535 463.185 404.419L491.146 402.954C493.353 402.838 495.047 400.956 494.932 398.75L494.304 386.766" stroke="#1F2937" stroke-width="2" stroke-linecap="round" stroke-linejoin="round"/>
<path opacity="0.25" fill-rule="evenodd" clip-rule="evenodd" d="M461.301 368.468C459.095 368.584 457.4 370.466 457.515 372.672L458.981 400.634C459.097 402.84 460.979 404.535 463.185 404.419L491.146 402.954C493.353 402.838 495.047 400.956 494.932 398.75L493.466 370.788C493.351 368.582 491.468 366.887 489.262 367.003L461.301 368.468ZM470.275 386.852L470.441 390.019C470.499 391.123 471.44 391.97 472.543 391.912L475.71 391.746C476.24 391.718 476.737 391.481 477.092 391.087L487.893 379.091L492.233 374.272C492.972 373.451 492.905 372.186 492.085 371.447L488.751 368.446C487.93 367.707 486.666 367.773 485.927 368.594L481.587 373.413L470.786 385.409C470.431 385.804 470.247 386.323 470.275 386.852Z" fill="#1F2937"/>
<path d="M269 261V255C269 251.686 266.314 249 263 249M259 225.252C262.45 226.14 265 229.272 265 233C265 236.728 262.45 239.86 259 240.748M233 261V255C233 251.686 235.686 249 239 249H251C254.314 249 257 251.686 257 255V261M253 233C253 237.418 249.418 241 245 241C240.582 241 237 237.418 237 233C237 228.582 240.582 225 245 225C249.418 225 253 228.582 253 233Z" stroke="#1F2937" stroke-width="2" stroke-linecap="round" stroke-linejoin="round"/>
<path d="M45 235C45 231.686 38.732 229 31 229C23.268 229 17 231.686 17 235M45 235V243C45 245.039 42.627 246.84 39 247.924C36.7323 248.602 33.9745 249 31 249C28.0255 249 25.2677 248.602 23 247.924C19.373 246.84 17 245.039 17 243V235M45 235C45 237.039 42.627 238.84 39 239.924C36.7323 240.602 33.9745 241 31 241C28.0255 241 25.2677 240.602 23 239.924C19.373 238.84 17 237.039 17 235M9 243V251C9 253.039 11.373 254.84 15 255.925C17.2677 256.603 20.0255 257 23 257C25.9745 257 28.7323 256.603 31 255.925C34.627 254.84 37 253.039 37 251V249M9 243C9 240.607 12.2701 238.541 17 237.578M9 243C9 245.039 11.373 246.84 15 247.925C17.2677 248.603 20.0255 249 23 249C24.3899 249 25.7326 248.913 27 248.752" stroke="#1F2937" stroke-width="2" stroke-linecap="round" stroke-linejoin="round"/>
<path d="M349 10.5122C345.687 10.5122 343 13.1985 343 16.5122V18.5122H383V16.5122C383 13.1985 380.314 10.5122 377 10.5122H349Z" fill="#1F2937"/>
<path fill-rule="evenodd" clip-rule="evenodd" d="M383 22.5122H343V36.5122C343 39.8259 345.687 42.5122 349 42.5122H377C380.314 42.5122 383 39.8259 383 36.5122V22.5122ZM353 26.5122C351.896 26.5122 351 27.4076 351 28.5122C351 29.6168 351.896 30.5122 353 30.5122H363C364.105 30.5122 365 29.6168 365 28.5122C365 27.4076 364.105 26.5122 363 26.5122H353Z" fill="#1F2937"/>
<path d="M150.118 20.2945C155.304 20.316 158.835 21.2996 159.23 23.1613C159.919 26.4026 150.843 31.078 138.959 33.6042C127.074 36.1304 116.881 35.5507 116.192 32.3094C115.784 30.3902 118.799 27.9682 123.794 25.7873M151.692 28.468C151.287 36.1894 144.7 42.1208 136.978 41.7161C129.257 41.3115 123.326 34.724 123.73 27.0026C124.135 19.2812 130.722 13.3499 138.444 13.7545C146.165 14.1592 152.097 20.7466 151.692 28.468Z" stroke="#1F2937" stroke-width="2" stroke-linecap="round" stroke-linejoin="round"/>
</svg>
