<svg width="496" height="497" viewBox="0 0 496 497" fill="none" xmlns="http://www.w3.org/2000/svg">
<path d="M34.0005 455H14.0005C11.7913 455 10.0005 456.791 10.0005 459V489.277C10.0005 490.045 10.83 490.526 11.4966 490.145L22.0159 484.134C23.2457 483.431 24.7553 483.431 25.985 484.134L36.5044 490.145C37.171 490.526 38.0005 490.045 38.0005 489.277V459C38.0005 456.791 36.2096 455 34.0005 455Z" stroke="black" stroke-width="1.5" stroke-linecap="round" stroke-linejoin="round"/>
<path d="M120 373C120 371.674 120.526 370.402 121.464 369.464C122.402 368.527 123.673 368 125 368H152M120 373C120 374.326 120.526 375.598 121.464 376.536C122.402 377.473 123.673 378 125 378H152V368M120 373V347C120 345.674 120.526 344.402 121.464 343.464C122.402 342.527 123.673 342 125 342H152V368M142 350H130" stroke="black" stroke-width="1.5" stroke-linecap="round" stroke-linejoin="round"/>
<path d="M120 242V262C120 264.209 121.79 266 124 266H148C150.209 266 152 264.209 152 262V242M120 242V238C120 235.791 121.79 234 124 234H128M120 242H152M152 242V238C152 235.791 150.209 234 148 234H144M144 234V230M144 234H128M128 234V230" stroke="black" stroke-width="1.5" stroke-linecap="round" stroke-linejoin="round"/>
<path d="M144 127.465C147.86 127.591 151.395 130.279 152.299 134.348C153.382 139.218 152.344 144.319 149.444 148.379L147.28 151.409C145.391 154.053 141.859 154.93 138.953 153.477C137.094 152.547 134.906 152.547 133.047 153.477C130.14 154.93 126.609 154.053 124.72 151.409L122.556 148.379C119.656 144.319 118.618 139.218 119.7 134.348C120.895 128.972 126.682 126.007 131.743 128.176L132.329 128.427C133.501 128.929 134.751 129.18 136 129.18M136 128H140C144.418 128 148 124.418 148 120V116H144C139.582 116 136 119.582 136 124V128ZM136 128V132" stroke="black" stroke-width="1.5" stroke-linecap="round" stroke-linejoin="round"/>
<path d="M238 254L244 248L238 242M250 254H258M234 234H262C264.209 234 266 235.791 266 238V258C266 260.209 264.209 262 262 262H234C231.791 262 230 260.209 230 258V238C230 235.791 231.791 234 234 234Z" stroke="black" stroke-width="1.5" stroke-linecap="round" stroke-linejoin="round"/>
<path d="M376 455H378M376 455V479H364M376 455H344M342 455H344M344 455V479H356M356 479L352 491M356 479H364M364 479L368 491" stroke="black" stroke-width="1.5" stroke-linecap="round" stroke-linejoin="round"/>
<path d="M464 481V471M472 481V465M480 481V477M486 491H458C455.791 491 454 489.209 454 487V459C454 456.791 455.791 455 458 455H486C488.209 455 490 456.791 490 459V487C490 489.209 488.209 491 486 491Z" stroke="black" stroke-width="1.5" stroke-linecap="round" stroke-linejoin="round"/>
<path d="M128 458H124C121.79 458 120 459.791 120 462V486C120 488.209 121.79 490 124 490H148C150.209 490 152 488.209 152 486V462C152 459.791 150.209 458 148 458H144M128 458C128 460.209 129.79 462 132 462H140C142.209 462 144 460.209 144 458M128 458C128 455.791 129.79 454 132 454H140C142.209 454 144 455.791 144 458" stroke="black" stroke-width="1.5" stroke-linecap="round" stroke-linejoin="round"/>
<path d="M42 238C42 242.418 33.9411 246 24 246C14.0589 246 6 242.418 6 238M42 238C42 233.582 33.9411 230 24 230C14.0589 230 6 233.582 6 238M42 238V248M6 238V248M42 248C42 252.418 33.9411 256 24 256C14.0589 256 6 252.418 6 248M42 248V258C42 262.418 33.9411 266 24 266C14.0589 266 6 262.418 6 258V248" stroke="black" stroke-width="1.5" stroke-linecap="round" stroke-linejoin="round"/>
<path d="M39.9993 364V348C39.9993 345.791 38.2085 344 35.9993 344H11.9993C9.79019 344 7.99933 345.791 7.99933 348V364M39.9993 364H7.99933M39.9993 364L43.1049 370.211C44.4347 372.871 42.5007 376 39.5272 376H8.47147C5.49794 376 3.56396 372.871 4.89376 370.211L7.99933 364" stroke="black" stroke-width="1.5" stroke-linecap="round" stroke-linejoin="round"/>
<path d="M254 461L258.586 456.414C259.367 455.633 260.633 455.633 261.414 456.414L264.586 459.586C265.367 460.367 265.367 461.633 264.586 462.414L260 467M254 461L242.586 472.414C242.211 472.789 242 473.298 242 473.828V477C242 478.105 242.895 479 244 479H247.172C247.702 479 248.211 478.789 248.586 478.414L260 467M254 461L260 467M248 455H234C231.791 455 230 456.791 230 459V487C230 489.209 231.791 491 234 491H262C264.209 491 266 489.209 266 487V475" stroke="black" stroke-width="1.5" stroke-linecap="round" stroke-linejoin="round"/>
<path d="M264 354V352L254 342H252M264 354V374C264 377.2 261.333 378 260 378H236C232.8 378 232 375.333 232 374L232 346C232 342.8 234.666 342 236 342H252M264 354H256C254.666 354 252 353.2 252 350V342" stroke="black" stroke-width="1.5" stroke-linecap="round" stroke-linejoin="round"/>
<path d="M378 352C378 348.686 371.732 346 364 346C356.268 346 350 348.686 350 352M378 352V360C378 362.039 375.627 363.84 372 364.924C369.732 365.602 366.974 366 364 366C361.026 366 358.268 365.602 356 364.924C352.373 363.84 350 362.039 350 360V352M378 352C378 354.039 375.627 355.84 372 356.924C369.732 357.602 366.974 358 364 358C361.026 358 358.268 357.602 356 356.924C352.373 355.84 350 354.039 350 352M342 360V368C342 370.039 344.373 371.84 348 372.925C350.268 373.603 353.026 374 356 374C358.974 374 361.732 373.603 364 372.925C367.627 371.84 370 370.039 370 368V366M342 360C342 357.607 345.27 355.541 350 354.578M342 360C342 362.039 344.373 363.84 348 364.925C350.268 365.603 353.026 366 356 366C357.39 366 358.733 365.913 360 365.752" stroke="black" stroke-width="1.5" stroke-linecap="round" stroke-linejoin="round"/>
<path d="M6 130V146C6 148.209 7.79086 150 10 150H38C40.2091 150 42 148.209 42 146V130M6 130V126C6 123.791 7.79086 122 10 122H38C40.2091 122 42 123.791 42 126V130M6 130H42M14 138H24" stroke="black" stroke-width="1.5" stroke-linecap="round" stroke-linejoin="round"/>
<path d="M36.0008 15.9202C41.1807 15.6702 44.7581 16.4677 45.2507 18.3061C46.1084 21.5069 37.2895 26.651 25.5533 29.7957C13.817 32.9404 3.60765 32.8949 2.75 29.6941C2.24218 27.7989 5.1268 25.2225 10.0008 22.7831M38.0004 24.0001C38.0004 31.7321 31.7324 38.0001 24.0004 38.0001C16.2684 38.0001 10.0004 31.7321 10.0004 24.0001C10.0004 16.2681 16.2684 10.0001 24.0004 10.0001C31.7324 10.0001 38.0004 16.2681 38.0004 24.0001Z" stroke="black" stroke-width="1.5" stroke-linecap="round" stroke-linejoin="round"/>
</svg>
