<svg xmlns="http://www.w3.org/2000/svg" fill="currentColor" viewBox="0 0 178 40"><path d="M16.748 35.862c.716-1.074 1.589-3.78-.645-6.013-1.002 1.36-2.276 4.467.645 6.013Zm-4.123-2.982c.916-.908 2.315-3.384.575-6.02-1.255 1.132-3.126 3.92-.575 6.02Zm-3.42-3.577c1.156-.574 3.261-2.484 2.438-5.534-1.546.68-4.2 2.738-2.438 5.534ZM7.16 24.17c1.27-.229 3.825-1.476 3.886-4.634-1.675.221-4.797 1.458-3.886 4.634Zm-.729-5.416c1.288.079 4.066-.527 4.874-3.58-1.68-.182-5.006.278-4.874 3.58Zm.812-5.086c1.205.461 4.037.715 5.722-1.956-1.548-.677-4.86-1.234-5.722 1.956Zm2.153-4.995c1.052.748 3.73 1.7 6.029-.466-1.33-1.042-4.397-2.407-6.03.466Zm2.431-3.713c1.29-.041 4-.902 4.52-4.017-1.69-.026-4.958.742-4.52 4.017Zm4.21 32.322c-1.172-.54-3.98-.98-5.838 1.574 1.5.778 4.767 1.552 5.838-1.574Zm-4.724-2.352c-1.172.539-3.981.98-5.839-1.575 1.5-.778 4.767-1.552 5.839 1.574Zm-3.531-4.907c-1.215.436-4.052.63-5.68-2.075 1.561-.645 4.883-1.132 5.68 2.075ZM6.02 24.61c-1.285.125-4.082-.38-4.999-3.403 1.672-.242 5.013.1 4.999 3.404Zm-.984-5.052C3.806 19.17 1.43 17.61 1.77 14.47c1.633.43 4.573 2.052 3.267 5.088Zm.554-5.983c-1.02-.79-2.709-3.077-1.303-5.905 1.383.97 3.58 3.51 1.304 5.905Zm2.057-5.758c-.771-1.035-1.785-3.692.329-6.039 1.071 1.306 2.506 4.342-.33 6.039Zm136.279 20.439c-1.238 0-2.319-.299-3.243-.896-.91-.597-1.536-1.394-1.877-2.39l2.09-1.002c.313.654.733 1.166 1.259 1.536.526.37 1.116.555 1.771.555.497 0 .896-.107 1.194-.32a1.08 1.08 0 0 0 .47-.918.88.88 0 0 0-.406-.768 2.622 2.622 0 0 0-.938-.448l-1.899-.533c-.981-.284-1.728-.718-2.24-1.301-.498-.583-.747-1.273-.747-2.07 0-.71.178-1.33.534-1.856a3.66 3.66 0 0 1 1.514-1.258c.655-.299 1.401-.448 2.24-.448 1.095 0 2.063.27 2.902.81a4.34 4.34 0 0 1 1.792 2.198l-2.134 1.002a2.426 2.426 0 0 0-1.002-1.258 2.786 2.786 0 0 0-1.579-.47c-.469 0-.839.107-1.109.32a1.01 1.01 0 0 0-.406.832c0 .327.128.583.384.768.256.185.583.335.982.448l1.856.555c.967.27 1.706.697 2.218 1.28.512.583.768 1.28.768 2.09 0 .698-.185 1.316-.554 1.857-.37.526-.882.938-1.536 1.237-.655.299-1.423.448-2.304.448ZM127.291 28V16.395h2.624v1.429a3.06 3.06 0 0 1 1.322-1.259c.584-.284 1.238-.426 1.963-.426.853 0 1.607.185 2.261.554.669.37 1.188.89 1.558 1.558.37.654.554 1.415.554 2.282V28h-2.794v-6.805c0-.768-.221-1.373-.662-1.814-.426-.455-.988-.682-1.685-.682-.697 0-1.266.227-1.707.682-.426.456-.64 1.06-.64 1.814V28h-2.794Zm-7.816.256c-1.138 0-2.176-.263-3.115-.79a6.089 6.089 0 0 1-2.219-2.154c-.54-.91-.81-1.948-.81-3.115 0-1.166.27-2.204.81-3.114a6.087 6.087 0 0 1 2.219-2.155c.925-.526 1.963-.79 3.115-.79 1.138 0 2.169.264 3.093.79a5.906 5.906 0 0 1 2.197 2.155c.555.91.832 1.948.832 3.114 0 1.167-.277 2.212-.832 3.136a6.077 6.077 0 0 1-2.218 2.155c-.925.512-1.949.768-3.072.768Zm0-2.56c.626 0 1.173-.15 1.642-.448a3.066 3.066 0 0 0 1.131-1.237c.285-.54.427-1.145.427-1.814 0-.668-.142-1.265-.427-1.792a3.066 3.066 0 0 0-1.131-1.237c-.469-.313-1.016-.47-1.642-.47-.626 0-1.188.157-1.686.47a3.232 3.232 0 0 0-1.152 1.237c-.27.527-.405 1.124-.405 1.792 0 .669.135 1.273.405 1.814.285.526.669.938 1.152 1.237.498.299 1.06.448 1.686.448Zm-12.638 2.56c-1.152 0-2.19-.263-3.115-.79a5.963 5.963 0 0 1-2.154-2.175c-.527-.925-.79-1.963-.79-3.115 0-1.152.263-2.183.79-3.093a5.799 5.799 0 0 1 2.154-2.155c.925-.526 1.963-.79 3.115-.79.825 0 1.593.143 2.304.427.711.285 1.323.69 1.835 1.216.512.512.889 1.11 1.13 1.792l-2.453 1.067a3.058 3.058 0 0 0-1.088-1.408c-.484-.356-1.06-.533-1.728-.533a3.06 3.06 0 0 0-1.643.448 3.122 3.122 0 0 0-1.109 1.237c-.27.526-.405 1.13-.405 1.813 0 .669.135 1.273.405 1.814.27.526.64.938 1.109 1.237a3.063 3.063 0 0 0 1.643.448c.668 0 1.244-.17 1.728-.512.498-.356.86-.84 1.088-1.45l2.453 1.109a4.758 4.758 0 0 1-1.109 1.77 5.665 5.665 0 0 1-1.835 1.216 6.202 6.202 0 0 1-2.325.427ZM96.3 15.093v-2.986h2.794v2.986h-2.795ZM96.3 28V16.395h2.794V28h-2.795Zm-3.096.128c-1.308 0-2.325-.363-3.05-1.088-.712-.725-1.067-1.735-1.067-3.03v-5.12h-2.005v-2.495h.213c.569 0 1.01-.15 1.323-.448.312-.299.469-.733.469-1.302v-.896h2.794v2.646h2.667v2.496h-2.666v4.97c0 .583.156 1.031.469 1.344.313.313.81.47 1.493.47.228 0 .477-.022.747-.064V28c-.2.028-.427.057-.683.085-.256.029-.49.043-.704.043Zm-11.406.128c-1.238 0-2.319-.299-3.243-.896-.91-.597-1.536-1.394-1.877-2.39l2.09-1.002c.313.654.733 1.166 1.26 1.536a3 3 0 0 0 1.77.555c.498 0 .896-.107 1.194-.32a1.08 1.08 0 0 0 .47-.918.88.88 0 0 0-.406-.768 2.62 2.62 0 0 0-.938-.448l-1.899-.533c-.981-.284-1.728-.718-2.24-1.301-.498-.583-.747-1.273-.747-2.07 0-.71.178-1.33.534-1.856.37-.54.874-.96 1.514-1.258.655-.299 1.401-.448 2.24-.448 1.096 0 2.063.27 2.902.81a4.337 4.337 0 0 1 1.792 2.198l-2.134 1.002a2.423 2.423 0 0 0-1.002-1.258 2.782 2.782 0 0 0-1.579-.47c-.47 0-.839.107-1.11.32-.27.214-.405.491-.405.832 0 .327.128.583.384.768.256.185.584.335.982.448l1.856.555c.967.27 1.706.697 2.218 1.28.512.583.768 1.28.768 2.09 0 .698-.184 1.316-.554 1.857-.37.526-.882.938-1.536 1.237-.654.299-1.422.448-2.304.448Zm-11.548 0c-1.195 0-2.24-.27-3.136-.81a5.647 5.647 0 0 1-2.09-2.198c-.498-.924-.747-1.948-.747-3.072 0-1.166.249-2.197.746-3.093a5.791 5.791 0 0 1 2.07-2.155c.882-.526 1.863-.79 2.944-.79 1.209 0 2.233.264 3.072.79a5.112 5.112 0 0 1 1.92 2.048c.44.853.661 1.8.661 2.837 0 .214-.014.427-.043.64-.014.2-.05.377-.106.534h-8.363c.085.853.413 1.536.981 2.048.57.512 1.273.768 2.112.768.64 0 1.181-.135 1.622-.406a3.12 3.12 0 0 0 1.067-1.088l2.26 1.11c-.355.825-.98 1.507-1.876 2.048-.882.526-1.913.789-3.094.789Zm-.213-9.813c-.697 0-1.302.213-1.814.64-.497.412-.824 1.002-.98 1.77h5.46c-.056-.71-.334-1.287-.832-1.728-.483-.455-1.095-.682-1.834-.682Zm-10.24-3.35v-2.986h2.795v2.986h-2.794Zm-1.6 17.622c-.184 0-.376-.008-.576-.022a3.472 3.472 0 0 1-.49-.064v-2.432c.242.043.498.064.768.064.597 0 1.06-.142 1.386-.426.342-.27.513-.69.513-1.259V16.395h2.794v12.181c0 1.337-.398 2.36-1.194 3.072-.783.711-1.85 1.067-3.2 1.067Z"/><path d="M51.37 28.256c-1.21 0-2.177-.299-2.902-.896-.726-.597-1.088-1.408-1.088-2.432 0-.967.327-1.77.981-2.41.654-.64 1.664-1.074 3.03-1.302l3.456-.555v-.384c0-.497-.2-.91-.598-1.237-.384-.341-.896-.512-1.536-.512-.611 0-1.145.164-1.6.49-.455.314-.79.733-1.002 1.26l-2.283-1.11c.341-.91.967-1.643 1.877-2.197.91-.555 1.949-.832 3.115-.832.953 0 1.785.177 2.496.533.725.341 1.294.825 1.707 1.45.412.626.618 1.345.618 2.155V28h-2.645v-1.237c-.91.995-2.12 1.493-3.627 1.493Zm-1.089-3.435c0 .399.15.719.448.96.299.228.683.342 1.152.342.882 0 1.593-.278 2.134-.832.554-.555.832-1.23.832-2.027v-.47l-2.923.491c-1.095.214-1.643.726-1.643 1.536ZM29.469 28V12.107h2.773l5.29 7.168 5.163-7.168h2.774V28h-2.923V17.205l-4.907 6.528h-.34l-4.929-6.741V28h-2.9Zm131.783 7.862c-.716-1.074-1.589-3.78.644-6.013 1.002 1.36 2.276 4.467-.644 6.013Zm4.122-2.982c-.916-.908-2.315-3.384-.575-6.02 1.255 1.132 3.126 3.92.575 6.02Zm3.421-3.577c-1.156-.574-3.262-2.484-2.439-5.534 1.547.68 4.2 2.738 2.439 5.534Zm2.044-5.133c-1.27-.229-3.825-1.476-3.885-4.634 1.675.221 4.797 1.458 3.885 4.634Zm.729-5.416c-1.288.079-4.066-.527-4.874-3.58 1.68-.182 5.006.278 4.874 3.58Zm-.812-5.086c-1.205.461-4.037.715-5.722-1.956 1.548-.677 4.86-1.234 5.722 1.956Zm-2.152-4.995c-1.052.748-3.731 1.7-6.03-.466 1.33-1.042 4.398-2.407 6.03.466Zm-2.432-3.713c-1.29-.041-3.999-.902-4.52-4.017 1.69-.026 4.958.742 4.52 4.017Zm-4.21 32.322c1.172-.54 3.981-.98 5.839 1.574-1.5.778-4.767 1.552-5.839-1.574Zm4.725-2.352c1.172.539 3.981.98 5.838-1.575-1.499-.778-4.767-1.552-5.838 1.574Zm3.531-4.907c1.215.436 4.051.63 5.68-2.075-1.562-.645-4.884-1.132-5.68 2.075Zm1.762-5.413c1.284.125 4.082-.38 4.998-3.403-1.672-.242-5.012.1-4.998 3.404Zm.983-5.052c1.231-.388 3.607-1.948 3.268-5.088-1.634.43-4.574 2.052-3.268 5.088Zm-.555-5.983c1.021-.79 2.71-3.077 1.304-5.905-1.383.97-3.58 3.51-1.304 5.905Zm-2.055-5.758c.771-1.035 1.784-3.692-.329-6.039-1.072 1.306-2.507 4.342.329 6.039Z"/></svg>