<svg width="40" height="40" viewBox="0 0 40 40" fill="none" xmlns="http://www.w3.org/2000/svg">
<path d="M20 20H20.0169M35 13.3333V26.6667C35 28.5076 33.5076 30 31.6667 30H8.33333C6.49238 30 5 28.5076 5 26.6667V13.3333C5 11.4924 6.49238 10 8.33333 10H31.6667C33.5076 10 35 11.4924 35 13.3333ZM11.7709 19.6403C12.4843 18.4938 15.063 15 20 15C24.937 15 27.5157 18.4938 28.2291 19.6403C28.3681 19.8638 28.3681 20.1362 28.2291 20.3597C27.5157 21.5062 24.937 25 20 25C15.063 25 12.4843 21.5062 11.7709 20.3597C11.6319 20.1362 11.6319 19.8638 11.7709 19.6403Z" stroke="currentColor" stroke-width="2.5" stroke-linecap="round" stroke-linejoin="round"/>
</svg>
