<svg xmlns="http://www.w3.org/2000/svg" width="32" height="32" fill="none"><path fill="#fff" fill-rule="evenodd" d="M2.667 10.667a4 4 0 0 1 4-4h18.666a4 4 0 0 1 4 4v10.666a4 4 0 0 1-4 4H6.667a4 4 0 0 1-4-4V10.667ZM10.833 16c.726.98 2.383 2.667 5.167 2.667S20.441 16.98 21.167 16c-.726-.98-2.383-2.667-5.167-2.667S11.559 15.02 10.833 16Zm-2.548-.992c.647-1.041 3.06-4.341 7.715-4.341 4.655 0 7.067 3.3 7.715 4.341.38.61.38 1.374 0 1.984-.648 1.041-3.06 4.341-7.715 4.341-4.655 0-7.068-3.3-7.715-4.34a1.871 1.871 0 0 1 0-1.985Zm6.382.992c0-.736.597-1.333 1.333-1.333h.014a1.333 1.333 0 0 1 0 2.666H16A1.333 1.333 0 0 1 14.667 16Z" clip-rule="evenodd"/></svg>