<svg xmlns="http://www.w3.org/2000/svg" width="32" height="32" fill="none"><path stroke="#fff" stroke-linecap="round" stroke-linejoin="round" stroke-width="1.5" d="M25.19 10.58c2.416 4.091 1.867 9.448-1.648 12.962a10.647 10.647 0 0 1-8.716 3.06M6.81 21.42c-2.416-4.09-1.867-9.447 1.648-12.962a10.647 10.647 0 0 1 8.716-3.06m8.254 4.946a2.667 2.667 0 1 1-3.771-3.771 2.667 2.667 0 0 1 3.771 3.771ZM10.343 25.428a2.667 2.667 0 1 1-3.771-3.771 2.667 2.667 0 0 1 3.771 3.771Zm7.543-7.543a2.667 2.667 0 1 1-3.772-3.77 2.667 2.667 0 0 1 3.772 3.77Z"/></svg>