<svg width="40" height="40" viewBox="0 0 40 40" fill="none" xmlns="http://www.w3.org/2000/svg">
<path d="M6.66669 15V31.6667C6.66669 33.5076 8.15907 35 10 35H30C31.841 35 33.3334 33.5076 33.3334 31.6667V15M6.66669 15V11.6667C6.66669 9.82572 8.15907 8.33333 10 8.33333H13.3334M6.66669 15H33.3334M33.3334 15V11.6667C33.3334 9.82572 31.841 8.33333 30 8.33333H26.6667M26.6667 8.33333V5M26.6667 8.33333H13.3334M13.3334 8.33333V5M20 21.6667H20.0167M13.3334 21.6667H13.35M26.6667 21.6667H26.6834M20 28.3333H20.0167M13.3334 28.3333H13.35" stroke="black" stroke-width="2.5" stroke-linecap="round" stroke-linejoin="round"/>
</svg>
