<svg width="40" height="40" viewBox="0 0 40 40" fill="none" xmlns="http://www.w3.org/2000/svg">
<path d="M16.6666 28.3333H19.1666C20.5474 28.3333 21.6666 27.214 21.6666 25.8333C21.6666 24.4526 20.5474 23.3333 19.1666 23.3333H14.1666C12.7859 23.3333 11.6666 22.214 11.6666 20.8333C11.6666 19.4526 12.7859 18.3333 14.1666 18.3333H16.6666M16.6666 28.3333H11.6666M16.6666 28.3333V30M21.6666 18.3333H16.6666M16.6666 18.3333V16.6667M11.3404 10.8333C13.5042 6.39294 18.0614 3.33334 23.3333 3.33334C30.6971 3.33334 36.6666 9.30287 36.6666 16.6667C36.6666 21.9385 33.607 26.4958 29.1666 28.6596M30 23.3333C30 30.6971 24.0304 36.6667 16.6666 36.6667C9.30285 36.6667 3.33331 30.6971 3.33331 23.3333C3.33331 15.9695 9.30285 10 16.6666 10C24.0304 10 30 15.9695 30 23.3333Z" stroke="black" stroke-width="2.5" stroke-linecap="round" stroke-linejoin="round"/>
</svg>
