<svg xmlns="http://www.w3.org/2000/svg" width="32" height="32" fill="none"><path fill="#fff" d="M2.667 8a4 4 0 0 1 4-4h18.666a4 4 0 0 1 4 4v2H2.667V8Z"/><path fill="#fff" fill-rule="evenodd" d="M2.667 11.333h26.666V24a4 4 0 0 1-4 4H6.667a4 4 0 0 1-4-4V11.333Zm15.385 3.576a1.333 1.333 0 0 0-2.622-.485l-1.482 8a1.333 1.333 0 0 0 2.622.485l1.482-8Zm-6.442 2.034a1.333 1.333 0 1 0-1.886-1.886l-2.667 2.667c-.52.52-.52 1.365 0 1.886l2.667 2.666a1.333 1.333 0 0 0 1.886-1.886l-1.724-1.723 1.724-1.724Zm10.666-1.886a1.333 1.333 0 1 0-1.886 1.886l1.698 1.698-1.82 1.724a1.333 1.333 0 1 0 1.834 1.936l2.815-2.666a1.334 1.334 0 0 0 .026-1.911l-2.667-2.667Z" clip-rule="evenodd"/></svg>