<svg width="40" height="40" viewBox="0 0 40 40" fill="none" xmlns="http://www.w3.org/2000/svg">
<path d="M11.6667 11.6667H11.6833M5 8.33333V18.6193C5 19.5033 5.35119 20.3512 5.97631 20.9763L19.3096 34.3096C20.6114 35.6114 22.7219 35.6114 24.0237 34.3096L34.3096 24.0237C35.6114 22.7219 35.6114 20.6114 34.3096 19.3096L20.9763 5.97631C20.3512 5.35119 19.5033 5 18.6193 5H8.33333C6.49238 5 5 6.49238 5 8.33333ZM21.6667 28.3333L26.0083 23.9917C27.2924 22.7076 27.2924 20.6257 26.0083 19.3416C25.4297 18.7631 24.5138 18.698 23.8593 19.1889L23.2125 19.674C22.2964 20.361 21.0369 20.361 20.1209 19.674L20.0849 19.647C19.0799 18.8932 17.6735 18.9932 16.7851 19.8816C15.7992 20.8674 15.7992 22.4659 16.7851 23.4518L21.6667 28.3333Z" stroke="currentColor" stroke-width="2.5" stroke-linecap="round" stroke-linejoin="round"/>
</svg>
