<svg xmlns="http://www.w3.org/2000/svg" width="32" height="32" fill="none"><path fill="#fff" fill-rule="evenodd" d="M2.667 16C2.667 8.636 8.637 2.667 16 2.667c7.364 0 13.333 5.97 13.333 13.333 0 7.364-5.97 13.333-13.333 13.333-7.364 0-13.333-5.97-13.333-13.333ZM16 10.667A2.667 2.667 0 1 0 16 16a2.667 2.667 0 0 0 0-5.333Zm3.842 6.365a5.333 5.333 0 1 0-7.684 0c-.21.122-.413.253-.606.393-1.216.88-2.219 2.237-2.219 3.908a1.333 1.333 0 1 0 2.667 0c0-.537.331-1.18 1.115-1.748.772-.56 1.832-.918 2.885-.918 1.053 0 2.112.359 2.885.918.784.568 1.115 1.21 1.115 1.748a1.333 1.333 0 1 0 2.667 0c0-1.67-1.003-3.028-2.219-3.908a7.058 7.058 0 0 0-.606-.393Z" clip-rule="evenodd"/></svg>