<svg xmlns="http://www.w3.org/2000/svg" width="32" height="32" fill="none"><path fill="#fff" d="M16.943 3.057a1.333 1.333 0 0 0-1.886 0c-1.079 1.08-2.63 1.721-4.243 2.054-1.604.33-3.13.327-4 .23a1.333 1.333 0 0 0-1.48 1.326v12c0 1.733.757 3.264 1.739 4.527.983 1.264 2.261 2.35 3.485 3.224a29.16 29.16 0 0 0 3.365 2.055 28.626 28.626 0 0 0 1.54.748c.467.201.635.19 1.098-.011l.089-.04a28.626 28.626 0 0 0 1.428-.698 29.16 29.16 0 0 0 3.364-2.054c1.224-.874 2.502-1.96 3.485-3.224.982-1.262 1.74-2.794 1.74-4.527v-12a1.333 1.333 0 0 0-1.48-1.325c-.872.096-2.397.1-4-.231-1.614-.333-3.165-.974-4.244-2.054Z"/></svg>