<svg width="40" height="40" viewBox="0 0 40 40" fill="none" xmlns="http://www.w3.org/2000/svg">
<path d="M13.3333 26.6667L26.6666 13.3333M36.6666 20C36.6666 29.2047 29.2047 36.6667 20 36.6667C10.7952 36.6667 3.33331 29.2047 3.33331 20C3.33331 10.7953 10.7952 3.33334 20 3.33334C29.2047 3.33334 36.6666 10.7953 36.6666 20ZM26.6666 25C26.6666 25.9205 25.9205 26.6667 25 26.6667C24.0795 26.6667 23.3333 25.9205 23.3333 25C23.3333 24.0795 24.0795 23.3333 25 23.3333C25.9205 23.3333 26.6666 24.0795 26.6666 25ZM16.6666 15C16.6666 15.9205 15.9205 16.6667 15 16.6667C14.0795 16.6667 13.3333 15.9205 13.3333 15C13.3333 14.0795 14.0795 13.3333 15 13.3333C15.9205 13.3333 16.6666 14.0795 16.6666 15Z" stroke="black" stroke-width="2.5" stroke-linecap="round" stroke-linejoin="round"/>
</svg>
