<svg width="40" height="40" viewBox="0 0 40 40" fill="none" xmlns="http://www.w3.org/2000/svg">
<path d="M35 28.3333H11.6667C9.82572 28.3333 8.33333 26.8409 8.33333 25V8.33333C8.33333 6.49238 6.84095 5 5 5M20 6.66667H18.3333C16.4924 6.66667 15 8.15905 15 10V20C15 21.8409 16.4924 23.3333 18.3333 23.3333H28.3333C30.1743 23.3333 31.6667 21.8409 31.6667 20V10C31.6667 8.15905 30.1743 6.66667 28.3333 6.66667H26.6667M20 6.66667H26.6667M20 6.66667V11.6667H26.6667V6.66667M20 16.6667H23.3333M18.3333 31.6667C18.3333 33.5076 16.8409 35 15 35C13.1591 35 11.6667 33.5076 11.6667 31.6667C11.6667 29.8257 13.1591 28.3333 15 28.3333C16.8409 28.3333 18.3333 29.8257 18.3333 31.6667ZM33.3333 31.6667C33.3333 33.5076 31.8409 35 30 35C28.1591 35 26.6667 33.5076 26.6667 31.6667C26.6667 29.8257 28.1591 28.3333 30 28.3333C31.8409 28.3333 33.3333 29.8257 33.3333 31.6667Z" stroke="black" stroke-width="2.5" stroke-linecap="round" stroke-linejoin="round"/>
</svg>
