<svg width="40" height="40" viewBox="0 0 40 40" fill="none" xmlns="http://www.w3.org/2000/svg">
<path d="M31.488 13.226C34.5078 18.339 33.8212 25.035 29.428 29.4281C26.4507 32.4055 22.4155 33.6804 18.5323 33.2528M8.51187 26.7741C5.49209 21.6611 6.17876 14.9651 10.5719 10.572C13.5492 7.59458 17.5844 6.31968 21.4676 6.74725M31.7851 12.9289C30.4834 14.2307 28.3728 14.2307 27.0711 12.9289C25.7693 11.6272 25.7693 9.51663 27.0711 8.21489C28.3728 6.91314 30.4834 6.91314 31.7851 8.21489C33.0869 9.51663 33.0869 11.6272 31.7851 12.9289ZM12.9289 31.7851C11.6272 33.0869 9.51664 33.0869 8.21489 31.7851C6.91315 30.4834 6.91315 28.3728 8.21489 27.0711C9.51664 25.7693 11.6272 25.7693 12.9289 27.0711C14.2307 28.3728 14.2307 30.4834 12.9289 31.7851ZM22.357 22.357C21.0553 23.6588 18.9447 23.6588 17.643 22.357C16.3412 21.0553 16.3412 18.9447 17.643 17.643C18.9447 16.3412 21.0553 16.3412 22.357 17.643C23.6588 18.9447 23.6588 21.0553 22.357 22.357Z" stroke="black" stroke-width="2.5" stroke-linecap="round" stroke-linejoin="round"/>
</svg>
