<svg width="40" height="40" viewBox="0 0 40 40" fill="none" xmlns="http://www.w3.org/2000/svg">
<path d="M35 11.6667C35 15.3486 28.2843 18.3333 20 18.3333C11.7157 18.3333 5 15.3486 5 11.6667M35 11.6667C35 7.98477 28.2843 5 20 5C11.7157 5 5 7.98477 5 11.6667M35 11.6667V20M5 11.6667V20M35 20C35 23.6819 28.2843 26.6667 20 26.6667C11.7157 26.6667 5 23.6819 5 20M35 20V28.3333C35 32.0152 28.2843 35 20 35C11.7157 35 5 32.0152 5 28.3333V20" stroke="currentColor" stroke-width="2.5" stroke-linecap="round" stroke-linejoin="round"/>
</svg>
