<svg xmlns="http://www.w3.org/2000/svg" width="32" height="32" fill="none"><path fill="#fff" fill-rule="evenodd" d="M5.333 6.667a4 4 0 0 1 4-4h13.334a4 4 0 0 1 4 4v6.666H5.333V6.667Zm8 2.666c0-.736.597-1.333 1.334-1.333h2.666a1.333 1.333 0 1 1 0 2.667h-2.666a1.333 1.333 0 0 1-1.334-1.334Zm-8 6.667v6.667A4 4 0 0 0 7.42 26.18l-.612 1.224a1.333 1.333 0 0 0 2.386 1.192l.964-1.93h11.686l.964 1.93a1.333 1.333 0 0 0 2.386-1.192l-.612-1.224a4 4 0 0 0 2.086-3.513V16H5.333Zm8 4c0-.736.597-1.333 1.334-1.333h2.666a1.333 1.333 0 0 1 0 2.666h-2.666A1.333 1.333 0 0 1 13.333 20Z" clip-rule="evenodd"/></svg>