<svg xmlns="http://www.w3.org/2000/svg" width="32" height="32" fill="none"><path fill="#fff" fill-rule="evenodd" d="M13.667 26.667a1 1 0 1 0 2 0c0-1.84.56-4.623 2.211-6.916 1.615-2.243 4.314-4.084 8.789-4.084a1 1 0 1 0 0-2c-1.84 0-4.623-.56-6.916-2.212-2.243-1.615-4.084-4.314-4.084-8.788a1 1 0 1 0-2 0c0 1.84-.56 4.622-2.212 6.915-1.615 2.243-4.314 4.085-8.788 4.085a1 1 0 1 0 0 2c1.84 0 4.622.56 6.915 2.211 2.243 1.615 4.085 4.314 4.085 8.789Zm10.666 2.666a1 1 0 1 0 2 0c0-.506.16-1.288.612-1.915.415-.576 1.114-1.085 2.388-1.085a1 1 0 1 0 0-2c-.506 0-1.288-.16-1.915-.611-.576-.415-1.085-1.114-1.085-2.389a1 1 0 1 0-2 0c0 1.275-.508 1.974-1.084 2.389-.627.451-1.409.611-1.916.611a1 1 0 1 0 0 2c1.275 0 1.974.509 2.389 1.085.451.627.611 1.409.611 1.915Z" clip-rule="evenodd"/></svg>