<svg xmlns="http://www.w3.org/2000/svg" width="32" height="32" fill="none"><path fill="#fff" fill-rule="evenodd" d="M8 8a4 4 0 0 1 4-4h13.333a4 4 0 0 1 4 4v16a4 4 0 0 1-4 4H6.667a4 4 0 0 1-4-4v-5.562a4 4 0 0 1 1.171-2.828l4-4a4 4 0 0 1 5.657 0l4 4a4 4 0 0 1 1.172 2.828v6.895H20v-6.895a5.333 5.333 0 0 0-1.562-3.771l-4-4A5.336 5.336 0 0 0 8 9.817V8Zm8 2.667c0-.737.597-1.334 1.333-1.334h.014a1.333 1.333 0 0 1 0 2.667h-.014A1.333 1.333 0 0 1 16 10.667Zm5.333 0c0-.737.597-1.334 1.334-1.334h.013a1.333 1.333 0 1 1 0 2.667h-.013a1.333 1.333 0 0 1-1.334-1.333Zm0 5.333c0-.736.597-1.333 1.334-1.333h.013a1.333 1.333 0 1 1 0 2.666h-.013A1.333 1.333 0 0 1 21.333 16Zm0 5.333c0-.736.597-1.333 1.334-1.333h.013a1.333 1.333 0 1 1 0 2.667h-.013a1.333 1.333 0 0 1-1.334-1.334Zm-9.333 0a1.333 1.333 0 0 0-2.667 0v4H12v-4Z" clip-rule="evenodd"/></svg>