<svg width="40" height="40" viewBox="0 0 40 40" fill="none" xmlns="http://www.w3.org/2000/svg">
<path d="M26.6667 8.33333L24.3097 5.97631C23.6845 5.35119 22.8367 5 21.9526 5H15M11.6667 5H15M15 5V11.6667M15 11.6667C8.33335 11.6667 6.66669 17.2222 6.66669 20V31.6667C6.66669 33.5076 8.15907 35 10 35H20C21.841 35 23.3334 33.5076 23.3334 31.6667V30M15 11.6667C16.8113 11.6667 19.8037 12.3753 21.6667 14.7167M15 20V23.3333M15 23.3333V26.6667M15 23.3333H18.3334M15 23.3333H11.6667M28.3334 13.3333L24.6753 18.9728C23.7995 20.3231 23.2165 21.9472 23.7847 23.4531C24.398 25.0789 25.7306 26.6667 28.3334 26.6667C30.9361 26.6667 32.2687 25.0789 32.8821 23.4531C33.4502 21.9472 32.8673 20.3231 31.9914 18.9728L28.3334 13.3333Z" stroke="currentColor" stroke-width="2.5" stroke-linecap="round" stroke-linejoin="round"/>
</svg>
