<svg width="40" height="40" viewBox="0 0 40 40" fill="none" xmlns="http://www.w3.org/2000/svg">
<path d="M13.3333 5C15.5556 5 20 6.33333 20 11.6667M23.0589 12.0224L23.5474 11.813C27.7652 10.0054 32.5875 12.4769 33.5829 16.9565C34.4848 21.0151 33.6197 25.2658 31.2031 28.649L29.3997 31.1737C27.8259 33.3771 24.8829 34.1081 22.4609 32.8971C20.9117 32.1225 19.0883 32.1225 17.5391 32.8971C15.1171 34.1081 12.1741 33.3771 10.6003 31.1737L8.7969 28.649C6.38033 25.2658 5.51517 21.0151 6.41709 16.9565C7.41254 12.4769 12.2348 10.0054 16.4526 11.813L16.9411 12.0224C18.8944 12.8595 21.1056 12.8595 23.0589 12.0224Z" stroke="black" stroke-width="2.5" stroke-linecap="round" stroke-linejoin="round"/>
</svg>
