<svg xmlns="http://www.w3.org/2000/svg" width="32" height="32" fill="none"><path stroke="#fff" stroke-linecap="round" stroke-linejoin="round" stroke-width="2" d="M9.333 12V8A2.667 2.667 0 0 1 12 5.333h13.333A2.667 2.667 0 0 1 28 8v16a2.667 2.667 0 0 1-2.667 2.667h-8m0 0v-8.23c0-.706-.28-1.385-.78-1.885l-4-4a2.667 2.667 0 0 0-3.772 0l-4 4c-.5.5-.781 1.179-.781 1.886V24a2.667 2.667 0 0 0 2.667 2.667h4m6.666 0h-6.666m0 0v-5.334M22.68 10.667h-.013m-5.32 0h-.014M22.68 16h-.013m.013 5.333h-.013"/></svg>