<svg width="40" height="40" viewBox="0 0 40 40" fill="none" xmlns="http://www.w3.org/2000/svg">
<path d="M11.6667 5H8.33333C6.49238 5 5 6.49238 5 8.33333V11.6667M5 28.3333V31.6667C5 33.5076 6.49238 35 8.33333 35H11.6667M28.3333 35H31.6667C33.5076 35 35 33.5076 35 31.6667V28.3333M35 11.6667V8.33333C35 6.49238 33.5076 5 31.6667 5H28.3333M10 15L20 10L30 15M10 15V25L20 30M10 15L20 20M20 20L30 15M20 20V30M30 15V25L20 30" stroke="currentColor" stroke-width="2.5" stroke-linecap="round" stroke-linejoin="round"/>
</svg>
