<svg xmlns="http://www.w3.org/2000/svg" width="32" height="32" fill="none"><path fill="#fff" d="M17.219 4.792a1.333 1.333 0 0 0-2.437 0l-2.667 6a1.333 1.333 0 0 0 .622 1.734l2.667 1.333a1.33 1.33 0 0 0 1.192 0l2.667-1.333a1.333 1.333 0 0 0 .622-1.734l-2.666-6Z"/><path fill="#fff" d="M1.867 8.933a1.333 1.333 0 0 1 1.486-.076L16 16.445l12.647-7.588a1.333 1.333 0 0 1 1.977 1.48l-3.906 14.972-2.88-5.28a1.333 1.333 0 0 0-2.342 1.276l3.072 5.63a31.9 31.9 0 0 1-1.64.372A35.63 35.63 0 0 1 16 28a35.64 35.64 0 0 1-8.568-1.064l3.072-5.63a1.333 1.333 0 0 0-2.341-1.278l-2.88 5.281-3.906-14.972a1.333 1.333 0 0 1 .49-1.404Z"/></svg>