<svg xmlns="http://www.w3.org/2000/svg" width="32" height="32" fill="none"><path fill="#fff" d="M13.333 17.333a2.667 2.667 0 1 1 5.334 0 2.667 2.667 0 0 1-5.334 0Z"/><path fill="#fff" fill-rule="evenodd" d="M13.427 4A4 4 0 0 0 10.1 5.781L9.016 7.406A1.335 1.335 0 0 1 7.906 8h-1.24a4 4 0 0 0-4 4v12a4 4 0 0 0 4 4h18.667a4 4 0 0 0 4-4V12a4 4 0 0 0-4-4h-1.24c-.445 0-.861-.223-1.109-.594l-1.083-1.625A4 4 0 0 0 18.573 4h-5.146ZM16 12a5.333 5.333 0 1 0 0 10.667A5.333 5.333 0 0 0 16 12Z" clip-rule="evenodd"/></svg>