<svg xmlns="http://www.w3.org/2000/svg" width="32" height="32" fill="none"><path fill="#fff" d="M4 8a4 4 0 0 1 4-4h16a4 4 0 0 1 4 4v10H4V8Z"/><path fill="#fff" fill-rule="evenodd" d="M3.51 19.333h24.98l1.439 2.878c1.33 2.66-.604 5.789-3.578 5.789H5.648c-2.973 0-4.907-3.13-3.577-5.789l1.439-2.878Zm4.49 2A1.333 1.333 0 0 0 8 24h.013a1.333 1.333 0 0 0 0-2.667H8Zm4 0A1.333 1.333 0 0 0 12 24h.013a1.333 1.333 0 1 0 0-2.667H12Zm4 0A1.333 1.333 0 0 0 16 24h.013a1.333 1.333 0 1 0 0-2.667H16Zm4 0A1.333 1.333 0 0 0 20 24h.013a1.333 1.333 0 1 0 0-2.667H20Zm4 0A1.333 1.333 0 0 0 24 24h.013a1.333 1.333 0 1 0 0-2.667H24Z" clip-rule="evenodd"/></svg>