<svg width="40" height="40" viewBox="0 0 40 40" fill="none" xmlns="http://www.w3.org/2000/svg">
<path d="M11.6667 15V10C11.6667 8.15905 13.1591 6.66667 15 6.66667H31.6667C33.5076 6.66667 35 8.15905 35 10V30C35 31.8409 33.5076 33.3333 31.6667 33.3333H21.6667M21.6667 33.3333V23.0474C21.6667 22.1633 21.3155 21.3155 20.6904 20.6904L15.6904 15.6904C14.3886 14.3886 12.2781 14.3886 10.9763 15.6904L5.97631 20.6904C5.35119 21.3155 5 22.1633 5 23.0474V30C5 31.8409 6.49238 33.3333 8.33333 33.3333H13.3333M21.6667 33.3333H13.3333M13.3333 33.3333V26.6667M28.35 13.3333H28.3333M21.6833 13.3333H21.6667M28.35 20H28.3333M28.35 26.6667H28.3333" stroke="currentColor" stroke-width="2.5" stroke-linecap="round" stroke-linejoin="round"/>
</svg>
