<svg xmlns="http://www.w3.org/2000/svg" width="32" height="32" fill="none"><path stroke="#fff" stroke-linecap="round" stroke-linejoin="round" stroke-width="2" d="M9.333 9.333h.014M4 6.667v8.228c0 .708.28 1.386.781 1.886l10.667 10.667a2.667 2.667 0 0 0 3.771 0l8.229-8.229a2.667 2.667 0 0 0 0-3.771L16.78 4.78c-.5-.5-1.178-.781-1.886-.781H6.667A2.667 2.667 0 0 0 4 6.667Zm13.333 16 3.474-3.474a2.63 2.63 0 0 0 0-3.72 1.315 1.315 0 0 0-1.72-.122l-.517.388a2.06 2.06 0 0 1-2.473 0l-.029-.021a2.02 2.02 0 0 0-2.64 3.043l3.905 3.906Z"/></svg>