<svg xmlns="http://www.w3.org/2000/svg" width="32" height="32" fill="none"><path fill="#fff" d="M5.01 5.86c1.841-2.567 4.914-4.527 9.659-4.527 4.389 0 7.45 1.148 9.397 3.33 1.917 2.146 2.522 5.04 2.597 8.01.006.236.059.45.148.63l1.605 3.208a2.89 2.89 0 0 1-1.598 4.01.224.224 0 0 0-.147.21v.707a3.9 3.9 0 0 1-3.701 3.895h-3.637a.667.667 0 1 0 0 1.334h2.003v2.672c0 .737-.596 1.334-1.333 1.334H9.334a1.333 1.333 0 0 1-1.333-1.333v-4.958c0-.429-.234-.92-.718-1.338-3.205-2.774-4.616-7.078-4.616-9.708 0-2.018.553-4.98 2.343-7.476Z"/></svg>