<svg xmlns="http://www.w3.org/2000/svg" width="32" height="32" fill="none"><path fill="#fff" fill-rule="evenodd" d="M1.333 18.667c0-6.628 5.373-12 12-12 6.628 0 12 5.372 12 12 0 6.627-5.372 12-12 12-6.627 0-12-5.373-12-12Zm12-6.667c.737 0 1.334.597 1.334 1.333h2.666a1.333 1.333 0 1 1 0 2.667h-6a.667.667 0 0 0 0 1.333h4a3.333 3.333 0 1 1 0 6.667h-.666A1.333 1.333 0 0 1 12 24H9.333a1.333 1.333 0 1 1 0-2.667h6a.667.667 0 0 0 0-1.333h-4a3.333 3.333 0 0 1 0-6.667H12c0-.736.597-1.333 1.333-1.333Z" clip-rule="evenodd"/><path fill="#fff" d="M27.795 21.123a11.952 11.952 0 0 0 2.872-7.79c0-6.627-5.373-12-12-12a11.953 11.953 0 0 0-7.79 2.872C11.676 4.07 12.497 4 13.333 4 21.433 4 28 10.566 28 18.667c0 .836-.07 1.657-.205 2.456Z"/></svg>