<svg width="40" height="40" viewBox="0 0 40 40" fill="none" xmlns="http://www.w3.org/2000/svg">
<path d="M16.6667 10C16.6667 11.841 15.1743 13.3333 13.3333 13.3333C11.4924 13.3333 10 11.841 10 10C10 8.15905 11.4924 6.66667 13.3333 6.66667C15.1743 6.66667 16.6667 8.15905 16.6667 10ZM16.6667 10H35M16.6667 30C16.6667 31.8409 15.1743 33.3333 13.3333 33.3333C11.4924 33.3333 10 31.8409 10 30C10 28.1591 11.4924 26.6667 13.3333 26.6667C15.1743 26.6667 16.6667 28.1591 16.6667 30ZM16.6667 30H35M23.3333 20C23.3333 21.841 24.8257 23.3333 26.6667 23.3333C28.5076 23.3333 30 21.841 30 20C30 18.1591 28.5076 16.6667 26.6667 16.6667C24.8257 16.6667 23.3333 18.1591 23.3333 20ZM23.3333 20H5M8.33333 10H5M8.33333 30H5M31.6667 20H35" stroke="black" stroke-width="2.5" stroke-linecap="round" stroke-linejoin="round"/>
</svg>
