<svg xmlns="http://www.w3.org/2000/svg" width="32" height="32" fill="none"><path fill="#fff" fill-rule="evenodd" d="M16 2.667C8.636 2.667 2.667 8.637 2.667 16c0 2.39.63 4.638 1.734 6.58l-1.666 4.998a1.333 1.333 0 0 0 1.687 1.687l4.998-1.666A13.279 13.279 0 0 0 16 29.333c7.364 0 13.333-5.97 13.333-13.333 0-7.364-5.97-13.333-13.333-13.333Zm-5.333 8a1.333 1.333 0 0 0 0 2.666h10.666a1.333 1.333 0 1 0 0-2.666H10.667Zm0 4a1.333 1.333 0 0 0 0 2.666h10.666a1.333 1.333 0 1 0 0-2.666H10.667Zm0 4a1.333 1.333 0 0 0 0 2.666h4a1.333 1.333 0 1 0 0-2.666h-4Z" clip-rule="evenodd"/></svg>