<svg xmlns="http://www.w3.org/2000/svg" width="32" height="32" fill="none"><g fill="#fff" clip-path="url(#a)"><path d="m23.28 16.072 4.642-2.68a3.333 3.333 0 0 0-3.334-5.773l-16.03 9.254c-.437.253-.98.237-1.4-.042l-1.113-.734a1.333 1.333 0 0 0-1.402-.042L2.49 17.298a1.333 1.333 0 0 0-.132 2.223l5.808 4.345a1.335 1.335 0 0 0 1.465.087l4.462-2.576a1.333 1.333 0 0 1 1.986.964l.462 3.209a1.333 1.333 0 0 0 1.987.964l2.358-1.361c.35-.203.59-.554.651-.954l1.093-7.173c.06-.4.3-.752.651-.954Z"/><path d="m11.22 13.797 5.485-3.166-3.985-1.703A1.333 1.333 0 0 0 11.53 9l-2.174 1.255a1.333 1.333 0 0 0-.068 2.267l1.932 1.275Z"/></g><defs><clipPath id="a"><path fill="#fff" d="M0 0h32v32H0z"/></clipPath></defs></svg>