<svg width="40" height="40" viewBox="0 0 40 40" fill="none" xmlns="http://www.w3.org/2000/svg">
<path d="M28.3333 21.6667L28.3333 8.33333C28.3333 6.49238 26.8409 5 25 5L21.6667 5M21.6667 5L11.6667 5C9.82571 5 8.33333 6.49238 8.33333 8.33333L8.33333 28.3333C8.33333 30.1743 9.82571 31.6667 11.6667 31.6667H23.3333M21.6667 5L21.6667 22.5M15 11.6667V16.6667M35 36.6667V24.8346C35 21.7392 33.7698 18.7706 31.5804 16.5825L28.3292 13.3333V24.3114C28.3292 25.796 26.5345 26.5397 25.4844 25.4903L23.3261 23.3333C22.4923 22.5 20.491 22 19.1569 23.3333C17.8227 24.6667 18.323 26.6667 19.1569 27.5L28.3292 36.6667" stroke="black" stroke-width="2.5" stroke-linecap="round" stroke-linejoin="round"/>
</svg>
