<svg width="40" height="40" viewBox="0 0 40 40" fill="none" xmlns="http://www.w3.org/2000/svg">
<path d="M20 5C14.1105 5 9.0137 8.39427 6.5592 13.3333C6.28288 13.8894 6.04004 14.465 5.83333 15.0575M20 5C26.5526 5 32.1238 9.20153 34.1667 15.0575M20 5C17.1242 7.87579 15.2467 11.3718 14.3675 15.0575M20 5C21.976 6.97596 23.4806 9.24474 24.514 11.6667M34.1667 15.0575C34.7066 16.6051 35 18.2683 35 20C35 21.7317 34.7066 23.3949 34.1667 24.9425M34.1667 15.0575H28.3333M5.83333 15.0575C5.29345 16.6051 5 18.2683 5 20C5 21.7317 5.29345 23.3949 5.83333 24.9425M5.83333 15.0575H14.3675M20 35C13.4474 35 7.87619 30.7985 5.83333 24.9425M20 35C26.5526 35 32.1238 30.7985 34.1667 24.9425M20 35C22.8758 32.1242 24.7533 28.6282 25.6325 24.9425M20 35C18.1581 33.1581 16.7258 31.0618 15.7029 28.8242M5.83333 24.9425H10.8333M34.1667 24.9425H25.6325M14.3675 15.0575H21.6667M14.3675 15.0575C13.8507 17.2242 13.6788 19.4564 13.852 21.6667M25.6325 24.9425C26.1493 22.7758 26.3212 20.5436 26.148 18.3333M25.6325 24.9425H19.1667M28.3333 15C28.3333 16.8409 26.8409 18.3333 25 18.3333C23.1591 18.3333 21.6667 16.8409 21.6667 15C21.6667 13.1591 23.1591 11.6667 25 11.6667C26.8409 11.6667 28.3333 13.1591 28.3333 15ZM18.3333 25C18.3333 26.8409 16.8409 28.3333 15 28.3333C13.1591 28.3333 11.6667 26.8409 11.6667 25C11.6667 23.1591 13.1591 21.6667 15 21.6667C16.8409 21.6667 18.3333 23.1591 18.3333 25Z" stroke="black" stroke-width="2.5" stroke-linecap="round" stroke-linejoin="round"/>
</svg>
