<svg xmlns="http://www.w3.org/2000/svg" width="32" height="32" fill="none"><path stroke="#fff" stroke-linecap="round" stroke-linejoin="round" stroke-width="1.5" d="m4 25.333 1.162.93a3.106 3.106 0 0 0 4.137-.229 3.106 3.106 0 0 1 4.218-.162l.24.205a3.447 3.447 0 0 0 4.486 0l.24-.205a3.106 3.106 0 0 1 4.218.162 3.106 3.106 0 0 0 4.137.23l1.162-.93M4 20l5.642-6.77a1.333 1.333 0 0 1 2.049 0l2.542 3.05M28 20 21.143 8.572a1.333 1.333 0 0 0-2.286 0l-4.624 7.707m0 0 3.1 3.721M6 4c-.667 0-2 .4-2 2s1.333 2 2 2 2-.4 2-2-1.333-2-2-2Z"/></svg>