<svg width="40" height="40" viewBox="0 0 40 40" fill="none" xmlns="http://www.w3.org/2000/svg">
<path d="M25.0039 36.6745V30.0062M25.0039 30.0062H28.4633C30.2353 30.0062 31.6718 28.5697 31.6718 26.7977V25.9139C31.6718 25.0953 32.1839 24.3642 32.9532 24.0845C34.0466 23.6868 34.5494 22.4251 34.0291 21.3845L32.0237 17.3736C31.7923 16.9108 31.6751 16.3997 31.6621 15.8824C31.4828 8.7637 28.757 3.33334 18.3359 3.33334C7.53382 3.33334 5 12.1233 5 16.6698C5 19.5301 6.59362 24.4285 10.1948 27.5454C11.0595 28.2938 11.668 29.3344 11.668 30.478V36.6745M25.0039 30.0062H23.3369" stroke="black" stroke-width="2.5" stroke-linecap="round" stroke-linejoin="round"/>
</svg>
