<svg width="40" height="40" viewBox="0 0 40 40" fill="none" xmlns="http://www.w3.org/2000/svg">
<g clip-path="url(#clip0_613_8575)">
<path d="M23.5704 7.12011L21.583 5.08376M23.5704 7.12011V7.12011C20.5688 10.1217 18.9773 14.253 19.1893 18.4925L19.2259 19.2259L25.1185 13.3333L27.4755 10.9763M23.5704 7.12011V7.12011C26.5743 4.11618 30.7007 2.5102 34.9449 2.69311L35.7251 2.72673L29.8325 8.61929L27.4755 10.9763M27.4755 10.9763L38.0821 21.5829" stroke="currentColor" stroke-width="2.5" stroke-linecap="round" stroke-linejoin="round"/>
<path d="M1.66663 18.3333V31.6667L13.3333 38.3333M1.66663 18.3333L13.3333 25M1.66663 18.3333L13.3333 11.6667M13.3333 38.3333V25M13.3333 38.3333L25 31.6667V23.3333M13.3333 25L15 24.0476" stroke="currentColor" stroke-width="2.5" stroke-linecap="round" stroke-linejoin="round"/>
</g>
<defs>
<clipPath id="clip0_613_8575">
<rect width="40" height="40" fill="white"/>
</clipPath>
</defs>
</svg>
