<svg xmlns="http://www.w3.org/2000/svg" width="32" height="32" fill="none"><path fill="#fff" fill-rule="evenodd" d="M21.333 5.333H6.667a4 4 0 0 0-4 4v13.334a4 4 0 0 0 4 4h14.666V24A1.333 1.333 0 1 1 24 24v2.667h1.333a4 4 0 0 0 4-4V9.333a4 4 0 0 0-4-4H24V8a1.333 1.333 0 0 1-2.667 0V5.333ZM24 11.988a1.333 1.333 0 0 0-2.667 0V12A1.333 1.333 0 1 0 24 12v-.013Zm0 4a1.333 1.333 0 0 0-2.667 0V16A1.333 1.333 0 1 0 24 16v-.013Zm0 4a1.333 1.333 0 0 0-2.667 0V20A1.333 1.333 0 1 0 24 20v-.013Z" clip-rule="evenodd"/></svg>