<svg xmlns="http://www.w3.org/2000/svg" width="32" height="32" fill="none"><path fill="#fff" fill-rule="evenodd" d="M20.57 3.39a1.333 1.333 0 0 1 1.535-1.096c1.71.286 3.494 1.258 4.966 2.73s2.444 3.256 2.73 4.965a1.333 1.333 0 0 1-2.63.44c-.18-1.07-.835-2.37-1.985-3.52-1.151-1.15-2.45-1.806-3.52-1.984A1.333 1.333 0 0 1 20.57 3.39Zm-1.903 3.99c0-.736.597-1.333 1.333-1.333 1.52 0 3.063.625 4.243 1.805 1.18 1.18 1.804 2.722 1.804 4.242a1.333 1.333 0 1 1-2.666.001c0-.795-.331-1.664-1.024-2.357-.693-.693-1.562-1.024-2.357-1.024a1.333 1.333 0 0 1-1.333-1.334Z" clip-rule="evenodd"/><path fill="#fff" d="M9.16 6.891c.767-.459 1.76-.197 2.217.625l6.517 11.7a.667.667 0 1 0 1.165-.65l-1.917-3.44c-.465-.835-.18-1.893.602-2.36.767-.46 1.76-.197 2.217.624l1.15 2.065c.75 1.345 1.657 3.373 1.547 5.548-.083 1.623-.738 3.402-2.613 5.084-.537.44-1.15.863-1.848 1.266-3.437 1.984-6.21 2.106-8.391 1.127a6.802 6.802 0 0 1-.301-.143c-1.274-.878-2.158-2.19-2.78-3.307L2.89 18.148c-.465-.835-.18-1.892.602-2.36.767-.459 1.76-.197 2.217.625l2.683 4.817a.667.667 0 0 0 1.165-.648l-5.75-10.323c-.465-.835-.18-1.892.602-2.36.767-.46 1.76-.197 2.217.625l5.75 10.322a.667.667 0 1 0 1.165-.648L8.559 9.25c-.466-.835-.18-1.892.601-2.36Z"/></svg>