<svg width="40" height="40" viewBox="0 0 40 40" fill="none" xmlns="http://www.w3.org/2000/svg">
<path d="M13.3333 30C13.3333 32.7614 11.0947 35 8.33331 35C5.57189 35 3.33331 32.7614 3.33331 30C3.33331 27.2386 5.57189 25 8.33331 25C11.0947 25 13.3333 27.2386 13.3333 30ZM13.3333 30V16.6667M33.3333 28.3333C33.3333 31.0948 31.0947 33.3333 28.3333 33.3333C25.5719 33.3333 23.3333 31.0948 23.3333 28.3333C23.3333 25.5719 25.5719 23.3333 28.3333 23.3333C31.0947 23.3333 33.3333 25.5719 33.3333 28.3333ZM33.3333 28.3333V11.6667M13.3333 16.6667V10L33.3333 5V11.6667M13.3333 16.6667L33.3333 11.6667" stroke="black" stroke-width="2.5" stroke-linecap="round" stroke-linejoin="round"/>
</svg>
