<svg xmlns="http://www.w3.org/2000/svg" width="32" height="32" fill="none"><path stroke="#fff" stroke-linecap="round" stroke-linejoin="round" stroke-width="1.5" d="M2.667 20v-8L8 20v-8M12 20v-4m2.667-4H12v4m0 0h2M18 12h2m2 0h-2m0 0v8"/><path fill="#fff" fill-rule="evenodd" d="M25.442 27.218A3 3 0 0 1 22.7 29H9.3a3 3 0 0 1-2.742-1.782l-2.129-4.79c.372-.27.68-.624.895-1.034l.18.27a3 3 0 0 0 4.496.572A3 3 0 0 0 15 20v-1.17A3.001 3.001 0 0 0 17 16v4a3 3 0 1 0 6 0v-5.17A3.001 3.001 0 0 0 22 9h-4c-.617 0-1.19.186-1.667.505A2.986 2.986 0 0 0 14.667 9H12c-.768 0-1.47.289-2 .764a3 3 0 0 0-4.657.842l-.18-.27a2.995 2.995 0 0 0-.734-.764l2.13-4.79A3 3 0 0 1 9.298 3H22.7a3 3 0 0 1 2.742 1.782l4.444 10a3 3 0 0 1 0 2.436l-4.444 10ZM17 16c0-.462-.105-.9-.291-1.291.094.045.191.085.291.12V16Z" clip-rule="evenodd"/></svg>