<svg width="40" height="40" viewBox="0 0 40 40" fill="none" xmlns="http://www.w3.org/2000/svg">
<path d="M5 13.3333V10C5 8.15905 6.49238 6.66667 8.33333 6.66667H31.6667C33.5076 6.66667 35 8.15905 35 10V13.3333M5 13.3333V23.3333M5 13.3333H20M35 13.3333V23.3333M35 13.3333H20M35 23.3333V30C35 31.8409 33.5076 33.3333 31.6667 33.3333H20M35 23.3333H20M5 23.3333V30C5 31.8409 6.49238 33.3333 8.33333 33.3333H20M5 23.3333H20M20 13.3333V23.3333M20 23.3333V33.3333" stroke="currentColor" stroke-width="2.5" stroke-linecap="round" stroke-linejoin="round"/>
</svg>
