<svg xmlns="http://www.w3.org/2000/svg" width="32" height="32" fill="none"><path stroke="#fff" stroke-linecap="round" stroke-linejoin="round" stroke-width="2" d="M16 4a12 12 0 0 0-11.333 8.046M16 4c5.242 0 9.699 3.361 11.333 8.046M16 4a16.892 16.892 0 0 0-4.506 8.046M16 4a16.924 16.924 0 0 1 3.611 5.333m7.722 2.713C27.765 13.284 28 14.615 28 16c0 1.385-.235 2.716-.667 3.954m0-7.908h-4.666m-18 0A11.982 11.982 0 0 0 4 16c0 1.385.235 2.716.667 3.954m0-7.908h6.827M16 28c-5.242 0-9.7-3.361-11.333-8.046M16 28c5.242 0 9.699-3.361 11.333-8.046M16 28c2.3-2.3 3.803-5.098 4.506-8.046M16 28a16.935 16.935 0 0 1-3.438-4.94m-7.895-3.106h4m18.666 0h-6.827m-9.012-7.908h5.84m-5.84 0a17.056 17.056 0 0 0-.412 5.287m9.424 2.621c.413-1.733.55-3.52.412-5.287m-.412 5.287h-5.173M22.667 12a2.667 2.667 0 1 1-5.334 0 2.667 2.667 0 0 1 5.334 0Zm-8 8a2.667 2.667 0 1 1-5.334 0 2.667 2.667 0 0 1 5.334 0Z"/></svg>