<svg xmlns="http://www.w3.org/2000/svg" width="32" height="32" fill="none"><path fill="#fff" fill-rule="evenodd" d="M22.774 6.642c-1.53-2.539-3.785-3.88-6.437-3.975-1.93.015-3.399.454-4.711 1.374-1.63 1.14-2.693 2.69-3.245 4.588-.393 1.351-.526 2.723-.188 4.112.322 1.324.904 2.54 1.578 3.713 1.382 2.407 3.074 4.593 4.891 6.684l.05.058c.167.193.337.39.54.538.573.424 1.32.287 1.842-.304a50.777 50.777 0 0 0 3.46-4.35c1.025-1.455 1.972-2.956 2.675-4.598.418-.977.747-1.983.77-3.055.04-1.705-.34-3.319-1.224-4.785Zm-9.439 4.002a2.661 2.661 0 0 1 2.686-2.642c1.466.009 2.66 1.204 2.654 2.657-.006 1.495-1.216 2.679-2.726 2.666-1.434-.013-2.627-1.236-2.614-2.681Z" clip-rule="evenodd"/><path fill="#fff" d="M9.082 28.404c2.26.657 4.577.886 6.924.93.285-.017.57-.032.855-.047.632-.034 1.265-.067 1.896-.12 1.715-.146 3.398-.463 5.025-1.037 1.107-.39 2.16-.886 3.033-1.695.66-.613 1.12-1.34 1.179-2.265.07-1.1-.425-1.956-1.202-2.676-.638-.593-1.391-1.006-2.185-1.35-.649-.282-1.23-.143-1.677.401-.388.472-.773.945-1.159 1.419a175.15 175.15 0 0 1-2.67 3.228c-.841.985-1.95 1.495-3.263 1.44-1.246-.054-2.242-.634-3.025-1.583-.42-.508-.835-1.02-1.249-1.533-.383-.474-.767-.948-1.154-1.419a51.713 51.713 0 0 0-1.406-1.641c-.373-.416-.861-.582-1.388-.386-1.056.393-2.027.943-2.773 1.811-.865 1.007-1.1 2.135-.54 3.372.296.654.79 1.152 1.361 1.575 1.03.76 2.2 1.223 3.418 1.576Z"/></svg>