<svg width="40" height="40" viewBox="0 0 40 40" fill="none" xmlns="http://www.w3.org/2000/svg">
<path d="M5 30V15C5 13.1591 6.49238 11.6667 8.33333 11.6667H9.88272C10.9972 11.6667 12.038 11.1097 12.6562 10.1823L14.0104 8.151C14.6287 7.22367 15.6694 6.66667 16.7839 6.66667H23.2161C24.3306 6.66667 25.3713 7.22367 25.9896 8.151L27.3438 10.1823C27.962 11.1097 29.0028 11.6667 30.1173 11.6667H31.6667C33.5076 11.6667 35 13.1591 35 15V30C35 31.8409 33.5076 33.3333 31.6667 33.3333H8.33333C6.49238 33.3333 5 31.8409 5 30Z" stroke="black" stroke-width="2.5" stroke-linecap="round" stroke-linejoin="round"/>
<path d="M25 21.6667C25 24.4281 22.7614 26.6667 20 26.6667C17.2386 26.6667 15 24.4281 15 21.6667C15 18.9052 17.2386 16.6667 20 16.6667C22.7614 16.6667 25 18.9052 25 21.6667Z" stroke="black" stroke-width="2.5" stroke-linecap="round" stroke-linejoin="round"/>
</svg>
