<svg xmlns="http://www.w3.org/2000/svg" width="32" height="32" fill="none"><path stroke="#fff" stroke-linecap="round" stroke-width="1.5" d="m4.464 11.732-.333-.577m.333.577a2 2 0 1 1 3.464-2l.667 1.155m-4.13.845 2.666 4.619m0 0a2 2 0 0 0-3.464 2L7 24.124c1.333 2.31 4.244 6.018 10.595 2.351 6.35-3.666 4.261-8.619 2.928-10.928l-1-1.732a2 2 0 0 0-3.464 2m-8.928.536 2.333 4.041m-.87-9.505a2 2 0 1 1 3.465-2l4 6.928m-7.464-4.928 4.333 7.505m3.131-2.577 1.667 2.887M20 7.38c1.158 0 2.363.478 3.3 1.414.936.937 1.414 2.142 1.414 3.3M21.886 3.61c1.389.232 2.931 1.045 4.242 2.357 1.311 1.31 2.125 2.853 2.357 4.242"/></svg>