<svg xmlns="http://www.w3.org/2000/svg" width="32" height="32" fill="none"><g fill="#fff" fill-rule="evenodd" clip-path="url(#a)" clip-rule="evenodd"><path d="M18.22 3.136a1.333 1.333 0 0 0-1.908 1.862l.715.733a13.352 13.352 0 0 0-3.007 9.13l.029.586a1.333 1.333 0 0 0 2.274.877l5.657-5.657 7.543 7.542a1.333 1.333 0 1 0 1.885-1.886l-7.542-7.542 5.657-5.657A1.333 1.333 0 0 0 28.637.85l-.624-.027a13.464 13.464 0 0 0-9.098 3.025l-.694-.711Z"/><path d="M12.465 8.287a16.012 16.012 0 0 0-1.109 6.707l.03.587c.044.892.383 1.722.936 2.378l-1.21.672-9.137-5.075a1.052 1.052 0 0 0-.037-.02l-.789-.4c.173-.15.362-.282.566-.395l7.777-4.322a3.334 3.334 0 0 1 2.973-.132Zm2.045 10.998a4 4 0 0 0 3.7-1.076l2.202-2.203.896-.497.863-.438c.034.19.051.386.051.583v8.496c0 1.21-.656 2.326-1.714 2.914l-7.778 4.321a3.334 3.334 0 0 1-.508.229V20.556l2.288-1.271ZM.051 15.071c-.034.19-.051.386-.051.583v8.496c0 1.21.656 2.326 1.715 2.914l7.777 4.321c.164.091.334.168.508.23V20.555L.915 15.51.05 15.07Z"/></g><defs><clipPath id="a"><path fill="#fff" d="M0 0h32v32H0z"/></clipPath></defs></svg>