<svg xmlns="http://www.w3.org/2000/svg" width="32" height="32" fill="none"><path fill="#fff" d="M21.333 13.333a4.31 4.31 0 0 1-2.445-.784c-.9-.647-1.555-1.714-1.555-3.216V2.667H8a4.31 4.31 0 0 0-2.446.784C4.655 4.1 4 5.166 4 6.667v18.666c0 .658.186 1.615.785 2.446.647.899 1.714 1.554 3.215 1.554h16a4.31 4.31 0 0 0 2.446-.784c.899-.647 1.554-1.714 1.554-3.216v-12h-6.667Z"/><path fill="#fff" d="M28 10.667c0-.354-.14-.693-.39-.943l-6.667-6.667c-.25-.25-.59-.39-.943-.39v6.666c0 .633.233.899.446 1.052.28.201.656.282.887.282H28Z"/></svg>