<svg xmlns="http://www.w3.org/2000/svg" width="32" height="32" fill="none"><path fill="#fff" fill-rule="evenodd" d="M17.028 6.723a9.338 9.338 0 0 0-9.61 12.956 4 4 0 1 1-2.224 1.548c-2.161-4.47-1.39-10.002 2.32-13.712a11.98 11.98 0 0 1 9.806-3.443 1.333 1.333 0 1 1-.292 2.651Zm3.686-1.094a4 4 0 0 1 6.09 5.144c2.163 4.47 1.392 10.002-2.319 13.712a11.98 11.98 0 0 1-9.805 3.442 1.333 1.333 0 1 1 .292-2.65 9.337 9.337 0 0 0 9.61-12.956 4 4 0 0 1-3.867-6.692Zm-7.542 7.543a4 4 0 1 1 5.656 5.656 4 4 0 0 1-5.656-5.656Z" clip-rule="evenodd"/></svg>