<svg xmlns="http://www.w3.org/2000/svg" width="32" height="32" fill="none"><path stroke="#fff" stroke-linecap="round" stroke-linejoin="round" stroke-width="2" d="M21.333 6.667 19.448 4.78c-.5-.5-1.179-.781-1.886-.781H12M9.333 4H12m0 0v5.333m0 0c-5.333 0-6.667 4.445-6.667 6.667v9.333A2.667 2.667 0 0 0 8 28h8a2.667 2.667 0 0 0 2.667-2.667V24M12 9.333c1.449 0 3.843.567 5.333 2.44M12 16v2.667m0 0v2.666m0-2.666h2.667m-2.667 0H9.333m13.334-8-2.927 4.511c-.7 1.08-1.167 2.38-.712 3.584.49 1.301 1.556 2.571 3.639 2.571 2.082 0 3.148-1.27 3.639-2.57.454-1.205-.012-2.505-.713-3.585l-2.926-4.511Z"/></svg>