<svg xmlns="http://www.w3.org/2000/svg" width="32" height="32" fill="none"><path fill="#fff" fill-rule="evenodd" d="M4 8a4 4 0 0 1 4-4h16a4 4 0 0 1 4 4v16a4 4 0 0 1-4 4H8a4 4 0 0 1-4-4V8Zm5.333 2.667c0-.737.597-1.334 1.334-1.334h10.666a1.333 1.333 0 1 1 0 2.667H10.667a1.333 1.333 0 0 1-1.334-1.333Zm0 5.333c0-.736.597-1.333 1.334-1.333h10.666a1.333 1.333 0 1 1 0 2.666H10.667A1.333 1.333 0 0 1 9.333 16Zm0 5.333c0-.736.597-1.333 1.334-1.333H16a1.333 1.333 0 0 1 0 2.667h-5.333a1.333 1.333 0 0 1-1.334-1.334Z" clip-rule="evenodd"/></svg>