<svg xmlns="http://www.w3.org/2000/svg" width="32" height="32" fill="none"><path stroke="#fff" stroke-linecap="round" stroke-linejoin="round" stroke-width="1.5" d="M4 24V12a2.667 2.667 0 0 1 2.667-2.667h1.24c.89 0 1.723-.445 2.218-1.187l1.083-1.625a2.666 2.666 0 0 1 2.22-1.188h5.145c.892 0 1.724.446 2.219 1.188l1.083 1.625a2.667 2.667 0 0 0 2.219 1.187h1.24A2.667 2.667 0 0 1 28 12v12a2.667 2.667 0 0 1-2.667 2.667H6.667A2.667 2.667 0 0 1 4 24Z"/><path stroke="#fff" stroke-linecap="round" stroke-linejoin="round" stroke-width="1.5" d="M20 17.333a4 4 0 1 1-8 0 4 4 0 0 1 8 0Z"/></svg>