<svg xmlns="http://www.w3.org/2000/svg" width="32" height="32" fill="none"><path stroke="#fff" stroke-linecap="round" stroke-linejoin="round" stroke-width="1.5" d="M28 22.667H9.333A2.667 2.667 0 0 1 6.667 20V6.667A2.667 2.667 0 0 0 4 4m12 1.333h-1.333A2.667 2.667 0 0 0 12 8v8a2.667 2.667 0 0 0 2.667 2.667h8A2.667 2.667 0 0 0 25.333 16V8a2.667 2.667 0 0 0-2.666-2.667h-1.334m-5.333 0h5.333m-5.333 0v4h5.333v-4m-5.333 8h2.667m-4 12a2.667 2.667 0 1 1-5.334 0 2.667 2.667 0 0 1 5.334 0Zm12 0a2.667 2.667 0 1 1-5.334 0 2.667 2.667 0 0 1 5.334 0Z"/></svg>