<svg width="40" height="40" viewBox="0 0 40 40" fill="none" xmlns="http://www.w3.org/2000/svg">
<path d="M35 20V8.33333C35 6.49238 33.5076 5 31.6667 5H8.33333C6.49238 5 5 6.49238 5 8.33333V26.6667M35 20C24.2628 20 18.1577 23.3086 14.9084 27.0711M35 20V31.6667C35 33.5076 33.5076 35 31.6667 35H26.6667M5 26.6667V31.6667C5 33.5076 6.49238 35 8.33333 35H26.6667M5 26.6667C7.33821 26.277 11.0614 26.1788 14.9084 27.0711M26.6667 35C23.8274 30.3862 19.2877 28.0869 14.9084 27.0711M14.1667 11.6667C13.3333 11.6667 11.6667 12.1667 11.6667 14.1667C11.6667 16.1667 13.3333 16.6667 14.1667 16.6667C15 16.6667 16.6667 16.1667 16.6667 14.1667C16.6667 12.1667 15 11.6667 14.1667 11.6667Z" stroke="currentColor" stroke-width="2.5" stroke-linecap="round" stroke-linejoin="round"/>
</svg>
