<svg xmlns="http://www.w3.org/2000/svg" width="32" height="32" fill="none"><path fill="#fff" d="M6.973 4.344C9.352 3.287 12.544 2.667 16 2.667c3.456 0 6.648.62 9.027 1.677 1.187.528 2.231 1.19 2.996 1.994.771.81 1.31 1.825 1.31 2.995 0 .195-.106.558-.697 1.06-.584.498-1.507 1.006-2.756 1.458-2.489.9-5.995 1.482-9.88 1.482-3.885 0-7.391-.582-9.88-1.482-1.25-.452-2.172-.96-2.756-1.457-.59-.503-.697-.866-.697-1.06 0-1.17.539-2.185 1.31-2.996.765-.803 1.809-1.466 2.996-1.994Z"/><path fill="#fff" d="M2.667 13.165v4.168c0 .195.106.558.697 1.06.584.498 1.507 1.006 2.756 1.458 2.489.9 5.995 1.482 9.88 1.482 3.885 0 7.391-.581 9.88-1.482 1.25-.452 2.172-.96 2.756-1.457.59-.503.697-.866.697-1.06v-4.169c-.742.456-1.606.853-2.546 1.193C23.942 15.388 20.115 16 16 16c-4.115 0-7.942-.612-10.787-1.642-.94-.34-1.804-.737-2.546-1.193Z"/><path fill="#fff" d="M29.333 21.165c-.742.456-1.606.853-2.546 1.193C23.942 23.388 20.115 24 16 24c-4.115 0-7.942-.612-10.787-1.642-.94-.34-1.804-.737-2.546-1.193v1.502c0 1.17.539 2.184 1.31 2.995.765.803 1.809 1.467 2.996 1.994 2.379 1.058 5.571 1.677 9.027 1.677 3.456 0 6.648-.62 9.027-1.677 1.187-.527 2.231-1.19 2.996-1.994.771-.81 1.31-1.825 1.31-2.995v-1.502Z"/></svg>