<svg xmlns="http://www.w3.org/2000/svg" width="32" height="32" fill="none"><path fill="#fff" fill-rule="evenodd" d="M9.333 2.667H16v14.802a3.678 3.678 0 0 0-.284.256c-.854.854-1.113 1.927-1.037 2.867.07.87.433 1.717.984 2.297l.337.412v3.366H9.333a4 4 0 0 1-4-4v-16a4 4 0 0 1 4-4ZM12 8c.736 0 1.333.597 1.333 1.333v4a1.333 1.333 0 1 1-2.666 0v-4C10.667 8.597 11.264 8 12 8Z" clip-rule="evenodd"/><path fill="#fff" d="M18.667 26.56v.107h.087l-.087-.107ZM24 12.535V6.667a4 4 0 0 0-4-4h-1.333v14.032c.486.06.962.239 1.36.417.485.217.99.498 1.466.783.44.262.881.543 1.282.798l.104.066c.44.28.813.515 1.118.687v-6.806c0-.037 0-.073.003-.109Z"/><path fill="#fff" fill-rule="evenodd" d="M18.382 18.012c1.225.054 3.596 1.83 4.96 2.6a1.333 1.333 0 0 0 1.988-1.162v-6.806c0-.238.287-.357.455-.189l.813.812a9.333 9.333 0 0 1 2.736 6.602v9.465l-6.667.008-5.972-7.297a1.302 1.302 0 0 0-.066-.074c-.32-.338-.572-.89-.62-1.487-.05-.618.117-1.284.65-1.816a2.244 2.244 0 0 1 1.723-.656Z" clip-rule="evenodd"/></svg>