<svg xmlns="http://www.w3.org/2000/svg" width="32" height="32" fill="none"><path fill="#fff" fill-rule="evenodd" d="M9.333 4c0-.736.597-1.333 1.334-1.333 1.102 0 2.726.32 4.112 1.318 1.314.945 2.338 2.45 2.524 4.625.21-.058.416-.13.619-.218l.39-.167c4.143-1.775 8.878.652 9.856 5.051a13.053 13.053 0 0 1-2.12 10.418l-1.443 2.02a5.736 5.736 0 0 1-7.233 1.796 3.069 3.069 0 0 0-2.745 0 5.736 5.736 0 0 1-7.232-1.796l-1.442-2.02a13.053 13.053 0 0 1-2.12-10.418c.977-4.4 5.712-6.826 9.854-5.051l.391.167c.177.076.358.141.54.195-.167-1.236-.75-1.972-1.397-2.438-.836-.602-1.879-.816-2.554-.816A1.333 1.333 0 0 1 9.333 4Z" clip-rule="evenodd"/></svg>