<svg xmlns="http://www.w3.org/2000/svg" width="32" height="32" fill="none"><path fill="#fff" d="M6 2.667c-.547 0-1.337.153-2.029.651-.76.547-1.304 1.448-1.304 2.682 0 1.235.544 2.135 1.304 2.682a3.566 3.566 0 0 0 2.03.651c.546 0 1.336-.153 2.028-.65C8.79 8.134 9.333 7.234 9.333 6c0-1.234-.544-2.135-1.304-2.682A3.566 3.566 0 0 0 6 2.667Zm16.287 5.219c-1.036-1.726-3.538-1.726-4.574 0l-2.208 3.682 8.789 9.765H28a1.333 1.333 0 0 0 1.143-2.019L22.287 7.886Zm-1.581 13.447-8.461-9.401a2.668 2.668 0 0 0-3.627.444l-5.642 6.77A1.333 1.333 0 0 0 4 21.334h16.706Zm-8.056 5.551a1.773 1.773 0 0 0-2.408.093 4.44 4.44 0 0 1-5.913.327l-1.162-.93a1.333 1.333 0 0 1 1.666-2.082l1.162.93a1.773 1.773 0 0 0 2.362-.13 4.44 4.44 0 0 1 6.028-.232l.24.205a2.113 2.113 0 0 0 2.75 0l.24-.205a4.44 4.44 0 0 1 6.029.231 1.773 1.773 0 0 0 2.36.131l1.163-.93a1.333 1.333 0 1 1 1.666 2.083l-1.162.93a4.44 4.44 0 0 1-5.913-.328 1.773 1.773 0 0 0-2.408-.093l-.239.206a4.78 4.78 0 0 1-6.222 0l-.24-.206Z"/></svg>