<svg xmlns="http://www.w3.org/2000/svg" width="32" height="32" fill="none"><path fill="#fff" fill-rule="evenodd" d="M4 5.333C4 4.597 4.597 4 5.333 4h5.334c.611 0 1.145.416 1.293 1.01l1.333 5.333a1.333 1.333 0 0 1-.425 1.336l-3.902 3.344c1.594 3.251 4.13 6.307 7.989 8.232l3.346-4.098c.326-.4.855-.576 1.356-.45l5.333 1.333c.594.148 1.01.681 1.01 1.293v5.334c0 .736-.597 1.333-1.333 1.333-3.84 0-7.104-.69-9.86-1.875-5.503-2.367-8.83-6.633-10.696-10.927C4.566 11.645 4 8.03 4 5.333Z" clip-rule="evenodd"/></svg>