<svg width="40" height="40" viewBox="0 0 40 40" fill="none" xmlns="http://www.w3.org/2000/svg">
<path d="M30 26.6928C32.0746 27.5742 33.3334 28.732 33.3334 30C33.3334 32.7615 27.3638 35 20 35C12.6362 35 6.66669 32.7615 6.66669 30C6.66669 28.732 7.92548 27.5742 10 26.6928M28.3334 14.0741C28.3334 19.2287 20 28.3333 20 28.3333C20 28.3333 11.6667 19.2287 11.6667 14.0741C11.6667 8.91942 15.3976 5 20 5C24.6024 5 28.3334 8.91942 28.3334 14.0741ZM21.6667 13.3333C21.6667 14.2538 20.9205 15 20 15C19.0795 15 18.3334 14.2538 18.3334 13.3333C18.3334 12.4129 19.0795 11.6667 20 11.6667C20.9205 11.6667 21.6667 12.4129 21.6667 13.3333Z" stroke="currentColor" stroke-width="2.5" stroke-linecap="round" stroke-linejoin="round"/>
</svg>
