<svg xmlns="http://www.w3.org/2000/svg" width="32" height="32" fill="none"><path fill="#fff" fill-rule="evenodd" d="M6.888 6.685a4.002 4.002 0 0 1 7.551-.018H28a1.333 1.333 0 1 1 0 2.666H14.44a4.002 4.002 0 0 1-7.552-.018 1.343 1.343 0 0 1-.221.018H4a1.333 1.333 0 1 1 0-2.666h2.667c.075 0 .149.006.22.018Zm10.673 7.982a4.002 4.002 0 0 1 7.551.018c.072-.012.146-.018.221-.018H28a1.333 1.333 0 1 1 0 2.666h-2.667c-.075 0-.149-.006-.22-.018a4.002 4.002 0 0 1-7.552.018H4a1.333 1.333 0 1 1 0-2.666h13.56ZM6.888 22.685a4.002 4.002 0 0 1 7.551-.018H28a1.333 1.333 0 1 1 0 2.666H14.44a4.002 4.002 0 0 1-7.552-.018 1.344 1.344 0 0 1-.221.018H4a1.333 1.333 0 1 1 0-2.666h2.667c.075 0 .149.006.22.018Z" clip-rule="evenodd"/></svg>