<svg xmlns="http://www.w3.org/2000/svg" width="32" height="32" fill="none"><path fill="#fff" d="M6.667 2.667a4 4 0 0 0-4 4v2.666a1.333 1.333 0 1 0 2.666 0V6.667c0-.737.597-1.334 1.334-1.334h2.666a1.333 1.333 0 0 0 0-2.666H6.667Zm16 0a1.333 1.333 0 1 0 0 2.666h2.666c.737 0 1.334.597 1.334 1.334v2.666a1.333 1.333 0 1 0 2.666 0V6.667a4 4 0 0 0-4-4h-2.666Zm-6.071 4.141a1.333 1.333 0 0 0-1.192 0L8 10.509l8 4 8-4-7.404-3.701Zm8.737 6.016-8 4v8l7.263-3.631c.452-.226.737-.688.737-1.193v-7.176Zm-10.666 12v-8l-8-4V20c0 .505.285.967.737 1.193l7.263 3.631Zm-9.334-2.157a1.333 1.333 0 0 0-2.666 0v2.666a4 4 0 0 0 4 4h2.666a1.333 1.333 0 1 0 0-2.666H6.667a1.333 1.333 0 0 1-1.334-1.334v-2.666Zm24 0a1.333 1.333 0 0 0-2.666 0v2.666c0 .737-.597 1.334-1.334 1.334h-2.666a1.333 1.333 0 0 0 0 2.666h2.666a4 4 0 0 0 4-4v-2.666Z"/></svg>