<svg width="40" height="40" viewBox="0 0 40 40" fill="none" xmlns="http://www.w3.org/2000/svg">
<path d="M5.58013 14.6651L5.16346 13.9434M5.58013 14.6651C4.88977 13.4693 5.29946 11.9404 6.49519 11.25C7.69092 10.5596 9.2199 10.9693 9.91025 12.1651L10.7436 13.6084M5.58013 14.6651L8.91346 20.4386M8.91346 20.4386C8.2231 19.2428 6.69413 18.8331 5.4984 19.5235C4.30266 20.2139 3.89298 21.7428 4.58333 22.9386L8.75 30.1554C10.4167 33.0422 14.055 37.6773 21.9936 33.094C29.9321 28.5107 27.3205 22.3205 25.6538 19.4338L24.4038 17.2687C23.7135 16.073 22.1845 15.6633 20.9888 16.3536C19.793 17.044 19.3834 18.573 20.0737 19.7687M8.91346 20.4386L11.8301 25.4904M10.7436 13.6084C10.0532 12.4127 10.4629 10.8837 11.6586 10.1934C12.8544 9.50302 14.3834 9.91271 15.0737 11.1084L20.0737 19.7687M10.7436 13.6084L16.1603 22.9904M20.0737 19.7687L22.157 23.3771M25 9.22608C26.4471 9.22655 27.9541 9.82316 29.1248 10.9938C30.2955 12.1645 30.8921 13.6715 30.8926 15.1186M27.357 4.51192C29.0936 4.80191 31.0213 5.81925 32.6603 7.4582C34.2992 9.09716 35.3166 11.0249 35.6066 12.7615" stroke="currentColor" stroke-width="2.5" stroke-linecap="round"/>
</svg>
