<svg xmlns="http://www.w3.org/2000/svg" width="32" height="32" fill="none"><g stroke="#fff" stroke-linecap="round" stroke-linejoin="round" stroke-width="2" clip-path="url(#a)"><path d="m18.856 5.696-1.59-1.629m1.59 1.63v0a12.018 12.018 0 0 0-3.505 9.097l.03.587 4.714-4.714L21.98 8.78m-3.124-3.085v0a12.13 12.13 0 0 1 9.1-3.541l.624.026-4.714 4.714-1.886 1.886m0 0 8.486 8.485M1.333 14.667v10.666l9.334 5.334m-9.334-16L10.667 20m-9.334-5.333 9.334-5.334m0 21.334V20m0 10.667L20 25.333v-6.666M10.667 20 12 19.238"/></g><defs><clipPath id="a"><path fill="#fff" d="M0 0h32v32H0z"/></clipPath></defs></svg>