<svg width="40" height="40" viewBox="0 0 40 40" fill="none" xmlns="http://www.w3.org/2000/svg">
<path d="M13.3334 8.33333H10C8.15907 8.33333 6.66669 9.82572 6.66669 11.6667V31.6667C6.66669 33.5076 8.15907 35 10 35H30C31.841 35 33.3334 33.5076 33.3334 31.6667V11.6667C33.3334 9.82572 31.841 8.33333 30 8.33333H26.6667M13.3334 8.33333C13.3334 10.1743 14.8257 11.6667 16.6667 11.6667H23.3334C25.1743 11.6667 26.6667 10.1743 26.6667 8.33333M13.3334 8.33333C13.3334 6.49238 14.8257 5 16.6667 5H23.3334C25.1743 5 26.6667 6.49238 26.6667 8.33333" stroke="currentColor" stroke-width="2.5" stroke-linecap="round" stroke-linejoin="round"/>
</svg>
