<svg xmlns="http://www.w3.org/2000/svg" width="32" height="32" fill="none"><path fill="#fff" fill-rule="evenodd" d="M2.667 6.667a4 4 0 0 1 4-4h8.228a4 4 0 0 1 2.829 1.171L28.39 14.505a4 4 0 0 1 0 5.657l-8.228 8.229a4 4 0 0 1-5.657 0L3.838 17.724a4 4 0 0 1-1.171-2.829V6.668ZM8 9.333C8 8.597 8.597 8 9.333 8h.014a1.333 1.333 0 0 1 0 2.667h-.014A1.333 1.333 0 0 1 8 9.333Zm10.442 4.844a2.649 2.649 0 0 1 3.307.354 3.964 3.964 0 0 1 0 5.605l-3.473 3.474a1.333 1.333 0 0 1-1.886 0l-3.905-3.906a3.353 3.353 0 0 1 4.383-5.053l.029.022a.728.728 0 0 0 .873 0l.463-.348.06-.042m1.582 2.144-.505.379a3.394 3.394 0 0 1-4.073 0l-.03-.022a.686.686 0 0 0-.896 1.035l2.962 2.962 2.53-2.53a1.297 1.297 0 0 0 .012-1.824Z" clip-rule="evenodd"/></svg>