<svg xmlns="http://www.w3.org/2000/svg" width="32" height="32" fill="none"><path stroke="#fff" stroke-linecap="round" stroke-linejoin="round" stroke-width="1.5" d="M28 16V6.667A2.667 2.667 0 0 0 25.333 4H6.667A2.667 2.667 0 0 0 4 6.667v14.666M28 16c-8.59 0-13.474 2.647-16.073 5.657M28 16v9.333A2.667 2.667 0 0 1 25.333 28h-4M4 21.333v4A2.667 2.667 0 0 0 6.667 28h14.666M4 21.333c1.87-.311 4.85-.39 7.927.324M21.333 28c-2.271-3.691-5.903-5.53-9.406-6.343m-.594-12.324c-.666 0-2 .4-2 2s1.334 2 2 2c.667 0 2-.4 2-2s-1.333-2-2-2Z"/></svg>