<svg xmlns="http://www.w3.org/2000/svg" width="32" height="32" fill="none"><path fill="#fff" fill-rule="evenodd" d="M20.117 2.932a1.333 1.333 0 0 1 1.343.403l2.517 2.838 3.36-.326a1.333 1.333 0 0 1 1.283 1.994l-1.945 3.369 1.87 2.83a1.333 1.333 0 0 1-1.38 2.042l-3.729-.763-2.847 2.525a1.333 1.333 0 0 1-2.216-1.078l.204-3.386-3.37-1.945a1.333 1.333 0 0 1 .115-2.368l3.073-1.399.761-3.716c.101-.494.473-.89.961-1.02Zm-6.879 7.24c.274.683-.06 1.46-.743 1.733-1.02.407-2.728 1.259-4.429 2.453-1.714 1.203-3.314 2.68-4.242 4.304a1.333 1.333 0 1 1-2.315-1.323c1.205-2.11 3.161-3.856 5.025-5.164 1.877-1.317 3.768-2.265 4.97-2.746a1.334 1.334 0 0 1 1.734.742Zm3.253 3.833c.365.64.143 1.454-.496 1.82-2.97 1.696-9.556 6.91-12.073 13.957a1.333 1.333 0 1 1-2.511-.897c2.816-7.886 10.008-13.517 13.26-15.376a1.333 1.333 0 0 1 1.82.496Zm1.119 4.386c.52.52.52 1.365 0 1.885-1.538 1.538-4.919 5.323-6.417 8.32a1.333 1.333 0 1 1-2.386-1.192c1.702-3.403 5.343-7.44 6.917-9.013a1.333 1.333 0 0 1 1.886 0Z" clip-rule="evenodd"/></svg>