<svg xmlns="http://www.w3.org/2000/svg" width="32" height="32" fill="none"><path fill="#fff" fill-rule="evenodd" d="M2.667 4c0-.736.597-1.333 1.333-1.333a4 4 0 0 1 4 4V20c0 .736.597 1.333 1.333 1.333H28A1.333 1.333 0 0 1 28 24h-.228a4 4 0 1 1-7.545 0h-4.455a4 4 0 1 1-7.492-.14A4.002 4.002 0 0 1 5.333 20V6.667c0-.737-.597-1.334-1.333-1.334A1.333 1.333 0 0 1 2.667 4Z" clip-rule="evenodd"/><path fill="#fff" fill-rule="evenodd" d="M14.667 4a4 4 0 0 0-4 4v8a4 4 0 0 0 4 4h8a4 4 0 0 0 4-4V8a4 4 0 0 0-4-4v4c0 .736-.597 1.333-1.334 1.333H16A1.333 1.333 0 0 1 14.667 8V4ZM16 12a1.333 1.333 0 1 0 0 2.667h2.667a1.333 1.333 0 1 0 0-2.667H16Z" clip-rule="evenodd"/><path fill="#fff" d="M17.333 4H20v2.667h-2.667V4Z"/></svg>