<svg xmlns="http://www.w3.org/2000/svg" width="32" height="32" fill="none"><path stroke="#fff" stroke-linecap="round" stroke-linejoin="round" stroke-width="1.5" d="m18.832 11.285 6.351-3.666a3.333 3.333 0 1 1 3.334 5.773l-4.642 2.68c-.35.202-.59.553-.651.954l-1.093 7.173c-.06.4-.3.751-.651.954l-2.358 1.361a1.333 1.333 0 0 1-1.987-.964l-.462-3.209a1.333 1.333 0 0 0-1.986-.964l-4.461 2.576a1.333 1.333 0 0 1-1.466-.087L2.952 19.52a1.333 1.333 0 0 1 .132-2.223l2.154-1.243c.438-.253.98-.236 1.402.042l1.112.734c.422.279.964.295 1.402.042l3.905-2.254m5.773-3.334L13.315 8.93a1.333 1.333 0 0 0-1.19.071L9.95 10.255a1.333 1.333 0 0 0-.068 2.267l3.176 2.097m5.773-3.334L13.06 14.62"/></svg>