<svg width="32" height="32" viewBox="0 0 32 32" fill="none" xmlns="http://www.w3.org/2000/svg">
<path d="M9.33333 4H6.66667C5.19391 4 4 5.19391 4 6.66667V9.33333M4 22.6667V25.3333C4 26.8061 5.19391 28 6.66667 28H9.33333M22.6667 28H25.3333C26.8061 28 28 26.8061 28 25.3333V22.6667M28 9.33333V6.66667C28 5.19391 26.8061 4 25.3333 4H22.6667M8 12L16 8L24 12M8 12V20L16 24M8 12L16 16M16 16L24 12M16 16V24M24 12V20L16 24" stroke="#fff" stroke-width="2" stroke-linecap="round" stroke-linejoin="round"/>
</svg>
