<svg width="40" height="40" viewBox="0 0 40 40" fill="none" xmlns="http://www.w3.org/2000/svg">
<path d="M5 31.6667L6.45286 32.829C7.99783 34.0649 10.2251 33.9416 11.6241 32.5425C13.0588 31.1078 15.3562 31.0196 16.8967 32.34L17.196 32.5966C18.8095 33.9796 21.1905 33.9796 22.804 32.5966L23.1033 32.34C24.6438 31.0196 26.9412 31.1078 28.3759 32.5425C29.7749 33.9416 32.0022 34.0649 33.5471 32.829L35 31.6667M5 25L12.053 16.5364C12.7193 15.7369 13.9474 15.7369 14.6137 16.5364L17.7907 20.3488M35 25L26.4292 10.7153C25.7818 9.63636 24.2182 9.63636 23.5708 10.7153L17.7907 20.3488M17.7907 20.3488L21.6667 25M7.5 5C6.66667 5 5 5.5 5 7.5C5 9.5 6.66667 10 7.5 10C8.33333 10 10 9.5 10 7.5C10 5.5 8.33333 5 7.5 5Z" stroke="black" stroke-width="2.5" stroke-linecap="round" stroke-linejoin="round"/>
</svg>
