<svg width="40" height="40" viewBox="0 0 40 40" fill="none" xmlns="http://www.w3.org/2000/svg">
<path d="M23.5406 14.1068L31.4792 9.5235C33.472 8.37291 36.0203 9.05572 37.1709 11.0486C38.3215 13.0415 37.6387 15.5898 35.6458 16.7404L29.8444 20.0899C29.4059 20.343 29.1063 20.7818 29.03 21.2823L27.6644 30.2487C27.5882 30.7492 27.2885 31.188 26.8501 31.4411L23.9022 33.1431C22.8811 33.7326 21.5874 33.1044 21.4192 31.9374L20.8414 27.9269C20.6733 26.7599 19.3796 26.1317 18.3585 26.7212L12.7819 29.9409C12.2045 30.2742 11.484 30.2314 10.9501 29.832L3.69053 24.4009C2.73245 23.6841 2.81938 22.2212 3.8556 21.623L6.54811 20.0684C7.09482 19.7528 7.77294 19.7731 8.29976 20.121L9.69061 21.0393C10.2174 21.3871 10.8956 21.4074 11.4423 21.0918L16.3237 18.2735M23.5406 14.1068L16.6435 11.1607C16.161 10.9546 15.6098 10.9877 15.1554 11.25L12.4391 12.8183C11.3661 13.4378 11.3201 14.9699 12.3541 15.6525L16.3237 18.2735M23.5406 14.1068L16.3237 18.2735" stroke="currentColor" stroke-width="2.5" stroke-linecap="round" stroke-linejoin="round"/>
</svg>
