<svg xmlns="http://www.w3.org/2000/svg" width="32" height="32" fill="none"><path fill="#fff" fill-rule="evenodd" d="M9.724 3.057c.52-.52 1.365-.52 1.886 0l5.333 5.334A1.333 1.333 0 0 1 16 10.667h-4V16a1.333 1.333 0 1 1-2.667 0v-5.333h-4a1.333 1.333 0 0 1-.942-2.276l5.333-5.334Zm11.1 6.378a1.333 1.333 0 0 1 1.452.289l5.334 5.333c.52.521.52 1.365 0 1.886l-5.334 5.333A1.333 1.333 0 0 1 20 21.333v-3.665c-1.333.32-2.774.892-4.054 1.814C13.789 21.035 12 23.635 12 28a1.333 1.333 0 1 1-2.667 0c0-5.235 2.211-8.635 5.055-10.682 1.799-1.295 3.814-2.025 5.612-2.379v-4.272c0-.54.325-1.026.823-1.232Z" clip-rule="evenodd"/></svg>