<svg xmlns="http://www.w3.org/2000/svg" width="32" height="32" fill="none"><path fill="#fff" d="M10.667 11.333a.81.81 0 0 1 .07-.376.392.392 0 0 1 .125-.142.893.893 0 0 1 .47-.149.893.893 0 0 1 .472.15.39.39 0 0 1 .126.141c.028.055.07.167.07.376 0 .21-.042.322-.07.377a.391.391 0 0 1-.126.141.893.893 0 0 1-.471.149.893.893 0 0 1-.47-.149.392.392 0 0 1-.126-.141.81.81 0 0 1-.07-.377Z"/><path fill="#fff" fill-rule="evenodd" d="M6.667 2.667a4 4 0 0 0-4 4v13.51c.42-.072.812-.126 1.15-.165 1.867-.306 4.676-.393 7.642.183 3.012-3.1 8.195-5.528 16.541-5.528h1.333v-8a4 4 0 0 0-4-4H6.667ZM11.333 8c-.546 0-1.337.153-2.029.651C8.544 9.2 8 10.1 8 11.333c0 1.235.544 2.135 1.304 2.682a3.566 3.566 0 0 0 2.03.652 3.56 3.56 0 0 0 2.028-.652c.76-.547 1.305-1.447 1.305-2.682 0-1.234-.545-2.134-1.305-2.682a3.566 3.566 0 0 0-2.029-.65Z" clip-rule="evenodd"/><path fill="#fff" d="M29.333 17.333H28c-6.71 0-10.917 1.664-13.49 3.696 2.994 1.082 5.939 3.002 7.946 6.251a37.84 37.84 0 0 1 1.266 2.053h1.611a4 4 0 0 0 4-4v-8Zm-8.723 12a29.844 29.844 0 0 0-.412-.634c-2.026-3.292-5.289-4.982-8.572-5.743-2.892-.67-5.693-.593-7.407-.307a18.508 18.508 0 0 0-1.553.24v2.444a4 4 0 0 0 4 4H20.61Z"/></svg>