<svg xmlns="http://www.w3.org/2000/svg" width="32" height="32" fill="none"><path fill="#fff" d="M12.98 2.684a13.36 13.36 0 0 0-9.224 7.702h5.398c.476-1.474 1.26-3.234 2.152-4.896a34.273 34.273 0 0 1 1.675-2.806ZM2.924 13.053a13.396 13.396 0 0 0-.257 2.62c0 .898.088 1.774.257 2.621h3.987a4.011 4.011 0 0 1 1.466-1.9 18.4 18.4 0 0 1 .173-3.341H2.924Zm.832 7.908a13.36 13.36 0 0 0 9.315 7.723 45.28 45.28 0 0 1-.842-1.337c-.815-1.344-1.576-2.736-2.044-3.702a4.004 4.004 0 0 1-3.307-2.684H3.756Zm15.264 7.703a13.36 13.36 0 0 0 9.224-7.703h-5.398c-.476 1.475-1.261 3.234-2.152 4.896a34.296 34.296 0 0 1-1.675 2.807Zm10.056-10.37a13.405 13.405 0 0 0 0-5.241h-3.987a4.01 4.01 0 0 1-1.466 1.9 18.397 18.397 0 0 1-.173 3.341h5.626Zm-.832-7.908a13.36 13.36 0 0 0-9.299-7.72c.328.498.65 1.014.954 1.522a46.345 46.345 0 0 1 1.915 3.514 4.004 4.004 0 0 1 3.308 2.684h3.122ZM11.03 15.69c-.002-.883.072-1.765.22-2.637h6.328a4.003 4.003 0 0 0 3.393 2.604c0 .883-.073 1.765-.22 2.637h-6.329a4.003 4.003 0 0 0-3.393-2.604Zm.95-5.304h5.565a4.01 4.01 0 0 1 1.601-2.062 46.519 46.519 0 0 0-1.535-2.765 33.757 33.757 0 0 0-1.63-2.492c-.769 1.003-1.583 2.3-2.325 3.683a31.406 31.406 0 0 0-1.676 3.636Zm2.475 10.575h5.565a31.412 31.412 0 0 1-1.676 3.636c-.74 1.38-1.553 2.676-2.32 3.677a34.619 34.619 0 0 1-1.515-2.31 49.843 49.843 0 0 1-1.654-2.941 4.011 4.011 0 0 0 1.6-2.062ZM20 11.674a1.333 1.333 0 1 1 2.667 0 1.333 1.333 0 0 1-2.667 0Zm-10.667 8a1.333 1.333 0 1 1 2.667 0 1.333 1.333 0 0 1-2.667 0Z"/></svg>