<svg xmlns="http://www.w3.org/2000/svg" width="32" height="32" fill="none"><path fill="#fff" d="M8.284 9.127c.763-.416 1.59-.635 2.45-.767V5.473l-.42.002c-.31.002-.619.005-.927-.004-.578-.017-1-.311-1.224-.864a1.366 1.366 0 0 1-.051-.955c.06-.185.161-.361.303-.527.255-.298.586-.453.97-.453l1.834-.002c2.189-.004 4.377-.007 6.565.007 1.016.007 1.911.4 2.646 1.14.483.485.956.983 1.429 1.48l.548.577c.141.147.246.316.314.494.19.497.096 1.071-.285 1.482-.52.559-1.366.568-1.91.01-.615-.63-1.225-1.266-1.828-1.908a1.435 1.435 0 0 0-1.107-.482 398.1 398.1 0 0 1-2.808.004l-1.123-.001h-.216V8.39c1.79.342 3.38 1.108 4.676 2.51l-.19.307a959.707 959.707 0 0 0-.979 1.575c-.51.816-1.02 1.632-1.374 2.544a9.511 9.511 0 0 0-.556 2.055 1.334 1.334 0 0 0-.354-.048h-1.334V16a1.333 1.333 0 1 0-2.666 0v1.333H9.333a1.333 1.333 0 0 0 0 2.667h1.334v1.333a1.333 1.333 0 1 0 2.666 0V20h1.334c.143 0 .28-.022.41-.064.082.429.2.843.348 1.245.28.755.67 1.463 1.15 2.13a7.47 7.47 0 0 0 3.394 2.645c.067.027.159.11.162.171a6.142 6.142 0 0 1 0 .48c-.047 1.062-.408 2.008-1.152 2.798-.773.82-1.724 1.25-2.83 1.255-2.71.01-5.42.01-8.13 0-2.175-.008-3.964-1.839-3.976-4.098-.004-.809-.012-1.618-.02-2.427A360.545 360.545 0 0 1 4 20.584c0-1.44.017-2.878.073-4.315.121-3.131 1.453-5.635 4.211-7.142Z"/><path fill="#fff" d="M23.968 10.355a1.429 1.429 0 0 0-.805-.637c-.536-.159-1.137.052-1.498.632l-.57.912-.005.008c-.53.848-1.06 1.696-1.583 2.549-.111.181-.225.361-.34.54-.41.646-.82 1.292-1.102 2.017-.383.984-.582 1.998-.342 3.05.471 2.065 1.943 3.832 4.21 4.198.282.046.576.07.88.07.127-.016.254-.03.381-.043.277-.028.555-.057.825-.117 1.63-.363 2.762-1.385 3.488-2.926.384-.815.565-1.67.468-2.585-.112-1.052-.491-1.997-1.031-2.876a575.065 575.065 0 0 0-2.127-3.428l-.006-.01c-.282-.451-.563-.902-.843-1.354Z"/></svg>