<svg width="32" height="32" viewBox="0 0 32 32" fill="none" xmlns="http://www.w3.org/2000/svg">
<path fill-rule="evenodd" clip-rule="evenodd" d="M3.35183 23.8322C2.92854 23.5971 2.66602 23.1509 2.66602 22.6667V9.33337C2.66602 8.84915 2.92854 8.40299 3.35182 8.16783L15.3518 1.50117C15.7545 1.27744 16.2442 1.27744 16.6469 1.50117L28.6469 8.16783C29.0702 8.40299 29.3327 8.84915 29.3327 9.33337V22.6667C29.3327 23.1509 29.0702 23.5971 28.6469 23.8322L16.6469 30.4989C16.2442 30.7226 15.7545 30.7226 15.3518 30.4989L3.35183 23.8322ZM13.3327 9.66671C12.7804 9.66671 12.3327 10.1144 12.3327 10.6667C12.3327 11.219 12.7804 11.6667 13.3327 11.6667H17.3327C17.5168 11.6667 17.666 11.8159 17.666 12V15H15.9993C15.4471 15 14.9993 15.4478 14.9993 16C14.9993 16.5523 15.4471 17 15.9993 17H17.666V20C17.666 20.1841 17.5168 20.3334 17.3327 20.3334H13.3327C12.7804 20.3334 12.3327 20.7811 12.3327 21.3334C12.3327 21.8857 12.7804 22.3334 13.3327 22.3334H17.3327C18.6213 22.3334 19.666 21.2887 19.666 20V16V12C19.666 10.7114 18.6213 9.66671 17.3327 9.66671H13.3327Z" fill="black"/>
</svg>
