<svg width="32" height="32" viewBox="0 0 32 32" fill="none" xmlns="http://www.w3.org/2000/svg">
<path d="M4 13.3333V6.66665C4 5.93027 4.59695 5.33331 5.33333 5.33331H10.6667C10.6667 6.66665 11.7333 9.33331 16 9.33331C20.2667 9.33331 21.3333 6.66665 21.3333 5.33331H26.6667C27.403 5.33331 28 5.93027 28 6.66665V13.3333C28 14.0697 27.403 14.6666 26.6667 14.6666H25.3333C24.597 14.6666 24 15.2636 24 16V25.3333C24 26.0697 23.403 26.6666 22.6667 26.6666H9.33333C8.59695 26.6666 8 26.0697 8 25.3333V16C8 15.2636 7.40305 14.6666 6.66667 14.6666H5.33333C4.59695 14.6666 4 14.0697 4 13.3333Z" stroke="#fff" stroke-width="1.5" stroke-linecap="round" stroke-linejoin="round"/>
</svg>
