<svg width="32" height="32" viewBox="0 0 32 32" fill="none" xmlns="http://www.w3.org/2000/svg">
<path fill-rule="evenodd" clip-rule="evenodd" d="M2.6665 6.66667C2.6665 5.19391 3.86041 4 5.33317 4H10.6665C11.4029 4 11.9998 4.59695 11.9998 5.33333C11.9998 5.6921 12.1574 6.34994 12.695 6.90996C13.2002 7.43622 14.1618 8 15.9998 8C17.8379 8 18.7994 7.43622 19.3047 6.90996C19.8423 6.34994 19.9998 5.6921 19.9998 5.33333C19.9998 4.59695 20.5968 4 21.3332 4H26.6665C28.1393 4 29.3332 5.19391 29.3332 6.66667V13.3333C29.3332 14.8061 28.1393 16 26.6665 16H25.3332V25.3333C25.3332 26.8061 24.1393 28 22.6665 28H9.33317C7.86041 28 6.6665 26.8061 6.6665 25.3333V16H5.33317C3.86041 16 2.6665 14.8061 2.6665 13.3333V6.66667Z" fill="#fff"/>
</svg>
