<svg width="40" height="40" viewBox="0 0 40 40" fill="none" xmlns="http://www.w3.org/2000/svg">
<path d="M5 16.6667V10C5 9.07953 5.74619 8.33333 6.66667 8.33333L13.3333 6.66667C13.3333 8.33333 14.6667 11.6667 20 11.6667C25.3333 11.6667 26.6667 8.33333 26.6667 6.66667L33.3333 8.33333C34.2538 8.33333 35 9.07953 35 10V16.6667C35 17.5871 34.2538 18.3333 33.3333 18.3333H31.6667C30.7462 18.3333 30 19.0795 30 20V31.6667C30 32.5871 29.2538 33.3333 28.3333 33.3333H11.6667C10.7462 33.3333 10 32.5871 10 31.6667V20C10 19.0795 9.25381 18.3333 8.33333 18.3333H6.66667C5.74619 18.3333 5 17.5871 5 16.6667Z" stroke="currentColor" stroke-width="2.5" stroke-linecap="round" stroke-linejoin="round"/>
</svg>
